%TF.GenerationSoftware,KiCad,Pcbnew,(5.1.6)-1*%
%TF.CreationDate,2022-03-09T09:08:40-05:00*%
%TF.ProjectId,a500hdd-remake,61353030-6864-4642-9d72-656d616b652e,rev?*%
%TF.SameCoordinates,Original*%
%TF.FileFunction,Soldermask,Top*%
%TF.FilePolarity,Negative*%
%FSLAX46Y46*%
G04 Gerber Fmt 4.6, Leading zero omitted, Abs format (unit mm)*
G04 Created by KiCad (PCBNEW (5.1.6)-1) date 2022-03-09 09:08:40*
%MOMM*%
%LPD*%
G01*
G04 APERTURE LIST*
%ADD10C,1.738300*%
%ADD11R,1.738300X1.738300*%
%ADD12R,1.825000X1.825000*%
%ADD13C,1.825000*%
%ADD14R,1.800000X1.800000*%
%ADD15O,1.800000X1.800000*%
%ADD16R,0.550000X1.000000*%
G04 APERTURE END LIST*
D10*
%TO.C,BUS1*%
X94255001Y-103386301D03*
X94255001Y-98534901D03*
X96795001Y-103386301D03*
X96795001Y-98534901D03*
X99335001Y-103386301D03*
X99335001Y-98534901D03*
X101875001Y-103386301D03*
X101875001Y-98534901D03*
X104415001Y-103386301D03*
X104415001Y-98534901D03*
X106955001Y-103386301D03*
X106955001Y-98534901D03*
X109495001Y-103386301D03*
X109495001Y-98534901D03*
X112035001Y-103386301D03*
X112035001Y-98534901D03*
X114575001Y-103386301D03*
X114575001Y-98534901D03*
X117115001Y-103386301D03*
X117115001Y-98534901D03*
X119655001Y-103386301D03*
X119655001Y-98534901D03*
X122195001Y-103386301D03*
X122195001Y-98534901D03*
X124735001Y-103386301D03*
X124735001Y-98534901D03*
X127275001Y-103386301D03*
X127275001Y-98534901D03*
X129815001Y-103386301D03*
X129815001Y-98534901D03*
X132355001Y-103386301D03*
X132355001Y-98534901D03*
X134895001Y-103386301D03*
X134895001Y-98534901D03*
X137435001Y-103386301D03*
X137435001Y-98534901D03*
X139975001Y-103386301D03*
X139975001Y-98534901D03*
X142515001Y-103386301D03*
X142515001Y-98534901D03*
X145055001Y-103386301D03*
X145055001Y-98534901D03*
X147595001Y-103386301D03*
X147595001Y-98534901D03*
X150135001Y-103386301D03*
X150135001Y-98534901D03*
X152675001Y-103386301D03*
X152675001Y-98534901D03*
X155215001Y-103386301D03*
X155215001Y-98534901D03*
X157755001Y-103386301D03*
X157755001Y-98534901D03*
X160295001Y-103386301D03*
X160295001Y-98534901D03*
X162835001Y-103386301D03*
X162835001Y-98534901D03*
X165375001Y-103386301D03*
X165375001Y-98534901D03*
X167915001Y-103386301D03*
X167915001Y-98534901D03*
X170455001Y-103386301D03*
X170455001Y-98534901D03*
X172995001Y-103386301D03*
X172995001Y-98534901D03*
X175535001Y-103386301D03*
X175535001Y-98534901D03*
X178075001Y-103386301D03*
X178075001Y-98534901D03*
X180615001Y-103386301D03*
X180615001Y-98534901D03*
X183155001Y-103386301D03*
X183155001Y-98534901D03*
X185695001Y-103386301D03*
X185695001Y-98534901D03*
X188235001Y-103386301D03*
X188235001Y-98534901D03*
X190775001Y-103386301D03*
X190775001Y-98534901D03*
X193315001Y-103386301D03*
X193315001Y-98534901D03*
X195855001Y-103386301D03*
X195855001Y-98534901D03*
X198395001Y-103386301D03*
X198395001Y-98534901D03*
X200935001Y-103386301D03*
D11*
X200935001Y-98534901D03*
%TD*%
D12*
%TO.C,J1*%
X200660000Y-61976000D03*
D13*
X200660000Y-64516000D03*
X198120000Y-61976000D03*
X198120000Y-64516000D03*
X195580000Y-61976000D03*
X195580000Y-64516000D03*
X193040000Y-61976000D03*
X193040000Y-64516000D03*
X190500000Y-61976000D03*
X190500000Y-64516000D03*
X187960000Y-61976000D03*
X187960000Y-64516000D03*
X185420000Y-61976000D03*
X185420000Y-64516000D03*
X182880000Y-61976000D03*
X182880000Y-64516000D03*
X180340000Y-61976000D03*
X180340000Y-64516000D03*
X177800000Y-61976000D03*
X177800000Y-64516000D03*
X175260000Y-61976000D03*
X175260000Y-64516000D03*
X172720000Y-61976000D03*
X172720000Y-64516000D03*
X170180000Y-61976000D03*
X170180000Y-64516000D03*
X167640000Y-61976000D03*
X167640000Y-64516000D03*
X165100000Y-61976000D03*
X165100000Y-64516000D03*
X162560000Y-61976000D03*
X162560000Y-64516000D03*
X160020000Y-61976000D03*
X160020000Y-64516000D03*
X157480000Y-61976000D03*
X157480000Y-64516000D03*
X154940000Y-61976000D03*
X154940000Y-64516000D03*
X152400000Y-61976000D03*
X152400000Y-64516000D03*
%TD*%
D14*
%TO.C,J2*%
X94234000Y-86106000D03*
D15*
X94234000Y-88646000D03*
%TD*%
%TO.C,R17*%
G36*
G01*
X93755738Y-91822000D02*
X94712262Y-91822000D01*
G75*
G02*
X94984000Y-92093738I0J-271738D01*
G01*
X94984000Y-92800262D01*
G75*
G02*
X94712262Y-93072000I-271738J0D01*
G01*
X93755738Y-93072000D01*
G75*
G02*
X93484000Y-92800262I0J271738D01*
G01*
X93484000Y-92093738D01*
G75*
G02*
X93755738Y-91822000I271738J0D01*
G01*
G37*
G36*
G01*
X93755738Y-93872000D02*
X94712262Y-93872000D01*
G75*
G02*
X94984000Y-94143738I0J-271738D01*
G01*
X94984000Y-94850262D01*
G75*
G02*
X94712262Y-95122000I-271738J0D01*
G01*
X93755738Y-95122000D01*
G75*
G02*
X93484000Y-94850262I0J271738D01*
G01*
X93484000Y-94143738D01*
G75*
G02*
X93755738Y-93872000I271738J0D01*
G01*
G37*
%TD*%
D16*
%TO.C,RN2*%
X101334000Y-92026000D03*
X102134000Y-92026000D03*
X102934000Y-92026000D03*
X103734000Y-92026000D03*
X104534000Y-92026000D03*
X105334000Y-92026000D03*
X106134000Y-92026000D03*
X106934000Y-92026000D03*
X106934000Y-93726000D03*
X106134000Y-93726000D03*
X105334000Y-93726000D03*
X104534000Y-93726000D03*
X103734000Y-93726000D03*
X102934000Y-93726000D03*
X102134000Y-93726000D03*
X101334000Y-93726000D03*
%TD*%
%TO.C,U1*%
G36*
G01*
X138486000Y-74089000D02*
X138486000Y-73739000D01*
G75*
G02*
X138661000Y-73564000I175000J0D01*
G01*
X140361000Y-73564000D01*
G75*
G02*
X140536000Y-73739000I0J-175000D01*
G01*
X140536000Y-74089000D01*
G75*
G02*
X140361000Y-74264000I-175000J0D01*
G01*
X138661000Y-74264000D01*
G75*
G02*
X138486000Y-74089000I0J175000D01*
G01*
G37*
G36*
G01*
X138486000Y-75359000D02*
X138486000Y-75009000D01*
G75*
G02*
X138661000Y-74834000I175000J0D01*
G01*
X140361000Y-74834000D01*
G75*
G02*
X140536000Y-75009000I0J-175000D01*
G01*
X140536000Y-75359000D01*
G75*
G02*
X140361000Y-75534000I-175000J0D01*
G01*
X138661000Y-75534000D01*
G75*
G02*
X138486000Y-75359000I0J175000D01*
G01*
G37*
G36*
G01*
X138486000Y-76629000D02*
X138486000Y-76279000D01*
G75*
G02*
X138661000Y-76104000I175000J0D01*
G01*
X140361000Y-76104000D01*
G75*
G02*
X140536000Y-76279000I0J-175000D01*
G01*
X140536000Y-76629000D01*
G75*
G02*
X140361000Y-76804000I-175000J0D01*
G01*
X138661000Y-76804000D01*
G75*
G02*
X138486000Y-76629000I0J175000D01*
G01*
G37*
G36*
G01*
X138486000Y-77899000D02*
X138486000Y-77549000D01*
G75*
G02*
X138661000Y-77374000I175000J0D01*
G01*
X140361000Y-77374000D01*
G75*
G02*
X140536000Y-77549000I0J-175000D01*
G01*
X140536000Y-77899000D01*
G75*
G02*
X140361000Y-78074000I-175000J0D01*
G01*
X138661000Y-78074000D01*
G75*
G02*
X138486000Y-77899000I0J175000D01*
G01*
G37*
G36*
G01*
X138486000Y-79169000D02*
X138486000Y-78819000D01*
G75*
G02*
X138661000Y-78644000I175000J0D01*
G01*
X140361000Y-78644000D01*
G75*
G02*
X140536000Y-78819000I0J-175000D01*
G01*
X140536000Y-79169000D01*
G75*
G02*
X140361000Y-79344000I-175000J0D01*
G01*
X138661000Y-79344000D01*
G75*
G02*
X138486000Y-79169000I0J175000D01*
G01*
G37*
G36*
G01*
X138486000Y-80439000D02*
X138486000Y-80089000D01*
G75*
G02*
X138661000Y-79914000I175000J0D01*
G01*
X140361000Y-79914000D01*
G75*
G02*
X140536000Y-80089000I0J-175000D01*
G01*
X140536000Y-80439000D01*
G75*
G02*
X140361000Y-80614000I-175000J0D01*
G01*
X138661000Y-80614000D01*
G75*
G02*
X138486000Y-80439000I0J175000D01*
G01*
G37*
G36*
G01*
X138486000Y-81709000D02*
X138486000Y-81359000D01*
G75*
G02*
X138661000Y-81184000I175000J0D01*
G01*
X140361000Y-81184000D01*
G75*
G02*
X140536000Y-81359000I0J-175000D01*
G01*
X140536000Y-81709000D01*
G75*
G02*
X140361000Y-81884000I-175000J0D01*
G01*
X138661000Y-81884000D01*
G75*
G02*
X138486000Y-81709000I0J175000D01*
G01*
G37*
G36*
G01*
X143436000Y-81709000D02*
X143436000Y-81359000D01*
G75*
G02*
X143611000Y-81184000I175000J0D01*
G01*
X145311000Y-81184000D01*
G75*
G02*
X145486000Y-81359000I0J-175000D01*
G01*
X145486000Y-81709000D01*
G75*
G02*
X145311000Y-81884000I-175000J0D01*
G01*
X143611000Y-81884000D01*
G75*
G02*
X143436000Y-81709000I0J175000D01*
G01*
G37*
G36*
G01*
X143436000Y-80439000D02*
X143436000Y-80089000D01*
G75*
G02*
X143611000Y-79914000I175000J0D01*
G01*
X145311000Y-79914000D01*
G75*
G02*
X145486000Y-80089000I0J-175000D01*
G01*
X145486000Y-80439000D01*
G75*
G02*
X145311000Y-80614000I-175000J0D01*
G01*
X143611000Y-80614000D01*
G75*
G02*
X143436000Y-80439000I0J175000D01*
G01*
G37*
G36*
G01*
X143436000Y-79169000D02*
X143436000Y-78819000D01*
G75*
G02*
X143611000Y-78644000I175000J0D01*
G01*
X145311000Y-78644000D01*
G75*
G02*
X145486000Y-78819000I0J-175000D01*
G01*
X145486000Y-79169000D01*
G75*
G02*
X145311000Y-79344000I-175000J0D01*
G01*
X143611000Y-79344000D01*
G75*
G02*
X143436000Y-79169000I0J175000D01*
G01*
G37*
G36*
G01*
X143436000Y-77899000D02*
X143436000Y-77549000D01*
G75*
G02*
X143611000Y-77374000I175000J0D01*
G01*
X145311000Y-77374000D01*
G75*
G02*
X145486000Y-77549000I0J-175000D01*
G01*
X145486000Y-77899000D01*
G75*
G02*
X145311000Y-78074000I-175000J0D01*
G01*
X143611000Y-78074000D01*
G75*
G02*
X143436000Y-77899000I0J175000D01*
G01*
G37*
G36*
G01*
X143436000Y-76629000D02*
X143436000Y-76279000D01*
G75*
G02*
X143611000Y-76104000I175000J0D01*
G01*
X145311000Y-76104000D01*
G75*
G02*
X145486000Y-76279000I0J-175000D01*
G01*
X145486000Y-76629000D01*
G75*
G02*
X145311000Y-76804000I-175000J0D01*
G01*
X143611000Y-76804000D01*
G75*
G02*
X143436000Y-76629000I0J175000D01*
G01*
G37*
G36*
G01*
X143436000Y-75359000D02*
X143436000Y-75009000D01*
G75*
G02*
X143611000Y-74834000I175000J0D01*
G01*
X145311000Y-74834000D01*
G75*
G02*
X145486000Y-75009000I0J-175000D01*
G01*
X145486000Y-75359000D01*
G75*
G02*
X145311000Y-75534000I-175000J0D01*
G01*
X143611000Y-75534000D01*
G75*
G02*
X143436000Y-75359000I0J175000D01*
G01*
G37*
G36*
G01*
X143436000Y-74089000D02*
X143436000Y-73739000D01*
G75*
G02*
X143611000Y-73564000I175000J0D01*
G01*
X145311000Y-73564000D01*
G75*
G02*
X145486000Y-73739000I0J-175000D01*
G01*
X145486000Y-74089000D01*
G75*
G02*
X145311000Y-74264000I-175000J0D01*
G01*
X143611000Y-74264000D01*
G75*
G02*
X143436000Y-74089000I0J175000D01*
G01*
G37*
%TD*%
%TO.C,U2*%
G36*
G01*
X131309000Y-84757000D02*
X131309000Y-84407000D01*
G75*
G02*
X131484000Y-84232000I175000J0D01*
G01*
X133184000Y-84232000D01*
G75*
G02*
X133359000Y-84407000I0J-175000D01*
G01*
X133359000Y-84757000D01*
G75*
G02*
X133184000Y-84932000I-175000J0D01*
G01*
X131484000Y-84932000D01*
G75*
G02*
X131309000Y-84757000I0J175000D01*
G01*
G37*
G36*
G01*
X131309000Y-86027000D02*
X131309000Y-85677000D01*
G75*
G02*
X131484000Y-85502000I175000J0D01*
G01*
X133184000Y-85502000D01*
G75*
G02*
X133359000Y-85677000I0J-175000D01*
G01*
X133359000Y-86027000D01*
G75*
G02*
X133184000Y-86202000I-175000J0D01*
G01*
X131484000Y-86202000D01*
G75*
G02*
X131309000Y-86027000I0J175000D01*
G01*
G37*
G36*
G01*
X131309000Y-87297000D02*
X131309000Y-86947000D01*
G75*
G02*
X131484000Y-86772000I175000J0D01*
G01*
X133184000Y-86772000D01*
G75*
G02*
X133359000Y-86947000I0J-175000D01*
G01*
X133359000Y-87297000D01*
G75*
G02*
X133184000Y-87472000I-175000J0D01*
G01*
X131484000Y-87472000D01*
G75*
G02*
X131309000Y-87297000I0J175000D01*
G01*
G37*
G36*
G01*
X131309000Y-88567000D02*
X131309000Y-88217000D01*
G75*
G02*
X131484000Y-88042000I175000J0D01*
G01*
X133184000Y-88042000D01*
G75*
G02*
X133359000Y-88217000I0J-175000D01*
G01*
X133359000Y-88567000D01*
G75*
G02*
X133184000Y-88742000I-175000J0D01*
G01*
X131484000Y-88742000D01*
G75*
G02*
X131309000Y-88567000I0J175000D01*
G01*
G37*
G36*
G01*
X131309000Y-89837000D02*
X131309000Y-89487000D01*
G75*
G02*
X131484000Y-89312000I175000J0D01*
G01*
X133184000Y-89312000D01*
G75*
G02*
X133359000Y-89487000I0J-175000D01*
G01*
X133359000Y-89837000D01*
G75*
G02*
X133184000Y-90012000I-175000J0D01*
G01*
X131484000Y-90012000D01*
G75*
G02*
X131309000Y-89837000I0J175000D01*
G01*
G37*
G36*
G01*
X131309000Y-91107000D02*
X131309000Y-90757000D01*
G75*
G02*
X131484000Y-90582000I175000J0D01*
G01*
X133184000Y-90582000D01*
G75*
G02*
X133359000Y-90757000I0J-175000D01*
G01*
X133359000Y-91107000D01*
G75*
G02*
X133184000Y-91282000I-175000J0D01*
G01*
X131484000Y-91282000D01*
G75*
G02*
X131309000Y-91107000I0J175000D01*
G01*
G37*
G36*
G01*
X131309000Y-92377000D02*
X131309000Y-92027000D01*
G75*
G02*
X131484000Y-91852000I175000J0D01*
G01*
X133184000Y-91852000D01*
G75*
G02*
X133359000Y-92027000I0J-175000D01*
G01*
X133359000Y-92377000D01*
G75*
G02*
X133184000Y-92552000I-175000J0D01*
G01*
X131484000Y-92552000D01*
G75*
G02*
X131309000Y-92377000I0J175000D01*
G01*
G37*
G36*
G01*
X126359000Y-92377000D02*
X126359000Y-92027000D01*
G75*
G02*
X126534000Y-91852000I175000J0D01*
G01*
X128234000Y-91852000D01*
G75*
G02*
X128409000Y-92027000I0J-175000D01*
G01*
X128409000Y-92377000D01*
G75*
G02*
X128234000Y-92552000I-175000J0D01*
G01*
X126534000Y-92552000D01*
G75*
G02*
X126359000Y-92377000I0J175000D01*
G01*
G37*
G36*
G01*
X126359000Y-91107000D02*
X126359000Y-90757000D01*
G75*
G02*
X126534000Y-90582000I175000J0D01*
G01*
X128234000Y-90582000D01*
G75*
G02*
X128409000Y-90757000I0J-175000D01*
G01*
X128409000Y-91107000D01*
G75*
G02*
X128234000Y-91282000I-175000J0D01*
G01*
X126534000Y-91282000D01*
G75*
G02*
X126359000Y-91107000I0J175000D01*
G01*
G37*
G36*
G01*
X126359000Y-89837000D02*
X126359000Y-89487000D01*
G75*
G02*
X126534000Y-89312000I175000J0D01*
G01*
X128234000Y-89312000D01*
G75*
G02*
X128409000Y-89487000I0J-175000D01*
G01*
X128409000Y-89837000D01*
G75*
G02*
X128234000Y-90012000I-175000J0D01*
G01*
X126534000Y-90012000D01*
G75*
G02*
X126359000Y-89837000I0J175000D01*
G01*
G37*
G36*
G01*
X126359000Y-88567000D02*
X126359000Y-88217000D01*
G75*
G02*
X126534000Y-88042000I175000J0D01*
G01*
X128234000Y-88042000D01*
G75*
G02*
X128409000Y-88217000I0J-175000D01*
G01*
X128409000Y-88567000D01*
G75*
G02*
X128234000Y-88742000I-175000J0D01*
G01*
X126534000Y-88742000D01*
G75*
G02*
X126359000Y-88567000I0J175000D01*
G01*
G37*
G36*
G01*
X126359000Y-87297000D02*
X126359000Y-86947000D01*
G75*
G02*
X126534000Y-86772000I175000J0D01*
G01*
X128234000Y-86772000D01*
G75*
G02*
X128409000Y-86947000I0J-175000D01*
G01*
X128409000Y-87297000D01*
G75*
G02*
X128234000Y-87472000I-175000J0D01*
G01*
X126534000Y-87472000D01*
G75*
G02*
X126359000Y-87297000I0J175000D01*
G01*
G37*
G36*
G01*
X126359000Y-86027000D02*
X126359000Y-85677000D01*
G75*
G02*
X126534000Y-85502000I175000J0D01*
G01*
X128234000Y-85502000D01*
G75*
G02*
X128409000Y-85677000I0J-175000D01*
G01*
X128409000Y-86027000D01*
G75*
G02*
X128234000Y-86202000I-175000J0D01*
G01*
X126534000Y-86202000D01*
G75*
G02*
X126359000Y-86027000I0J175000D01*
G01*
G37*
G36*
G01*
X126359000Y-84757000D02*
X126359000Y-84407000D01*
G75*
G02*
X126534000Y-84232000I175000J0D01*
G01*
X128234000Y-84232000D01*
G75*
G02*
X128409000Y-84407000I0J-175000D01*
G01*
X128409000Y-84757000D01*
G75*
G02*
X128234000Y-84932000I-175000J0D01*
G01*
X126534000Y-84932000D01*
G75*
G02*
X126359000Y-84757000I0J175000D01*
G01*
G37*
%TD*%
%TO.C,U3*%
G36*
G01*
X126294000Y-74089000D02*
X126294000Y-73739000D01*
G75*
G02*
X126469000Y-73564000I175000J0D01*
G01*
X128169000Y-73564000D01*
G75*
G02*
X128344000Y-73739000I0J-175000D01*
G01*
X128344000Y-74089000D01*
G75*
G02*
X128169000Y-74264000I-175000J0D01*
G01*
X126469000Y-74264000D01*
G75*
G02*
X126294000Y-74089000I0J175000D01*
G01*
G37*
G36*
G01*
X126294000Y-75359000D02*
X126294000Y-75009000D01*
G75*
G02*
X126469000Y-74834000I175000J0D01*
G01*
X128169000Y-74834000D01*
G75*
G02*
X128344000Y-75009000I0J-175000D01*
G01*
X128344000Y-75359000D01*
G75*
G02*
X128169000Y-75534000I-175000J0D01*
G01*
X126469000Y-75534000D01*
G75*
G02*
X126294000Y-75359000I0J175000D01*
G01*
G37*
G36*
G01*
X126294000Y-76629000D02*
X126294000Y-76279000D01*
G75*
G02*
X126469000Y-76104000I175000J0D01*
G01*
X128169000Y-76104000D01*
G75*
G02*
X128344000Y-76279000I0J-175000D01*
G01*
X128344000Y-76629000D01*
G75*
G02*
X128169000Y-76804000I-175000J0D01*
G01*
X126469000Y-76804000D01*
G75*
G02*
X126294000Y-76629000I0J175000D01*
G01*
G37*
G36*
G01*
X126294000Y-77899000D02*
X126294000Y-77549000D01*
G75*
G02*
X126469000Y-77374000I175000J0D01*
G01*
X128169000Y-77374000D01*
G75*
G02*
X128344000Y-77549000I0J-175000D01*
G01*
X128344000Y-77899000D01*
G75*
G02*
X128169000Y-78074000I-175000J0D01*
G01*
X126469000Y-78074000D01*
G75*
G02*
X126294000Y-77899000I0J175000D01*
G01*
G37*
G36*
G01*
X126294000Y-79169000D02*
X126294000Y-78819000D01*
G75*
G02*
X126469000Y-78644000I175000J0D01*
G01*
X128169000Y-78644000D01*
G75*
G02*
X128344000Y-78819000I0J-175000D01*
G01*
X128344000Y-79169000D01*
G75*
G02*
X128169000Y-79344000I-175000J0D01*
G01*
X126469000Y-79344000D01*
G75*
G02*
X126294000Y-79169000I0J175000D01*
G01*
G37*
G36*
G01*
X126294000Y-80439000D02*
X126294000Y-80089000D01*
G75*
G02*
X126469000Y-79914000I175000J0D01*
G01*
X128169000Y-79914000D01*
G75*
G02*
X128344000Y-80089000I0J-175000D01*
G01*
X128344000Y-80439000D01*
G75*
G02*
X128169000Y-80614000I-175000J0D01*
G01*
X126469000Y-80614000D01*
G75*
G02*
X126294000Y-80439000I0J175000D01*
G01*
G37*
G36*
G01*
X126294000Y-81709000D02*
X126294000Y-81359000D01*
G75*
G02*
X126469000Y-81184000I175000J0D01*
G01*
X128169000Y-81184000D01*
G75*
G02*
X128344000Y-81359000I0J-175000D01*
G01*
X128344000Y-81709000D01*
G75*
G02*
X128169000Y-81884000I-175000J0D01*
G01*
X126469000Y-81884000D01*
G75*
G02*
X126294000Y-81709000I0J175000D01*
G01*
G37*
G36*
G01*
X131244000Y-81709000D02*
X131244000Y-81359000D01*
G75*
G02*
X131419000Y-81184000I175000J0D01*
G01*
X133119000Y-81184000D01*
G75*
G02*
X133294000Y-81359000I0J-175000D01*
G01*
X133294000Y-81709000D01*
G75*
G02*
X133119000Y-81884000I-175000J0D01*
G01*
X131419000Y-81884000D01*
G75*
G02*
X131244000Y-81709000I0J175000D01*
G01*
G37*
G36*
G01*
X131244000Y-80439000D02*
X131244000Y-80089000D01*
G75*
G02*
X131419000Y-79914000I175000J0D01*
G01*
X133119000Y-79914000D01*
G75*
G02*
X133294000Y-80089000I0J-175000D01*
G01*
X133294000Y-80439000D01*
G75*
G02*
X133119000Y-80614000I-175000J0D01*
G01*
X131419000Y-80614000D01*
G75*
G02*
X131244000Y-80439000I0J175000D01*
G01*
G37*
G36*
G01*
X131244000Y-79169000D02*
X131244000Y-78819000D01*
G75*
G02*
X131419000Y-78644000I175000J0D01*
G01*
X133119000Y-78644000D01*
G75*
G02*
X133294000Y-78819000I0J-175000D01*
G01*
X133294000Y-79169000D01*
G75*
G02*
X133119000Y-79344000I-175000J0D01*
G01*
X131419000Y-79344000D01*
G75*
G02*
X131244000Y-79169000I0J175000D01*
G01*
G37*
G36*
G01*
X131244000Y-77899000D02*
X131244000Y-77549000D01*
G75*
G02*
X131419000Y-77374000I175000J0D01*
G01*
X133119000Y-77374000D01*
G75*
G02*
X133294000Y-77549000I0J-175000D01*
G01*
X133294000Y-77899000D01*
G75*
G02*
X133119000Y-78074000I-175000J0D01*
G01*
X131419000Y-78074000D01*
G75*
G02*
X131244000Y-77899000I0J175000D01*
G01*
G37*
G36*
G01*
X131244000Y-76629000D02*
X131244000Y-76279000D01*
G75*
G02*
X131419000Y-76104000I175000J0D01*
G01*
X133119000Y-76104000D01*
G75*
G02*
X133294000Y-76279000I0J-175000D01*
G01*
X133294000Y-76629000D01*
G75*
G02*
X133119000Y-76804000I-175000J0D01*
G01*
X131419000Y-76804000D01*
G75*
G02*
X131244000Y-76629000I0J175000D01*
G01*
G37*
G36*
G01*
X131244000Y-75359000D02*
X131244000Y-75009000D01*
G75*
G02*
X131419000Y-74834000I175000J0D01*
G01*
X133119000Y-74834000D01*
G75*
G02*
X133294000Y-75009000I0J-175000D01*
G01*
X133294000Y-75359000D01*
G75*
G02*
X133119000Y-75534000I-175000J0D01*
G01*
X131419000Y-75534000D01*
G75*
G02*
X131244000Y-75359000I0J175000D01*
G01*
G37*
G36*
G01*
X131244000Y-74089000D02*
X131244000Y-73739000D01*
G75*
G02*
X131419000Y-73564000I175000J0D01*
G01*
X133119000Y-73564000D01*
G75*
G02*
X133294000Y-73739000I0J-175000D01*
G01*
X133294000Y-74089000D01*
G75*
G02*
X133119000Y-74264000I-175000J0D01*
G01*
X131419000Y-74264000D01*
G75*
G02*
X131244000Y-74089000I0J175000D01*
G01*
G37*
%TD*%
%TO.C,U4*%
G36*
G01*
X143081000Y-64696000D02*
X143431000Y-64696000D01*
G75*
G02*
X143606000Y-64871000I0J-175000D01*
G01*
X143606000Y-66571000D01*
G75*
G02*
X143431000Y-66746000I-175000J0D01*
G01*
X143081000Y-66746000D01*
G75*
G02*
X142906000Y-66571000I0J175000D01*
G01*
X142906000Y-64871000D01*
G75*
G02*
X143081000Y-64696000I175000J0D01*
G01*
G37*
G36*
G01*
X141811000Y-64696000D02*
X142161000Y-64696000D01*
G75*
G02*
X142336000Y-64871000I0J-175000D01*
G01*
X142336000Y-66571000D01*
G75*
G02*
X142161000Y-66746000I-175000J0D01*
G01*
X141811000Y-66746000D01*
G75*
G02*
X141636000Y-66571000I0J175000D01*
G01*
X141636000Y-64871000D01*
G75*
G02*
X141811000Y-64696000I175000J0D01*
G01*
G37*
G36*
G01*
X140541000Y-64696000D02*
X140891000Y-64696000D01*
G75*
G02*
X141066000Y-64871000I0J-175000D01*
G01*
X141066000Y-66571000D01*
G75*
G02*
X140891000Y-66746000I-175000J0D01*
G01*
X140541000Y-66746000D01*
G75*
G02*
X140366000Y-66571000I0J175000D01*
G01*
X140366000Y-64871000D01*
G75*
G02*
X140541000Y-64696000I175000J0D01*
G01*
G37*
G36*
G01*
X139271000Y-64696000D02*
X139621000Y-64696000D01*
G75*
G02*
X139796000Y-64871000I0J-175000D01*
G01*
X139796000Y-66571000D01*
G75*
G02*
X139621000Y-66746000I-175000J0D01*
G01*
X139271000Y-66746000D01*
G75*
G02*
X139096000Y-66571000I0J175000D01*
G01*
X139096000Y-64871000D01*
G75*
G02*
X139271000Y-64696000I175000J0D01*
G01*
G37*
G36*
G01*
X138001000Y-64696000D02*
X138351000Y-64696000D01*
G75*
G02*
X138526000Y-64871000I0J-175000D01*
G01*
X138526000Y-66571000D01*
G75*
G02*
X138351000Y-66746000I-175000J0D01*
G01*
X138001000Y-66746000D01*
G75*
G02*
X137826000Y-66571000I0J175000D01*
G01*
X137826000Y-64871000D01*
G75*
G02*
X138001000Y-64696000I175000J0D01*
G01*
G37*
G36*
G01*
X136731000Y-64696000D02*
X137081000Y-64696000D01*
G75*
G02*
X137256000Y-64871000I0J-175000D01*
G01*
X137256000Y-66571000D01*
G75*
G02*
X137081000Y-66746000I-175000J0D01*
G01*
X136731000Y-66746000D01*
G75*
G02*
X136556000Y-66571000I0J175000D01*
G01*
X136556000Y-64871000D01*
G75*
G02*
X136731000Y-64696000I175000J0D01*
G01*
G37*
G36*
G01*
X135461000Y-64696000D02*
X135811000Y-64696000D01*
G75*
G02*
X135986000Y-64871000I0J-175000D01*
G01*
X135986000Y-66571000D01*
G75*
G02*
X135811000Y-66746000I-175000J0D01*
G01*
X135461000Y-66746000D01*
G75*
G02*
X135286000Y-66571000I0J175000D01*
G01*
X135286000Y-64871000D01*
G75*
G02*
X135461000Y-64696000I175000J0D01*
G01*
G37*
G36*
G01*
X135461000Y-59746000D02*
X135811000Y-59746000D01*
G75*
G02*
X135986000Y-59921000I0J-175000D01*
G01*
X135986000Y-61621000D01*
G75*
G02*
X135811000Y-61796000I-175000J0D01*
G01*
X135461000Y-61796000D01*
G75*
G02*
X135286000Y-61621000I0J175000D01*
G01*
X135286000Y-59921000D01*
G75*
G02*
X135461000Y-59746000I175000J0D01*
G01*
G37*
G36*
G01*
X136731000Y-59746000D02*
X137081000Y-59746000D01*
G75*
G02*
X137256000Y-59921000I0J-175000D01*
G01*
X137256000Y-61621000D01*
G75*
G02*
X137081000Y-61796000I-175000J0D01*
G01*
X136731000Y-61796000D01*
G75*
G02*
X136556000Y-61621000I0J175000D01*
G01*
X136556000Y-59921000D01*
G75*
G02*
X136731000Y-59746000I175000J0D01*
G01*
G37*
G36*
G01*
X138001000Y-59746000D02*
X138351000Y-59746000D01*
G75*
G02*
X138526000Y-59921000I0J-175000D01*
G01*
X138526000Y-61621000D01*
G75*
G02*
X138351000Y-61796000I-175000J0D01*
G01*
X138001000Y-61796000D01*
G75*
G02*
X137826000Y-61621000I0J175000D01*
G01*
X137826000Y-59921000D01*
G75*
G02*
X138001000Y-59746000I175000J0D01*
G01*
G37*
G36*
G01*
X139271000Y-59746000D02*
X139621000Y-59746000D01*
G75*
G02*
X139796000Y-59921000I0J-175000D01*
G01*
X139796000Y-61621000D01*
G75*
G02*
X139621000Y-61796000I-175000J0D01*
G01*
X139271000Y-61796000D01*
G75*
G02*
X139096000Y-61621000I0J175000D01*
G01*
X139096000Y-59921000D01*
G75*
G02*
X139271000Y-59746000I175000J0D01*
G01*
G37*
G36*
G01*
X140541000Y-59746000D02*
X140891000Y-59746000D01*
G75*
G02*
X141066000Y-59921000I0J-175000D01*
G01*
X141066000Y-61621000D01*
G75*
G02*
X140891000Y-61796000I-175000J0D01*
G01*
X140541000Y-61796000D01*
G75*
G02*
X140366000Y-61621000I0J175000D01*
G01*
X140366000Y-59921000D01*
G75*
G02*
X140541000Y-59746000I175000J0D01*
G01*
G37*
G36*
G01*
X141811000Y-59746000D02*
X142161000Y-59746000D01*
G75*
G02*
X142336000Y-59921000I0J-175000D01*
G01*
X142336000Y-61621000D01*
G75*
G02*
X142161000Y-61796000I-175000J0D01*
G01*
X141811000Y-61796000D01*
G75*
G02*
X141636000Y-61621000I0J175000D01*
G01*
X141636000Y-59921000D01*
G75*
G02*
X141811000Y-59746000I175000J0D01*
G01*
G37*
G36*
G01*
X143081000Y-59746000D02*
X143431000Y-59746000D01*
G75*
G02*
X143606000Y-59921000I0J-175000D01*
G01*
X143606000Y-61621000D01*
G75*
G02*
X143431000Y-61796000I-175000J0D01*
G01*
X143081000Y-61796000D01*
G75*
G02*
X142906000Y-61621000I0J175000D01*
G01*
X142906000Y-59921000D01*
G75*
G02*
X143081000Y-59746000I175000J0D01*
G01*
G37*
%TD*%
M02*
