%TF.GenerationSoftware,KiCad,Pcbnew,(5.1.6)-1*%
%TF.CreationDate,2022-03-09T09:08:40-05:00*%
%TF.ProjectId,a500hdd-remake,61353030-6864-4642-9d72-656d616b652e,rev?*%
%TF.SameCoordinates,Original*%
%TF.FileFunction,Legend,Top*%
%TF.FilePolarity,Positive*%
%FSLAX46Y46*%
G04 Gerber Fmt 4.6, Leading zero omitted, Abs format (unit mm)*
G04 Created by KiCad (PCBNEW (5.1.6)-1) date 2022-03-09 09:08:40*
%MOMM*%
%LPD*%
G01*
G04 APERTURE LIST*
%ADD10C,0.150000*%
%ADD11C,0.300000*%
%ADD12C,0.010000*%
%ADD13C,0.127000*%
%ADD14C,0.200000*%
%ADD15C,0.120000*%
%ADD16C,0.100000*%
%ADD17C,0.254000*%
%ADD18C,0.250000*%
G04 APERTURE END LIST*
D10*
X201636571Y-95448380D02*
X201636571Y-94781714D01*
X201636571Y-94972190D02*
X201684190Y-94876952D01*
X201731809Y-94829333D01*
X201827047Y-94781714D01*
X201922285Y-94781714D01*
X202636571Y-95400761D02*
X202541333Y-95448380D01*
X202350857Y-95448380D01*
X202255619Y-95400761D01*
X202208000Y-95305523D01*
X202208000Y-94924571D01*
X202255619Y-94829333D01*
X202350857Y-94781714D01*
X202541333Y-94781714D01*
X202636571Y-94829333D01*
X202684190Y-94924571D01*
X202684190Y-95019809D01*
X202208000Y-95115047D01*
X203017523Y-94781714D02*
X203255619Y-95448380D01*
X203493714Y-94781714D01*
X203874666Y-95353142D02*
X203922285Y-95400761D01*
X203874666Y-95448380D01*
X203827047Y-95400761D01*
X203874666Y-95353142D01*
X203874666Y-95448380D01*
X204541333Y-94448380D02*
X204636571Y-94448380D01*
X204731809Y-94496000D01*
X204779428Y-94543619D01*
X204827047Y-94638857D01*
X204874666Y-94829333D01*
X204874666Y-95067428D01*
X204827047Y-95257904D01*
X204779428Y-95353142D01*
X204731809Y-95400761D01*
X204636571Y-95448380D01*
X204541333Y-95448380D01*
X204446095Y-95400761D01*
X204398476Y-95353142D01*
X204350857Y-95257904D01*
X204303238Y-95067428D01*
X204303238Y-94829333D01*
X204350857Y-94638857D01*
X204398476Y-94543619D01*
X204446095Y-94496000D01*
X204541333Y-94448380D01*
X205827047Y-95448380D02*
X205255619Y-95448380D01*
X205541333Y-95448380D02*
X205541333Y-94448380D01*
X205446095Y-94591238D01*
X205350857Y-94686476D01*
X205255619Y-94734095D01*
X142954952Y-100544380D02*
X142954952Y-101258666D01*
X142907333Y-101401523D01*
X142812095Y-101496761D01*
X142669238Y-101544380D01*
X142574000Y-101544380D01*
X143907333Y-101544380D02*
X143431142Y-101544380D01*
X143431142Y-100544380D01*
X144812095Y-101449142D02*
X144764476Y-101496761D01*
X144621619Y-101544380D01*
X144526380Y-101544380D01*
X144383523Y-101496761D01*
X144288285Y-101401523D01*
X144240666Y-101306285D01*
X144193047Y-101115809D01*
X144193047Y-100972952D01*
X144240666Y-100782476D01*
X144288285Y-100687238D01*
X144383523Y-100592000D01*
X144526380Y-100544380D01*
X144621619Y-100544380D01*
X144764476Y-100592000D01*
X144812095Y-100639619D01*
X145526380Y-100544380D02*
X145526380Y-101258666D01*
X145478761Y-101401523D01*
X145383523Y-101496761D01*
X145240666Y-101544380D01*
X145145428Y-101544380D01*
X146478761Y-101544380D02*
X146002571Y-101544380D01*
X146002571Y-100544380D01*
X147383523Y-101449142D02*
X147335904Y-101496761D01*
X147193047Y-101544380D01*
X147097809Y-101544380D01*
X146954952Y-101496761D01*
X146859714Y-101401523D01*
X146812095Y-101306285D01*
X146764476Y-101115809D01*
X146764476Y-100972952D01*
X146812095Y-100782476D01*
X146859714Y-100687238D01*
X146954952Y-100592000D01*
X147097809Y-100544380D01*
X147193047Y-100544380D01*
X147335904Y-100592000D01*
X147383523Y-100639619D01*
X148097809Y-100544380D02*
X148097809Y-101258666D01*
X148050190Y-101401523D01*
X147954952Y-101496761D01*
X147812095Y-101544380D01*
X147716857Y-101544380D01*
X149050190Y-101544380D02*
X148574000Y-101544380D01*
X148574000Y-100544380D01*
X149954952Y-101449142D02*
X149907333Y-101496761D01*
X149764476Y-101544380D01*
X149669238Y-101544380D01*
X149526380Y-101496761D01*
X149431142Y-101401523D01*
X149383523Y-101306285D01*
X149335904Y-101115809D01*
X149335904Y-100972952D01*
X149383523Y-100782476D01*
X149431142Y-100687238D01*
X149526380Y-100592000D01*
X149669238Y-100544380D01*
X149764476Y-100544380D01*
X149907333Y-100592000D01*
X149954952Y-100639619D01*
X150669238Y-100544380D02*
X150669238Y-101258666D01*
X150621619Y-101401523D01*
X150526380Y-101496761D01*
X150383523Y-101544380D01*
X150288285Y-101544380D01*
X151621619Y-101544380D02*
X151145428Y-101544380D01*
X151145428Y-100544380D01*
X152526380Y-101449142D02*
X152478761Y-101496761D01*
X152335904Y-101544380D01*
X152240666Y-101544380D01*
X152097809Y-101496761D01*
X152002571Y-101401523D01*
X151954952Y-101306285D01*
X151907333Y-101115809D01*
X151907333Y-100972952D01*
X151954952Y-100782476D01*
X152002571Y-100687238D01*
X152097809Y-100592000D01*
X152240666Y-100544380D01*
X152335904Y-100544380D01*
X152478761Y-100592000D01*
X152526380Y-100639619D01*
D11*
X155829000Y-74422000D02*
X194386200Y-74422000D01*
X157920314Y-72937000D02*
X158777457Y-72937000D01*
X157748885Y-73451285D02*
X158348885Y-71651285D01*
X158948885Y-73451285D01*
X159548885Y-73451285D02*
X159548885Y-72251285D01*
X159548885Y-72422714D02*
X159634600Y-72337000D01*
X159806028Y-72251285D01*
X160063171Y-72251285D01*
X160234600Y-72337000D01*
X160320314Y-72508428D01*
X160320314Y-73451285D01*
X160320314Y-72508428D02*
X160406028Y-72337000D01*
X160577457Y-72251285D01*
X160834600Y-72251285D01*
X161006028Y-72337000D01*
X161091742Y-72508428D01*
X161091742Y-73451285D01*
X161948885Y-73451285D02*
X161948885Y-72251285D01*
X161948885Y-71651285D02*
X161863171Y-71737000D01*
X161948885Y-71822714D01*
X162034600Y-71737000D01*
X161948885Y-71651285D01*
X161948885Y-71822714D01*
X163577457Y-72251285D02*
X163577457Y-73708428D01*
X163491742Y-73879857D01*
X163406028Y-73965571D01*
X163234600Y-74051285D01*
X162977457Y-74051285D01*
X162806028Y-73965571D01*
X163577457Y-73365571D02*
X163406028Y-73451285D01*
X163063171Y-73451285D01*
X162891742Y-73365571D01*
X162806028Y-73279857D01*
X162720314Y-73108428D01*
X162720314Y-72594142D01*
X162806028Y-72422714D01*
X162891742Y-72337000D01*
X163063171Y-72251285D01*
X163406028Y-72251285D01*
X163577457Y-72337000D01*
X165206028Y-73451285D02*
X165206028Y-72508428D01*
X165120314Y-72337000D01*
X164948885Y-72251285D01*
X164606028Y-72251285D01*
X164434600Y-72337000D01*
X165206028Y-73365571D02*
X165034600Y-73451285D01*
X164606028Y-73451285D01*
X164434600Y-73365571D01*
X164348885Y-73194142D01*
X164348885Y-73022714D01*
X164434600Y-72851285D01*
X164606028Y-72765571D01*
X165034600Y-72765571D01*
X165206028Y-72679857D01*
X168291742Y-71651285D02*
X167434600Y-71651285D01*
X167348885Y-72508428D01*
X167434600Y-72422714D01*
X167606028Y-72337000D01*
X168034600Y-72337000D01*
X168206028Y-72422714D01*
X168291742Y-72508428D01*
X168377457Y-72679857D01*
X168377457Y-73108428D01*
X168291742Y-73279857D01*
X168206028Y-73365571D01*
X168034600Y-73451285D01*
X167606028Y-73451285D01*
X167434600Y-73365571D01*
X167348885Y-73279857D01*
X169491742Y-71651285D02*
X169663171Y-71651285D01*
X169834600Y-71737000D01*
X169920314Y-71822714D01*
X170006028Y-71994142D01*
X170091742Y-72337000D01*
X170091742Y-72765571D01*
X170006028Y-73108428D01*
X169920314Y-73279857D01*
X169834600Y-73365571D01*
X169663171Y-73451285D01*
X169491742Y-73451285D01*
X169320314Y-73365571D01*
X169234600Y-73279857D01*
X169148885Y-73108428D01*
X169063171Y-72765571D01*
X169063171Y-72337000D01*
X169148885Y-71994142D01*
X169234600Y-71822714D01*
X169320314Y-71737000D01*
X169491742Y-71651285D01*
X171206028Y-71651285D02*
X171377457Y-71651285D01*
X171548885Y-71737000D01*
X171634600Y-71822714D01*
X171720314Y-71994142D01*
X171806028Y-72337000D01*
X171806028Y-72765571D01*
X171720314Y-73108428D01*
X171634600Y-73279857D01*
X171548885Y-73365571D01*
X171377457Y-73451285D01*
X171206028Y-73451285D01*
X171034600Y-73365571D01*
X170948885Y-73279857D01*
X170863171Y-73108428D01*
X170777457Y-72765571D01*
X170777457Y-72337000D01*
X170863171Y-71994142D01*
X170948885Y-71822714D01*
X171034600Y-71737000D01*
X171206028Y-71651285D01*
X173863171Y-72937000D02*
X174720314Y-72937000D01*
X173691742Y-73451285D02*
X174291742Y-71651285D01*
X174891742Y-73451285D01*
X175234600Y-71651285D02*
X176263171Y-71651285D01*
X175748885Y-73451285D02*
X175748885Y-71651285D01*
X176777457Y-72937000D02*
X177634600Y-72937000D01*
X176606028Y-73451285D02*
X177206028Y-71651285D01*
X177806028Y-73451285D01*
X179777457Y-72508428D02*
X180377457Y-72508428D01*
X180634600Y-73451285D02*
X179777457Y-73451285D01*
X179777457Y-71651285D01*
X180634600Y-71651285D01*
X181234600Y-73451285D02*
X182177457Y-72251285D01*
X181234600Y-72251285D02*
X182177457Y-73451285D01*
X182863171Y-72251285D02*
X182863171Y-74051285D01*
X182863171Y-72337000D02*
X183034600Y-72251285D01*
X183377457Y-72251285D01*
X183548885Y-72337000D01*
X183634600Y-72422714D01*
X183720314Y-72594142D01*
X183720314Y-73108428D01*
X183634600Y-73279857D01*
X183548885Y-73365571D01*
X183377457Y-73451285D01*
X183034600Y-73451285D01*
X182863171Y-73365571D01*
X185263171Y-73451285D02*
X185263171Y-72508428D01*
X185177457Y-72337000D01*
X185006028Y-72251285D01*
X184663171Y-72251285D01*
X184491742Y-72337000D01*
X185263171Y-73365571D02*
X185091742Y-73451285D01*
X184663171Y-73451285D01*
X184491742Y-73365571D01*
X184406028Y-73194142D01*
X184406028Y-73022714D01*
X184491742Y-72851285D01*
X184663171Y-72765571D01*
X185091742Y-72765571D01*
X185263171Y-72679857D01*
X186120314Y-72251285D02*
X186120314Y-73451285D01*
X186120314Y-72422714D02*
X186206028Y-72337000D01*
X186377457Y-72251285D01*
X186634600Y-72251285D01*
X186806028Y-72337000D01*
X186891742Y-72508428D01*
X186891742Y-73451285D01*
X187663171Y-73365571D02*
X187834600Y-73451285D01*
X188177457Y-73451285D01*
X188348885Y-73365571D01*
X188434600Y-73194142D01*
X188434600Y-73108428D01*
X188348885Y-72937000D01*
X188177457Y-72851285D01*
X187920314Y-72851285D01*
X187748885Y-72765571D01*
X187663171Y-72594142D01*
X187663171Y-72508428D01*
X187748885Y-72337000D01*
X187920314Y-72251285D01*
X188177457Y-72251285D01*
X188348885Y-72337000D01*
X189206028Y-73451285D02*
X189206028Y-72251285D01*
X189206028Y-71651285D02*
X189120314Y-71737000D01*
X189206028Y-71822714D01*
X189291742Y-71737000D01*
X189206028Y-71651285D01*
X189206028Y-71822714D01*
X190320314Y-73451285D02*
X190148885Y-73365571D01*
X190063171Y-73279857D01*
X189977457Y-73108428D01*
X189977457Y-72594142D01*
X190063171Y-72422714D01*
X190148885Y-72337000D01*
X190320314Y-72251285D01*
X190577457Y-72251285D01*
X190748885Y-72337000D01*
X190834600Y-72422714D01*
X190920314Y-72594142D01*
X190920314Y-73108428D01*
X190834600Y-73279857D01*
X190748885Y-73365571D01*
X190577457Y-73451285D01*
X190320314Y-73451285D01*
X191691742Y-72251285D02*
X191691742Y-73451285D01*
X191691742Y-72422714D02*
X191777457Y-72337000D01*
X191948885Y-72251285D01*
X192206028Y-72251285D01*
X192377457Y-72337000D01*
X192463171Y-72508428D01*
X192463171Y-73451285D01*
X149648885Y-79451285D02*
X149648885Y-77651285D01*
X150077457Y-77651285D01*
X150334599Y-77737000D01*
X150506028Y-77908428D01*
X150591742Y-78079857D01*
X150677457Y-78422714D01*
X150677457Y-78679857D01*
X150591742Y-79022714D01*
X150506028Y-79194142D01*
X150334599Y-79365571D01*
X150077457Y-79451285D01*
X149648885Y-79451285D01*
X152134599Y-79365571D02*
X151963171Y-79451285D01*
X151620314Y-79451285D01*
X151448885Y-79365571D01*
X151363171Y-79194142D01*
X151363171Y-78508428D01*
X151448885Y-78337000D01*
X151620314Y-78251285D01*
X151963171Y-78251285D01*
X152134599Y-78337000D01*
X152220314Y-78508428D01*
X152220314Y-78679857D01*
X151363171Y-78851285D01*
X152991742Y-79451285D02*
X152991742Y-78251285D01*
X152991742Y-78594142D02*
X153077457Y-78422714D01*
X153163171Y-78337000D01*
X153334599Y-78251285D01*
X153506028Y-78251285D01*
X154106028Y-79451285D02*
X154106028Y-78251285D01*
X154106028Y-77651285D02*
X154020314Y-77737000D01*
X154106028Y-77822714D01*
X154191742Y-77737000D01*
X154106028Y-77651285D01*
X154106028Y-77822714D01*
X154791742Y-78251285D02*
X155220314Y-79451285D01*
X155648885Y-78251285D01*
X157106028Y-79451285D02*
X157106028Y-78508428D01*
X157020314Y-78337000D01*
X156848885Y-78251285D01*
X156506028Y-78251285D01*
X156334599Y-78337000D01*
X157106028Y-79365571D02*
X156934599Y-79451285D01*
X156506028Y-79451285D01*
X156334599Y-79365571D01*
X156248885Y-79194142D01*
X156248885Y-79022714D01*
X156334599Y-78851285D01*
X156506028Y-78765571D01*
X156934599Y-78765571D01*
X157106028Y-78679857D01*
X157706028Y-78251285D02*
X158391742Y-78251285D01*
X157963171Y-77651285D02*
X157963171Y-79194142D01*
X158048885Y-79365571D01*
X158220314Y-79451285D01*
X158391742Y-79451285D01*
X158991742Y-79451285D02*
X158991742Y-78251285D01*
X158991742Y-77651285D02*
X158906028Y-77737000D01*
X158991742Y-77822714D01*
X159077457Y-77737000D01*
X158991742Y-77651285D01*
X158991742Y-77822714D01*
X159677457Y-78251285D02*
X160106028Y-79451285D01*
X160534599Y-78251285D01*
X161906028Y-79365571D02*
X161734599Y-79451285D01*
X161391742Y-79451285D01*
X161220314Y-79365571D01*
X161134599Y-79194142D01*
X161134599Y-78508428D01*
X161220314Y-78337000D01*
X161391742Y-78251285D01*
X161734599Y-78251285D01*
X161906028Y-78337000D01*
X161991742Y-78508428D01*
X161991742Y-78679857D01*
X161134599Y-78851285D01*
X164391742Y-79451285D02*
X164220314Y-79365571D01*
X164134599Y-79279857D01*
X164048885Y-79108428D01*
X164048885Y-78594142D01*
X164134599Y-78422714D01*
X164220314Y-78337000D01*
X164391742Y-78251285D01*
X164648885Y-78251285D01*
X164820314Y-78337000D01*
X164906028Y-78422714D01*
X164991742Y-78594142D01*
X164991742Y-79108428D01*
X164906028Y-79279857D01*
X164820314Y-79365571D01*
X164648885Y-79451285D01*
X164391742Y-79451285D01*
X165506028Y-78251285D02*
X166191742Y-78251285D01*
X165763171Y-79451285D02*
X165763171Y-77908428D01*
X165848885Y-77737000D01*
X166020314Y-77651285D01*
X166191742Y-77651285D01*
X168677457Y-77651285D02*
X168677457Y-78937000D01*
X168591742Y-79194142D01*
X168420314Y-79365571D01*
X168163171Y-79451285D01*
X167991742Y-79451285D01*
X169791742Y-79451285D02*
X169620314Y-79365571D01*
X169534599Y-79279857D01*
X169448885Y-79108428D01*
X169448885Y-78594142D01*
X169534599Y-78422714D01*
X169620314Y-78337000D01*
X169791742Y-78251285D01*
X170048885Y-78251285D01*
X170220314Y-78337000D01*
X170306028Y-78422714D01*
X170391742Y-78594142D01*
X170391742Y-79108428D01*
X170306028Y-79279857D01*
X170220314Y-79365571D01*
X170048885Y-79451285D01*
X169791742Y-79451285D01*
X171163171Y-79451285D02*
X171163171Y-77651285D01*
X171934599Y-79451285D02*
X171934599Y-78508428D01*
X171848885Y-78337000D01*
X171677457Y-78251285D01*
X171420314Y-78251285D01*
X171248885Y-78337000D01*
X171163171Y-78422714D01*
X172791742Y-78251285D02*
X172791742Y-79451285D01*
X172791742Y-78422714D02*
X172877457Y-78337000D01*
X173048885Y-78251285D01*
X173306028Y-78251285D01*
X173477457Y-78337000D01*
X173563171Y-78508428D01*
X173563171Y-79451285D01*
X175534599Y-77651285D02*
X176563171Y-77651285D01*
X176048885Y-79451285D02*
X176048885Y-77651285D01*
X177077457Y-79365571D02*
X177248885Y-79451285D01*
X177591742Y-79451285D01*
X177763171Y-79365571D01*
X177848885Y-79194142D01*
X177848885Y-79108428D01*
X177763171Y-78937000D01*
X177591742Y-78851285D01*
X177334599Y-78851285D01*
X177163171Y-78765571D01*
X177077457Y-78594142D01*
X177077457Y-78508428D01*
X177163171Y-78337000D01*
X177334599Y-78251285D01*
X177591742Y-78251285D01*
X177763171Y-78337000D01*
X178620314Y-79451285D02*
X178620314Y-78251285D01*
X178620314Y-77651285D02*
X178534599Y-77737000D01*
X178620314Y-77822714D01*
X178706028Y-77737000D01*
X178620314Y-77651285D01*
X178620314Y-77822714D01*
X179734600Y-79451285D02*
X179563171Y-79365571D01*
X179477457Y-79279857D01*
X179391742Y-79108428D01*
X179391742Y-78594142D01*
X179477457Y-78422714D01*
X179563171Y-78337000D01*
X179734600Y-78251285D01*
X179991742Y-78251285D01*
X180163171Y-78337000D01*
X180248885Y-78422714D01*
X180334600Y-78594142D01*
X180334600Y-79108428D01*
X180248885Y-79279857D01*
X180163171Y-79365571D01*
X179991742Y-79451285D01*
X179734600Y-79451285D01*
X181106028Y-79451285D02*
X181106028Y-78251285D01*
X181106028Y-78422714D02*
X181191742Y-78337000D01*
X181363171Y-78251285D01*
X181620314Y-78251285D01*
X181791742Y-78337000D01*
X181877457Y-78508428D01*
X181877457Y-79451285D01*
X181877457Y-78508428D02*
X181963171Y-78337000D01*
X182134600Y-78251285D01*
X182391742Y-78251285D01*
X182563171Y-78337000D01*
X182648885Y-78508428D01*
X182648885Y-79451285D01*
X183506028Y-79451285D02*
X183506028Y-77651285D01*
X183506028Y-78337000D02*
X183677457Y-78251285D01*
X184020314Y-78251285D01*
X184191742Y-78337000D01*
X184277457Y-78422714D01*
X184363171Y-78594142D01*
X184363171Y-79108428D01*
X184277457Y-79279857D01*
X184191742Y-79365571D01*
X184020314Y-79451285D01*
X183677457Y-79451285D01*
X183506028Y-79365571D01*
X185134599Y-79451285D02*
X185134599Y-78251285D01*
X185134599Y-77651285D02*
X185048885Y-77737000D01*
X185134599Y-77822714D01*
X185220314Y-77737000D01*
X185134599Y-77651285D01*
X185134599Y-77822714D01*
X185991742Y-79451285D02*
X185991742Y-77651285D01*
X186163171Y-78765571D02*
X186677457Y-79451285D01*
X186677457Y-78251285D02*
X185991742Y-78937000D01*
X188220314Y-79451285D02*
X188220314Y-78508428D01*
X188134600Y-78337000D01*
X187963171Y-78251285D01*
X187620314Y-78251285D01*
X187448885Y-78337000D01*
X188220314Y-79365571D02*
X188048885Y-79451285D01*
X187620314Y-79451285D01*
X187448885Y-79365571D01*
X187363171Y-79194142D01*
X187363171Y-79022714D01*
X187448885Y-78851285D01*
X187620314Y-78765571D01*
X188048885Y-78765571D01*
X188220314Y-78679857D01*
X189163171Y-77651285D02*
X188991742Y-77994142D01*
X189848885Y-79365571D02*
X190020314Y-79451285D01*
X190363171Y-79451285D01*
X190534599Y-79365571D01*
X190620314Y-79194142D01*
X190620314Y-79108428D01*
X190534599Y-78937000D01*
X190363171Y-78851285D01*
X190106028Y-78851285D01*
X189934599Y-78765571D01*
X189848885Y-78594142D01*
X189848885Y-78508428D01*
X189934599Y-78337000D01*
X190106028Y-78251285D01*
X190363171Y-78251285D01*
X190534599Y-78337000D01*
X192763171Y-79451285D02*
X192763171Y-77651285D01*
X193191742Y-77651285D01*
X193448885Y-77737000D01*
X193620314Y-77908428D01*
X193706028Y-78079857D01*
X193791742Y-78422714D01*
X193791742Y-78679857D01*
X193706028Y-79022714D01*
X193620314Y-79194142D01*
X193448885Y-79365571D01*
X193191742Y-79451285D01*
X192763171Y-79451285D01*
X195248885Y-79365571D02*
X195077457Y-79451285D01*
X194734600Y-79451285D01*
X194563171Y-79365571D01*
X194477457Y-79194142D01*
X194477457Y-78508428D01*
X194563171Y-78337000D01*
X194734600Y-78251285D01*
X195077457Y-78251285D01*
X195248885Y-78337000D01*
X195334600Y-78508428D01*
X195334600Y-78679857D01*
X194477457Y-78851285D01*
X196020314Y-79365571D02*
X196191742Y-79451285D01*
X196534600Y-79451285D01*
X196706028Y-79365571D01*
X196791742Y-79194142D01*
X196791742Y-79108428D01*
X196706028Y-78937000D01*
X196534600Y-78851285D01*
X196277457Y-78851285D01*
X196106028Y-78765571D01*
X196020314Y-78594142D01*
X196020314Y-78508428D01*
X196106028Y-78337000D01*
X196277457Y-78251285D01*
X196534600Y-78251285D01*
X196706028Y-78337000D01*
X197563171Y-79451285D02*
X197563171Y-78251285D01*
X197563171Y-77651285D02*
X197477457Y-77737000D01*
X197563171Y-77822714D01*
X197648885Y-77737000D01*
X197563171Y-77651285D01*
X197563171Y-77822714D01*
X199191742Y-78251285D02*
X199191742Y-79708428D01*
X199106028Y-79879857D01*
X199020314Y-79965571D01*
X198848885Y-80051285D01*
X198591742Y-80051285D01*
X198420314Y-79965571D01*
X199191742Y-79365571D02*
X199020314Y-79451285D01*
X198677457Y-79451285D01*
X198506028Y-79365571D01*
X198420314Y-79279857D01*
X198334600Y-79108428D01*
X198334600Y-78594142D01*
X198420314Y-78422714D01*
X198506028Y-78337000D01*
X198677457Y-78251285D01*
X199020314Y-78251285D01*
X199191742Y-78337000D01*
X200048885Y-78251285D02*
X200048885Y-79451285D01*
X200048885Y-78422714D02*
X200134600Y-78337000D01*
X200306028Y-78251285D01*
X200563171Y-78251285D01*
X200734600Y-78337000D01*
X200820314Y-78508428D01*
X200820314Y-79451285D01*
X148148885Y-82451285D02*
X148148885Y-80651285D01*
X148920314Y-82451285D02*
X148920314Y-81508428D01*
X148834599Y-81337000D01*
X148663171Y-81251285D01*
X148406028Y-81251285D01*
X148234599Y-81337000D01*
X148148885Y-81422714D01*
X149520314Y-81251285D02*
X150206028Y-81251285D01*
X149777457Y-80651285D02*
X149777457Y-82194142D01*
X149863171Y-82365571D01*
X150034599Y-82451285D01*
X150206028Y-82451285D01*
X150548885Y-81251285D02*
X151234599Y-81251285D01*
X150806028Y-80651285D02*
X150806028Y-82194142D01*
X150891742Y-82365571D01*
X151063171Y-82451285D01*
X151234599Y-82451285D01*
X151834599Y-81251285D02*
X151834599Y-83051285D01*
X151834599Y-81337000D02*
X152006028Y-81251285D01*
X152348885Y-81251285D01*
X152520314Y-81337000D01*
X152606028Y-81422714D01*
X152691742Y-81594142D01*
X152691742Y-82108428D01*
X152606028Y-82279857D01*
X152520314Y-82365571D01*
X152348885Y-82451285D01*
X152006028Y-82451285D01*
X151834599Y-82365571D01*
X153463171Y-82279857D02*
X153548885Y-82365571D01*
X153463171Y-82451285D01*
X153377457Y-82365571D01*
X153463171Y-82279857D01*
X153463171Y-82451285D01*
X153463171Y-81337000D02*
X153548885Y-81422714D01*
X153463171Y-81508428D01*
X153377457Y-81422714D01*
X153463171Y-81337000D01*
X153463171Y-81508428D01*
X155606028Y-80565571D02*
X154063171Y-82879857D01*
X157491742Y-80565571D02*
X155948885Y-82879857D01*
X158091742Y-81251285D02*
X158091742Y-82451285D01*
X158091742Y-81422714D02*
X158177457Y-81337000D01*
X158348885Y-81251285D01*
X158606028Y-81251285D01*
X158777457Y-81337000D01*
X158863171Y-81508428D01*
X158863171Y-82451285D01*
X160491742Y-81251285D02*
X160491742Y-82451285D01*
X159720314Y-81251285D02*
X159720314Y-82194142D01*
X159806028Y-82365571D01*
X159977457Y-82451285D01*
X160234599Y-82451285D01*
X160406028Y-82365571D01*
X160491742Y-82279857D01*
X162120314Y-82365571D02*
X161948885Y-82451285D01*
X161606028Y-82451285D01*
X161434599Y-82365571D01*
X161348885Y-82279857D01*
X161263171Y-82108428D01*
X161263171Y-81594142D01*
X161348885Y-81422714D01*
X161434599Y-81337000D01*
X161606028Y-81251285D01*
X161948885Y-81251285D01*
X162120314Y-81337000D01*
X163148885Y-82451285D02*
X162977457Y-82365571D01*
X162891742Y-82194142D01*
X162891742Y-80651285D01*
X164520314Y-82365571D02*
X164348885Y-82451285D01*
X164006028Y-82451285D01*
X163834599Y-82365571D01*
X163748885Y-82194142D01*
X163748885Y-81508428D01*
X163834599Y-81337000D01*
X164006028Y-81251285D01*
X164348885Y-81251285D01*
X164520314Y-81337000D01*
X164606028Y-81508428D01*
X164606028Y-81679857D01*
X163748885Y-81851285D01*
X166148885Y-82451285D02*
X166148885Y-81508428D01*
X166063171Y-81337000D01*
X165891742Y-81251285D01*
X165548885Y-81251285D01*
X165377457Y-81337000D01*
X166148885Y-82365571D02*
X165977457Y-82451285D01*
X165548885Y-82451285D01*
X165377457Y-82365571D01*
X165291742Y-82194142D01*
X165291742Y-82022714D01*
X165377457Y-81851285D01*
X165548885Y-81765571D01*
X165977457Y-81765571D01*
X166148885Y-81679857D01*
X167006028Y-82451285D02*
X167006028Y-81251285D01*
X167006028Y-81594142D02*
X167091742Y-81422714D01*
X167177457Y-81337000D01*
X167348885Y-81251285D01*
X167520314Y-81251285D01*
X168120314Y-82279857D02*
X168206028Y-82365571D01*
X168120314Y-82451285D01*
X168034599Y-82365571D01*
X168120314Y-82279857D01*
X168120314Y-82451285D01*
X168977457Y-82451285D02*
X168977457Y-81251285D01*
X168977457Y-81422714D02*
X169063171Y-81337000D01*
X169234599Y-81251285D01*
X169491742Y-81251285D01*
X169663171Y-81337000D01*
X169748885Y-81508428D01*
X169748885Y-82451285D01*
X169748885Y-81508428D02*
X169834599Y-81337000D01*
X170006028Y-81251285D01*
X170263171Y-81251285D01*
X170434599Y-81337000D01*
X170520314Y-81508428D01*
X170520314Y-82451285D01*
X172148885Y-81251285D02*
X172148885Y-82451285D01*
X171377457Y-81251285D02*
X171377457Y-82194142D01*
X171463171Y-82365571D01*
X171634599Y-82451285D01*
X171891742Y-82451285D01*
X172063171Y-82365571D01*
X172148885Y-82279857D01*
X172748885Y-81251285D02*
X173434599Y-81251285D01*
X173006028Y-80651285D02*
X173006028Y-82194142D01*
X173091742Y-82365571D01*
X173263171Y-82451285D01*
X173434599Y-82451285D01*
X174806028Y-82451285D02*
X174806028Y-81508428D01*
X174720314Y-81337000D01*
X174548885Y-81251285D01*
X174206028Y-81251285D01*
X174034599Y-81337000D01*
X174806028Y-82365571D02*
X174634599Y-82451285D01*
X174206028Y-82451285D01*
X174034599Y-82365571D01*
X173948885Y-82194142D01*
X173948885Y-82022714D01*
X174034599Y-81851285D01*
X174206028Y-81765571D01*
X174634599Y-81765571D01*
X174806028Y-81679857D01*
X175663171Y-81251285D02*
X175663171Y-82451285D01*
X175663171Y-81422714D02*
X175748885Y-81337000D01*
X175920314Y-81251285D01*
X176177457Y-81251285D01*
X176348885Y-81337000D01*
X176434599Y-81508428D01*
X176434599Y-82451285D01*
X177034599Y-81251285D02*
X177720314Y-81251285D01*
X177291742Y-80651285D02*
X177291742Y-82194142D01*
X177377457Y-82365571D01*
X177548885Y-82451285D01*
X177720314Y-82451285D01*
X178234599Y-82365571D02*
X178406028Y-82451285D01*
X178748885Y-82451285D01*
X178920314Y-82365571D01*
X179006028Y-82194142D01*
X179006028Y-82108428D01*
X178920314Y-81937000D01*
X178748885Y-81851285D01*
X178491742Y-81851285D01*
X178320314Y-81765571D01*
X178234599Y-81594142D01*
X178234599Y-81508428D01*
X178320314Y-81337000D01*
X178491742Y-81251285D01*
X178748885Y-81251285D01*
X178920314Y-81337000D01*
X179520314Y-81251285D02*
X180206028Y-81251285D01*
X179777457Y-80651285D02*
X179777457Y-82194142D01*
X179863171Y-82365571D01*
X180034600Y-82451285D01*
X180206028Y-82451285D01*
X181577457Y-82451285D02*
X181577457Y-81508428D01*
X181491742Y-81337000D01*
X181320314Y-81251285D01*
X180977457Y-81251285D01*
X180806028Y-81337000D01*
X181577457Y-82365571D02*
X181406028Y-82451285D01*
X180977457Y-82451285D01*
X180806028Y-82365571D01*
X180720314Y-82194142D01*
X180720314Y-82022714D01*
X180806028Y-81851285D01*
X180977457Y-81765571D01*
X181406028Y-81765571D01*
X181577457Y-81679857D01*
X182434599Y-82451285D02*
X182434599Y-81251285D01*
X182434599Y-81594142D02*
X182520314Y-81422714D01*
X182606028Y-81337000D01*
X182777457Y-81251285D01*
X182948885Y-81251285D01*
X184320314Y-81251285D02*
X184320314Y-82708428D01*
X184234600Y-82879857D01*
X184148885Y-82965571D01*
X183977457Y-83051285D01*
X183720314Y-83051285D01*
X183548885Y-82965571D01*
X184320314Y-82365571D02*
X184148885Y-82451285D01*
X183806028Y-82451285D01*
X183634600Y-82365571D01*
X183548885Y-82279857D01*
X183463171Y-82108428D01*
X183463171Y-81594142D01*
X183548885Y-81422714D01*
X183634600Y-81337000D01*
X183806028Y-81251285D01*
X184148885Y-81251285D01*
X184320314Y-81337000D01*
X185434599Y-82451285D02*
X185263171Y-82365571D01*
X185177457Y-82279857D01*
X185091742Y-82108428D01*
X185091742Y-81594142D01*
X185177457Y-81422714D01*
X185263171Y-81337000D01*
X185434599Y-81251285D01*
X185691742Y-81251285D01*
X185863171Y-81337000D01*
X185948885Y-81422714D01*
X186034599Y-81594142D01*
X186034599Y-82108428D01*
X185948885Y-82279857D01*
X185863171Y-82365571D01*
X185691742Y-82451285D01*
X185434599Y-82451285D01*
X187577457Y-82451285D02*
X187577457Y-81508428D01*
X187491742Y-81337000D01*
X187320314Y-81251285D01*
X186977457Y-81251285D01*
X186806028Y-81337000D01*
X187577457Y-82365571D02*
X187406028Y-82451285D01*
X186977457Y-82451285D01*
X186806028Y-82365571D01*
X186720314Y-82194142D01*
X186720314Y-82022714D01*
X186806028Y-81851285D01*
X186977457Y-81765571D01*
X187406028Y-81765571D01*
X187577457Y-81679857D01*
X188177457Y-81251285D02*
X188863171Y-81251285D01*
X188434599Y-80651285D02*
X188434599Y-82194142D01*
X188520314Y-82365571D01*
X188691742Y-82451285D01*
X188863171Y-82451285D01*
X189463171Y-82279857D02*
X189548885Y-82365571D01*
X189463171Y-82451285D01*
X189377457Y-82365571D01*
X189463171Y-82279857D01*
X189463171Y-82451285D01*
X191091742Y-82365571D02*
X190920314Y-82451285D01*
X190577457Y-82451285D01*
X190406028Y-82365571D01*
X190320314Y-82279857D01*
X190234599Y-82108428D01*
X190234599Y-81594142D01*
X190320314Y-81422714D01*
X190406028Y-81337000D01*
X190577457Y-81251285D01*
X190920314Y-81251285D01*
X191091742Y-81337000D01*
X192120314Y-82451285D02*
X191948885Y-82365571D01*
X191863171Y-82279857D01*
X191777457Y-82108428D01*
X191777457Y-81594142D01*
X191863171Y-81422714D01*
X191948885Y-81337000D01*
X192120314Y-81251285D01*
X192377457Y-81251285D01*
X192548885Y-81337000D01*
X192634599Y-81422714D01*
X192720314Y-81594142D01*
X192720314Y-82108428D01*
X192634599Y-82279857D01*
X192548885Y-82365571D01*
X192377457Y-82451285D01*
X192120314Y-82451285D01*
X193491742Y-82451285D02*
X193491742Y-81251285D01*
X193491742Y-81422714D02*
X193577457Y-81337000D01*
X193748885Y-81251285D01*
X194006028Y-81251285D01*
X194177457Y-81337000D01*
X194263171Y-81508428D01*
X194263171Y-82451285D01*
X194263171Y-81508428D02*
X194348885Y-81337000D01*
X194520314Y-81251285D01*
X194777457Y-81251285D01*
X194948885Y-81337000D01*
X195034599Y-81508428D01*
X195034599Y-82451285D01*
X197177457Y-80565571D02*
X195634599Y-82879857D01*
X197777457Y-82451285D02*
X197777457Y-80651285D01*
X198548885Y-82451285D02*
X198548885Y-81508428D01*
X198463171Y-81337000D01*
X198291742Y-81251285D01*
X198034599Y-81251285D01*
X197863171Y-81337000D01*
X197777457Y-81422714D01*
X199234599Y-81251285D02*
X199577457Y-82451285D01*
X199920314Y-81594142D01*
X200263171Y-82451285D01*
X200606028Y-81251285D01*
X202577457Y-80565571D02*
X201034599Y-82879857D01*
X164734600Y-87251285D02*
X165077457Y-88451285D01*
X165420314Y-87594142D01*
X165763171Y-88451285D01*
X166106028Y-87251285D01*
X166791742Y-88451285D02*
X166791742Y-87251285D01*
X166791742Y-86651285D02*
X166706028Y-86737000D01*
X166791742Y-86822714D01*
X166877457Y-86737000D01*
X166791742Y-86651285D01*
X166791742Y-86822714D01*
X167648885Y-88451285D02*
X167648885Y-87251285D01*
X167648885Y-87594142D02*
X167734600Y-87422714D01*
X167820314Y-87337000D01*
X167991742Y-87251285D01*
X168163171Y-87251285D01*
X169448885Y-88365571D02*
X169277457Y-88451285D01*
X168934600Y-88451285D01*
X168763171Y-88365571D01*
X168677457Y-88194142D01*
X168677457Y-87508428D01*
X168763171Y-87337000D01*
X168934600Y-87251285D01*
X169277457Y-87251285D01*
X169448885Y-87337000D01*
X169534600Y-87508428D01*
X169534600Y-87679857D01*
X168677457Y-87851285D01*
X170048885Y-87251285D02*
X170734600Y-87251285D01*
X170306028Y-86651285D02*
X170306028Y-88194142D01*
X170391742Y-88365571D01*
X170563171Y-88451285D01*
X170734600Y-88451285D01*
X172106028Y-88451285D02*
X172106028Y-87508428D01*
X172020314Y-87337000D01*
X171848885Y-87251285D01*
X171506028Y-87251285D01*
X171334600Y-87337000D01*
X172106028Y-88365571D02*
X171934600Y-88451285D01*
X171506028Y-88451285D01*
X171334600Y-88365571D01*
X171248885Y-88194142D01*
X171248885Y-88022714D01*
X171334600Y-87851285D01*
X171506028Y-87765571D01*
X171934600Y-87765571D01*
X172106028Y-87679857D01*
X172963171Y-87251285D02*
X172963171Y-89051285D01*
X172963171Y-87337000D02*
X173134600Y-87251285D01*
X173477457Y-87251285D01*
X173648885Y-87337000D01*
X173734600Y-87422714D01*
X173820314Y-87594142D01*
X173820314Y-88108428D01*
X173734600Y-88279857D01*
X173648885Y-88365571D01*
X173477457Y-88451285D01*
X173134600Y-88451285D01*
X172963171Y-88365571D01*
X175963171Y-87765571D02*
X177334600Y-87765571D01*
X179477457Y-86822714D02*
X179563171Y-86737000D01*
X179734600Y-86651285D01*
X180163171Y-86651285D01*
X180334600Y-86737000D01*
X180420314Y-86822714D01*
X180506028Y-86994142D01*
X180506028Y-87165571D01*
X180420314Y-87422714D01*
X179391742Y-88451285D01*
X180506028Y-88451285D01*
X181620314Y-86651285D02*
X181791742Y-86651285D01*
X181963171Y-86737000D01*
X182048885Y-86822714D01*
X182134600Y-86994142D01*
X182220314Y-87337000D01*
X182220314Y-87765571D01*
X182134600Y-88108428D01*
X182048885Y-88279857D01*
X181963171Y-88365571D01*
X181791742Y-88451285D01*
X181620314Y-88451285D01*
X181448885Y-88365571D01*
X181363171Y-88279857D01*
X181277457Y-88108428D01*
X181191742Y-87765571D01*
X181191742Y-87337000D01*
X181277457Y-86994142D01*
X181363171Y-86822714D01*
X181448885Y-86737000D01*
X181620314Y-86651285D01*
X182906028Y-86822714D02*
X182991742Y-86737000D01*
X183163171Y-86651285D01*
X183591742Y-86651285D01*
X183763171Y-86737000D01*
X183848885Y-86822714D01*
X183934600Y-86994142D01*
X183934600Y-87165571D01*
X183848885Y-87422714D01*
X182820314Y-88451285D01*
X183934600Y-88451285D01*
X184620314Y-86822714D02*
X184706028Y-86737000D01*
X184877457Y-86651285D01*
X185306028Y-86651285D01*
X185477457Y-86737000D01*
X185563171Y-86822714D01*
X185648885Y-86994142D01*
X185648885Y-87165571D01*
X185563171Y-87422714D01*
X184534600Y-88451285D01*
X185648885Y-88451285D01*
D10*
X152114285Y-68365714D02*
X152114285Y-69032380D01*
X151876190Y-67984761D02*
X151638095Y-68699047D01*
X152257142Y-68699047D01*
X152828571Y-68032380D02*
X152923809Y-68032380D01*
X153019047Y-68080000D01*
X153066666Y-68127619D01*
X153114285Y-68222857D01*
X153161904Y-68413333D01*
X153161904Y-68651428D01*
X153114285Y-68841904D01*
X153066666Y-68937142D01*
X153019047Y-68984761D01*
X152923809Y-69032380D01*
X152828571Y-69032380D01*
X152733333Y-68984761D01*
X152685714Y-68937142D01*
X152638095Y-68841904D01*
X152590476Y-68651428D01*
X152590476Y-68413333D01*
X152638095Y-68222857D01*
X152685714Y-68127619D01*
X152733333Y-68080000D01*
X152828571Y-68032380D01*
X151590476Y-57364380D02*
X152209523Y-57364380D01*
X151876190Y-57745333D01*
X152019047Y-57745333D01*
X152114285Y-57792952D01*
X152161904Y-57840571D01*
X152209523Y-57935809D01*
X152209523Y-58173904D01*
X152161904Y-58269142D01*
X152114285Y-58316761D01*
X152019047Y-58364380D01*
X151733333Y-58364380D01*
X151638095Y-58316761D01*
X151590476Y-58269142D01*
X152685714Y-58364380D02*
X152876190Y-58364380D01*
X152971428Y-58316761D01*
X153019047Y-58269142D01*
X153114285Y-58126285D01*
X153161904Y-57935809D01*
X153161904Y-57554857D01*
X153114285Y-57459619D01*
X153066666Y-57412000D01*
X152971428Y-57364380D01*
X152780952Y-57364380D01*
X152685714Y-57412000D01*
X152638095Y-57459619D01*
X152590476Y-57554857D01*
X152590476Y-57792952D01*
X152638095Y-57888190D01*
X152685714Y-57935809D01*
X152780952Y-57983428D01*
X152971428Y-57983428D01*
X153066666Y-57935809D01*
X153114285Y-57888190D01*
X153161904Y-57792952D01*
X200374285Y-68127619D02*
X200421904Y-68080000D01*
X200517142Y-68032380D01*
X200755238Y-68032380D01*
X200850476Y-68080000D01*
X200898095Y-68127619D01*
X200945714Y-68222857D01*
X200945714Y-68318095D01*
X200898095Y-68460952D01*
X200326666Y-69032380D01*
X200945714Y-69032380D01*
X200971114Y-58338980D02*
X200399685Y-58338980D01*
X200685400Y-58338980D02*
X200685400Y-57338980D01*
X200590161Y-57481838D01*
X200494923Y-57577076D01*
X200399685Y-57624695D01*
X175552219Y-58262780D02*
X175552219Y-57262780D01*
X176028409Y-58262780D02*
X176028409Y-57262780D01*
X176266504Y-57262780D01*
X176409361Y-57310400D01*
X176504600Y-57405638D01*
X176552219Y-57500876D01*
X176599838Y-57691352D01*
X176599838Y-57834209D01*
X176552219Y-58024685D01*
X176504600Y-58119923D01*
X176409361Y-58215161D01*
X176266504Y-58262780D01*
X176028409Y-58262780D01*
X177028409Y-57738971D02*
X177361742Y-57738971D01*
X177504600Y-58262780D02*
X177028409Y-58262780D01*
X177028409Y-57262780D01*
X177504600Y-57262780D01*
X202406285Y-102925619D02*
X202453904Y-102878000D01*
X202549142Y-102830380D01*
X202787238Y-102830380D01*
X202882476Y-102878000D01*
X202930095Y-102925619D01*
X202977714Y-103020857D01*
X202977714Y-103116095D01*
X202930095Y-103258952D01*
X202358666Y-103830380D01*
X202977714Y-103830380D01*
X202977714Y-99004380D02*
X202406285Y-99004380D01*
X202692000Y-99004380D02*
X202692000Y-98004380D01*
X202596761Y-98147238D01*
X202501523Y-98242476D01*
X202406285Y-98290095D01*
X91630571Y-103258952D02*
X91535333Y-103211333D01*
X91487714Y-103163714D01*
X91440095Y-103068476D01*
X91440095Y-103020857D01*
X91487714Y-102925619D01*
X91535333Y-102878000D01*
X91630571Y-102830380D01*
X91821047Y-102830380D01*
X91916285Y-102878000D01*
X91963904Y-102925619D01*
X92011523Y-103020857D01*
X92011523Y-103068476D01*
X91963904Y-103163714D01*
X91916285Y-103211333D01*
X91821047Y-103258952D01*
X91630571Y-103258952D01*
X91535333Y-103306571D01*
X91487714Y-103354190D01*
X91440095Y-103449428D01*
X91440095Y-103639904D01*
X91487714Y-103735142D01*
X91535333Y-103782761D01*
X91630571Y-103830380D01*
X91821047Y-103830380D01*
X91916285Y-103782761D01*
X91963904Y-103735142D01*
X92011523Y-103639904D01*
X92011523Y-103449428D01*
X91963904Y-103354190D01*
X91916285Y-103306571D01*
X91821047Y-103258952D01*
X92868666Y-102830380D02*
X92678190Y-102830380D01*
X92582952Y-102878000D01*
X92535333Y-102925619D01*
X92440095Y-103068476D01*
X92392476Y-103258952D01*
X92392476Y-103639904D01*
X92440095Y-103735142D01*
X92487714Y-103782761D01*
X92582952Y-103830380D01*
X92773428Y-103830380D01*
X92868666Y-103782761D01*
X92916285Y-103735142D01*
X92963904Y-103639904D01*
X92963904Y-103401809D01*
X92916285Y-103306571D01*
X92868666Y-103258952D01*
X92773428Y-103211333D01*
X92582952Y-103211333D01*
X92487714Y-103258952D01*
X92440095Y-103306571D01*
X92392476Y-103401809D01*
X91630571Y-98432952D02*
X91535333Y-98385333D01*
X91487714Y-98337714D01*
X91440095Y-98242476D01*
X91440095Y-98194857D01*
X91487714Y-98099619D01*
X91535333Y-98052000D01*
X91630571Y-98004380D01*
X91821047Y-98004380D01*
X91916285Y-98052000D01*
X91963904Y-98099619D01*
X92011523Y-98194857D01*
X92011523Y-98242476D01*
X91963904Y-98337714D01*
X91916285Y-98385333D01*
X91821047Y-98432952D01*
X91630571Y-98432952D01*
X91535333Y-98480571D01*
X91487714Y-98528190D01*
X91440095Y-98623428D01*
X91440095Y-98813904D01*
X91487714Y-98909142D01*
X91535333Y-98956761D01*
X91630571Y-99004380D01*
X91821047Y-99004380D01*
X91916285Y-98956761D01*
X91963904Y-98909142D01*
X92011523Y-98813904D01*
X92011523Y-98623428D01*
X91963904Y-98528190D01*
X91916285Y-98480571D01*
X91821047Y-98432952D01*
X92916285Y-98004380D02*
X92440095Y-98004380D01*
X92392476Y-98480571D01*
X92440095Y-98432952D01*
X92535333Y-98385333D01*
X92773428Y-98385333D01*
X92868666Y-98432952D01*
X92916285Y-98480571D01*
X92963904Y-98575809D01*
X92963904Y-98813904D01*
X92916285Y-98909142D01*
X92868666Y-98956761D01*
X92773428Y-99004380D01*
X92535333Y-99004380D01*
X92440095Y-98956761D01*
X92392476Y-98909142D01*
X96393047Y-88717428D02*
X97154952Y-88717428D01*
X96393047Y-86177428D02*
X97154952Y-86177428D01*
X96774000Y-86558380D02*
X96774000Y-85796476D01*
X91606666Y-90233142D02*
X91606666Y-89756952D01*
X91892380Y-90328380D02*
X90892380Y-89995047D01*
X91892380Y-89661714D01*
X91797142Y-88756952D02*
X91844761Y-88804571D01*
X91892380Y-88947428D01*
X91892380Y-89042666D01*
X91844761Y-89185523D01*
X91749523Y-89280761D01*
X91654285Y-89328380D01*
X91463809Y-89376000D01*
X91320952Y-89376000D01*
X91130476Y-89328380D01*
X91035238Y-89280761D01*
X90940000Y-89185523D01*
X90892380Y-89042666D01*
X90892380Y-88947428D01*
X90940000Y-88804571D01*
X90987619Y-88756952D01*
X90892380Y-88471238D02*
X90892380Y-87899809D01*
X91892380Y-88185523D02*
X90892380Y-88185523D01*
X91892380Y-86328380D02*
X91892380Y-86804571D01*
X90892380Y-86804571D01*
X91368571Y-85995047D02*
X91368571Y-85661714D01*
X91892380Y-85518857D02*
X91892380Y-85995047D01*
X90892380Y-85995047D01*
X90892380Y-85518857D01*
X91892380Y-85090285D02*
X90892380Y-85090285D01*
X90892380Y-84852190D01*
X90940000Y-84709333D01*
X91035238Y-84614095D01*
X91130476Y-84566476D01*
X91320952Y-84518857D01*
X91463809Y-84518857D01*
X91654285Y-84566476D01*
X91749523Y-84614095D01*
X91844761Y-84709333D01*
X91892380Y-84852190D01*
X91892380Y-85090285D01*
D12*
%TO.C,REF\u002A\u002A*%
G36*
X122551241Y-64715184D02*
G01*
X122577753Y-64728282D01*
X122610447Y-64751106D01*
X122634275Y-64775996D01*
X122650594Y-64807249D01*
X122660760Y-64849166D01*
X122666128Y-64906044D01*
X122668056Y-64982184D01*
X122668169Y-65014917D01*
X122667839Y-65086656D01*
X122666473Y-65137927D01*
X122663500Y-65173404D01*
X122658351Y-65197763D01*
X122650457Y-65215680D01*
X122642243Y-65227902D01*
X122589813Y-65279905D01*
X122528070Y-65311184D01*
X122461464Y-65320592D01*
X122394442Y-65306980D01*
X122373208Y-65297354D01*
X122322376Y-65270859D01*
X122322376Y-65686052D01*
X122359475Y-65666868D01*
X122408357Y-65652025D01*
X122468439Y-65648222D01*
X122528436Y-65655243D01*
X122573744Y-65671013D01*
X122611325Y-65701047D01*
X122643436Y-65744024D01*
X122645850Y-65748436D01*
X122656033Y-65769221D01*
X122663470Y-65790170D01*
X122668589Y-65815548D01*
X122671819Y-65849618D01*
X122673587Y-65896641D01*
X122674323Y-65960882D01*
X122674456Y-66033176D01*
X122674456Y-66263822D01*
X122536139Y-66263822D01*
X122536139Y-65838533D01*
X122497451Y-65805979D01*
X122457262Y-65779940D01*
X122419203Y-65775205D01*
X122380934Y-65787389D01*
X122360538Y-65799320D01*
X122345358Y-65816313D01*
X122334562Y-65841995D01*
X122327317Y-65879991D01*
X122322792Y-65933926D01*
X122320156Y-66007425D01*
X122319228Y-66056347D01*
X122316089Y-66257535D01*
X122250074Y-66261336D01*
X122184060Y-66265136D01*
X122184060Y-65016650D01*
X122322376Y-65016650D01*
X122325903Y-65086254D01*
X122337785Y-65134569D01*
X122359980Y-65164631D01*
X122394441Y-65179471D01*
X122429258Y-65182436D01*
X122468671Y-65179028D01*
X122494829Y-65165617D01*
X122511186Y-65147896D01*
X122524063Y-65128835D01*
X122531728Y-65107601D01*
X122535139Y-65077849D01*
X122535251Y-65033236D01*
X122534103Y-64995880D01*
X122531468Y-64939604D01*
X122527544Y-64902658D01*
X122520937Y-64879223D01*
X122510251Y-64863480D01*
X122500167Y-64854380D01*
X122458030Y-64834537D01*
X122408160Y-64831332D01*
X122379524Y-64838168D01*
X122351172Y-64862464D01*
X122332391Y-64909728D01*
X122323288Y-64979624D01*
X122322376Y-65016650D01*
X122184060Y-65016650D01*
X122184060Y-64704614D01*
X122253218Y-64704614D01*
X122294740Y-64706256D01*
X122316162Y-64712087D01*
X122322374Y-64723461D01*
X122322376Y-64723798D01*
X122325258Y-64734938D01*
X122337970Y-64733673D01*
X122363243Y-64721433D01*
X122422131Y-64702707D01*
X122488385Y-64700739D01*
X122551241Y-64715184D01*
G37*
X122551241Y-64715184D02*
X122577753Y-64728282D01*
X122610447Y-64751106D01*
X122634275Y-64775996D01*
X122650594Y-64807249D01*
X122660760Y-64849166D01*
X122666128Y-64906044D01*
X122668056Y-64982184D01*
X122668169Y-65014917D01*
X122667839Y-65086656D01*
X122666473Y-65137927D01*
X122663500Y-65173404D01*
X122658351Y-65197763D01*
X122650457Y-65215680D01*
X122642243Y-65227902D01*
X122589813Y-65279905D01*
X122528070Y-65311184D01*
X122461464Y-65320592D01*
X122394442Y-65306980D01*
X122373208Y-65297354D01*
X122322376Y-65270859D01*
X122322376Y-65686052D01*
X122359475Y-65666868D01*
X122408357Y-65652025D01*
X122468439Y-65648222D01*
X122528436Y-65655243D01*
X122573744Y-65671013D01*
X122611325Y-65701047D01*
X122643436Y-65744024D01*
X122645850Y-65748436D01*
X122656033Y-65769221D01*
X122663470Y-65790170D01*
X122668589Y-65815548D01*
X122671819Y-65849618D01*
X122673587Y-65896641D01*
X122674323Y-65960882D01*
X122674456Y-66033176D01*
X122674456Y-66263822D01*
X122536139Y-66263822D01*
X122536139Y-65838533D01*
X122497451Y-65805979D01*
X122457262Y-65779940D01*
X122419203Y-65775205D01*
X122380934Y-65787389D01*
X122360538Y-65799320D01*
X122345358Y-65816313D01*
X122334562Y-65841995D01*
X122327317Y-65879991D01*
X122322792Y-65933926D01*
X122320156Y-66007425D01*
X122319228Y-66056347D01*
X122316089Y-66257535D01*
X122250074Y-66261336D01*
X122184060Y-66265136D01*
X122184060Y-65016650D01*
X122322376Y-65016650D01*
X122325903Y-65086254D01*
X122337785Y-65134569D01*
X122359980Y-65164631D01*
X122394441Y-65179471D01*
X122429258Y-65182436D01*
X122468671Y-65179028D01*
X122494829Y-65165617D01*
X122511186Y-65147896D01*
X122524063Y-65128835D01*
X122531728Y-65107601D01*
X122535139Y-65077849D01*
X122535251Y-65033236D01*
X122534103Y-64995880D01*
X122531468Y-64939604D01*
X122527544Y-64902658D01*
X122520937Y-64879223D01*
X122510251Y-64863480D01*
X122500167Y-64854380D01*
X122458030Y-64834537D01*
X122408160Y-64831332D01*
X122379524Y-64838168D01*
X122351172Y-64862464D01*
X122332391Y-64909728D01*
X122323288Y-64979624D01*
X122322376Y-65016650D01*
X122184060Y-65016650D01*
X122184060Y-64704614D01*
X122253218Y-64704614D01*
X122294740Y-64706256D01*
X122316162Y-64712087D01*
X122322374Y-64723461D01*
X122322376Y-64723798D01*
X122325258Y-64734938D01*
X122337970Y-64733673D01*
X122363243Y-64721433D01*
X122422131Y-64702707D01*
X122488385Y-64700739D01*
X122551241Y-64715184D01*
G36*
X123075790Y-65652555D02*
G01*
X123134945Y-65668339D01*
X123179977Y-65696948D01*
X123211754Y-65734419D01*
X123221634Y-65750411D01*
X123228927Y-65767163D01*
X123234026Y-65788592D01*
X123237321Y-65818616D01*
X123239203Y-65861154D01*
X123240063Y-65920122D01*
X123240293Y-65999440D01*
X123240297Y-66020484D01*
X123240297Y-66263822D01*
X123179941Y-66263822D01*
X123141443Y-66261126D01*
X123112977Y-66254295D01*
X123105845Y-66250083D01*
X123086348Y-66242813D01*
X123066434Y-66250083D01*
X123033647Y-66259160D01*
X122986022Y-66262813D01*
X122933236Y-66261228D01*
X122884964Y-66254589D01*
X122856782Y-66246072D01*
X122802247Y-66211063D01*
X122768165Y-66162479D01*
X122752843Y-66097882D01*
X122752701Y-66096223D01*
X122754045Y-66067566D01*
X122875644Y-66067566D01*
X122886274Y-66100161D01*
X122903590Y-66118505D01*
X122938348Y-66132379D01*
X122984227Y-66137917D01*
X123031012Y-66135191D01*
X123068486Y-66124274D01*
X123078985Y-66117269D01*
X123097332Y-66084904D01*
X123101980Y-66048111D01*
X123101980Y-65999763D01*
X123032418Y-65999763D01*
X122966333Y-66004850D01*
X122916236Y-66019263D01*
X122885071Y-66041729D01*
X122875644Y-66067566D01*
X122754045Y-66067566D01*
X122756013Y-66025647D01*
X122779290Y-65969845D01*
X122823052Y-65927647D01*
X122829101Y-65923808D01*
X122855093Y-65911309D01*
X122887265Y-65903740D01*
X122932240Y-65900061D01*
X122985669Y-65899216D01*
X123101980Y-65899169D01*
X123101980Y-65850411D01*
X123097047Y-65812581D01*
X123084457Y-65787236D01*
X123082983Y-65785887D01*
X123054966Y-65774800D01*
X123012674Y-65770503D01*
X122965936Y-65772615D01*
X122924582Y-65780756D01*
X122900043Y-65792965D01*
X122886747Y-65802746D01*
X122872706Y-65804613D01*
X122853329Y-65796600D01*
X122824024Y-65776739D01*
X122780197Y-65743063D01*
X122776175Y-65739909D01*
X122778236Y-65728236D01*
X122795432Y-65708822D01*
X122821567Y-65687248D01*
X122850448Y-65669096D01*
X122859522Y-65664809D01*
X122892620Y-65656256D01*
X122941120Y-65650155D01*
X122995305Y-65647708D01*
X122997839Y-65647703D01*
X123075790Y-65652555D01*
G37*
X123075790Y-65652555D02*
X123134945Y-65668339D01*
X123179977Y-65696948D01*
X123211754Y-65734419D01*
X123221634Y-65750411D01*
X123228927Y-65767163D01*
X123234026Y-65788592D01*
X123237321Y-65818616D01*
X123239203Y-65861154D01*
X123240063Y-65920122D01*
X123240293Y-65999440D01*
X123240297Y-66020484D01*
X123240297Y-66263822D01*
X123179941Y-66263822D01*
X123141443Y-66261126D01*
X123112977Y-66254295D01*
X123105845Y-66250083D01*
X123086348Y-66242813D01*
X123066434Y-66250083D01*
X123033647Y-66259160D01*
X122986022Y-66262813D01*
X122933236Y-66261228D01*
X122884964Y-66254589D01*
X122856782Y-66246072D01*
X122802247Y-66211063D01*
X122768165Y-66162479D01*
X122752843Y-66097882D01*
X122752701Y-66096223D01*
X122754045Y-66067566D01*
X122875644Y-66067566D01*
X122886274Y-66100161D01*
X122903590Y-66118505D01*
X122938348Y-66132379D01*
X122984227Y-66137917D01*
X123031012Y-66135191D01*
X123068486Y-66124274D01*
X123078985Y-66117269D01*
X123097332Y-66084904D01*
X123101980Y-66048111D01*
X123101980Y-65999763D01*
X123032418Y-65999763D01*
X122966333Y-66004850D01*
X122916236Y-66019263D01*
X122885071Y-66041729D01*
X122875644Y-66067566D01*
X122754045Y-66067566D01*
X122756013Y-66025647D01*
X122779290Y-65969845D01*
X122823052Y-65927647D01*
X122829101Y-65923808D01*
X122855093Y-65911309D01*
X122887265Y-65903740D01*
X122932240Y-65900061D01*
X122985669Y-65899216D01*
X123101980Y-65899169D01*
X123101980Y-65850411D01*
X123097047Y-65812581D01*
X123084457Y-65787236D01*
X123082983Y-65785887D01*
X123054966Y-65774800D01*
X123012674Y-65770503D01*
X122965936Y-65772615D01*
X122924582Y-65780756D01*
X122900043Y-65792965D01*
X122886747Y-65802746D01*
X122872706Y-65804613D01*
X122853329Y-65796600D01*
X122824024Y-65776739D01*
X122780197Y-65743063D01*
X122776175Y-65739909D01*
X122778236Y-65728236D01*
X122795432Y-65708822D01*
X122821567Y-65687248D01*
X122850448Y-65669096D01*
X122859522Y-65664809D01*
X122892620Y-65656256D01*
X122941120Y-65650155D01*
X122995305Y-65647708D01*
X122997839Y-65647703D01*
X123075790Y-65652555D01*
G36*
X123466644Y-65649020D02*
G01*
X123485461Y-65654660D01*
X123491527Y-65667053D01*
X123491782Y-65672647D01*
X123492871Y-65688230D01*
X123500368Y-65690676D01*
X123520619Y-65679993D01*
X123532649Y-65672694D01*
X123570600Y-65657063D01*
X123615928Y-65649334D01*
X123663456Y-65648740D01*
X123708005Y-65654513D01*
X123744398Y-65665884D01*
X123767457Y-65682088D01*
X123772004Y-65702355D01*
X123769709Y-65707843D01*
X123752980Y-65730626D01*
X123727037Y-65758647D01*
X123722345Y-65763177D01*
X123697617Y-65784005D01*
X123676282Y-65790735D01*
X123646445Y-65786038D01*
X123634492Y-65782917D01*
X123597295Y-65775421D01*
X123571141Y-65778792D01*
X123549054Y-65790681D01*
X123528822Y-65806635D01*
X123513921Y-65826700D01*
X123503566Y-65854702D01*
X123496971Y-65894467D01*
X123493351Y-65949823D01*
X123491922Y-66024594D01*
X123491782Y-66069740D01*
X123491782Y-66263822D01*
X123366040Y-66263822D01*
X123366040Y-65647683D01*
X123428911Y-65647683D01*
X123466644Y-65649020D01*
G37*
X123466644Y-65649020D02*
X123485461Y-65654660D01*
X123491527Y-65667053D01*
X123491782Y-65672647D01*
X123492871Y-65688230D01*
X123500368Y-65690676D01*
X123520619Y-65679993D01*
X123532649Y-65672694D01*
X123570600Y-65657063D01*
X123615928Y-65649334D01*
X123663456Y-65648740D01*
X123708005Y-65654513D01*
X123744398Y-65665884D01*
X123767457Y-65682088D01*
X123772004Y-65702355D01*
X123769709Y-65707843D01*
X123752980Y-65730626D01*
X123727037Y-65758647D01*
X123722345Y-65763177D01*
X123697617Y-65784005D01*
X123676282Y-65790735D01*
X123646445Y-65786038D01*
X123634492Y-65782917D01*
X123597295Y-65775421D01*
X123571141Y-65778792D01*
X123549054Y-65790681D01*
X123528822Y-65806635D01*
X123513921Y-65826700D01*
X123503566Y-65854702D01*
X123496971Y-65894467D01*
X123493351Y-65949823D01*
X123491922Y-66024594D01*
X123491782Y-66069740D01*
X123491782Y-66263822D01*
X123366040Y-66263822D01*
X123366040Y-65647683D01*
X123428911Y-65647683D01*
X123466644Y-65649020D01*
G36*
X124258812Y-66263822D02*
G01*
X124189654Y-66263822D01*
X124149512Y-66262645D01*
X124128606Y-66257772D01*
X124121078Y-66247186D01*
X124120495Y-66240029D01*
X124119226Y-66225676D01*
X124111221Y-66222923D01*
X124090185Y-66231771D01*
X124073827Y-66240029D01*
X124011023Y-66259597D01*
X123942752Y-66260729D01*
X123887248Y-66246135D01*
X123835562Y-66210877D01*
X123796162Y-66158835D01*
X123774587Y-66097450D01*
X123774038Y-66094018D01*
X123770833Y-66056571D01*
X123769239Y-66002813D01*
X123769367Y-65962155D01*
X123906721Y-65962155D01*
X123909903Y-66016194D01*
X123917141Y-66060735D01*
X123926940Y-66085888D01*
X123964011Y-66120260D01*
X124008026Y-66132582D01*
X124053416Y-66122618D01*
X124092203Y-66092895D01*
X124106892Y-66072905D01*
X124115481Y-66049050D01*
X124119504Y-66014230D01*
X124120495Y-65961930D01*
X124118722Y-65910139D01*
X124114037Y-65864634D01*
X124107397Y-65834181D01*
X124106290Y-65831452D01*
X124079509Y-65799000D01*
X124040421Y-65781183D01*
X123996685Y-65778306D01*
X123955962Y-65790674D01*
X123925913Y-65818593D01*
X123922796Y-65824148D01*
X123913039Y-65858022D01*
X123907723Y-65906728D01*
X123906721Y-65962155D01*
X123769367Y-65962155D01*
X123769432Y-65941540D01*
X123770336Y-65908563D01*
X123776486Y-65826981D01*
X123789267Y-65765730D01*
X123810529Y-65720449D01*
X123842122Y-65686779D01*
X123872793Y-65667014D01*
X123915646Y-65653120D01*
X123968944Y-65648354D01*
X124023520Y-65652236D01*
X124070208Y-65664282D01*
X124094876Y-65678693D01*
X124120495Y-65701878D01*
X124120495Y-65408773D01*
X124258812Y-65408773D01*
X124258812Y-66263822D01*
G37*
X124258812Y-66263822D02*
X124189654Y-66263822D01*
X124149512Y-66262645D01*
X124128606Y-66257772D01*
X124121078Y-66247186D01*
X124120495Y-66240029D01*
X124119226Y-66225676D01*
X124111221Y-66222923D01*
X124090185Y-66231771D01*
X124073827Y-66240029D01*
X124011023Y-66259597D01*
X123942752Y-66260729D01*
X123887248Y-66246135D01*
X123835562Y-66210877D01*
X123796162Y-66158835D01*
X123774587Y-66097450D01*
X123774038Y-66094018D01*
X123770833Y-66056571D01*
X123769239Y-66002813D01*
X123769367Y-65962155D01*
X123906721Y-65962155D01*
X123909903Y-66016194D01*
X123917141Y-66060735D01*
X123926940Y-66085888D01*
X123964011Y-66120260D01*
X124008026Y-66132582D01*
X124053416Y-66122618D01*
X124092203Y-66092895D01*
X124106892Y-66072905D01*
X124115481Y-66049050D01*
X124119504Y-66014230D01*
X124120495Y-65961930D01*
X124118722Y-65910139D01*
X124114037Y-65864634D01*
X124107397Y-65834181D01*
X124106290Y-65831452D01*
X124079509Y-65799000D01*
X124040421Y-65781183D01*
X123996685Y-65778306D01*
X123955962Y-65790674D01*
X123925913Y-65818593D01*
X123922796Y-65824148D01*
X123913039Y-65858022D01*
X123907723Y-65906728D01*
X123906721Y-65962155D01*
X123769367Y-65962155D01*
X123769432Y-65941540D01*
X123770336Y-65908563D01*
X123776486Y-65826981D01*
X123789267Y-65765730D01*
X123810529Y-65720449D01*
X123842122Y-65686779D01*
X123872793Y-65667014D01*
X123915646Y-65653120D01*
X123968944Y-65648354D01*
X124023520Y-65652236D01*
X124070208Y-65664282D01*
X124094876Y-65678693D01*
X124120495Y-65701878D01*
X124120495Y-65408773D01*
X124258812Y-65408773D01*
X124258812Y-66263822D01*
G36*
X124741524Y-65650237D02*
G01*
X124791255Y-65653971D01*
X124921291Y-66043773D01*
X124941678Y-65974614D01*
X124953946Y-65931874D01*
X124970085Y-65874115D01*
X124987512Y-65810625D01*
X124996726Y-65776570D01*
X125031388Y-65647683D01*
X125174391Y-65647683D01*
X125131646Y-65782857D01*
X125110596Y-65849342D01*
X125085167Y-65929539D01*
X125058610Y-66013193D01*
X125034902Y-66087782D01*
X124980902Y-66257535D01*
X124922598Y-66261328D01*
X124864295Y-66265122D01*
X124832679Y-66160734D01*
X124813182Y-66095889D01*
X124791904Y-66024400D01*
X124773308Y-65961263D01*
X124772574Y-65958750D01*
X124758684Y-65915969D01*
X124746429Y-65886779D01*
X124737846Y-65875741D01*
X124736082Y-65877018D01*
X124729891Y-65894130D01*
X124718128Y-65930787D01*
X124702225Y-65982378D01*
X124683614Y-66044294D01*
X124673543Y-66078352D01*
X124619007Y-66263822D01*
X124503264Y-66263822D01*
X124410737Y-65971471D01*
X124384744Y-65889462D01*
X124361066Y-65814987D01*
X124340820Y-65751544D01*
X124325126Y-65702632D01*
X124315102Y-65671749D01*
X124312055Y-65662726D01*
X124314467Y-65653487D01*
X124333408Y-65649441D01*
X124372823Y-65649846D01*
X124378993Y-65650152D01*
X124452086Y-65653971D01*
X124499957Y-65830010D01*
X124517553Y-65894211D01*
X124533277Y-65950649D01*
X124545746Y-65994422D01*
X124553574Y-66020630D01*
X124555020Y-66024903D01*
X124561014Y-66019990D01*
X124573101Y-65994532D01*
X124589893Y-65951997D01*
X124610003Y-65895850D01*
X124627003Y-65845130D01*
X124691794Y-65646504D01*
X124741524Y-65650237D01*
G37*
X124741524Y-65650237D02*
X124791255Y-65653971D01*
X124921291Y-66043773D01*
X124941678Y-65974614D01*
X124953946Y-65931874D01*
X124970085Y-65874115D01*
X124987512Y-65810625D01*
X124996726Y-65776570D01*
X125031388Y-65647683D01*
X125174391Y-65647683D01*
X125131646Y-65782857D01*
X125110596Y-65849342D01*
X125085167Y-65929539D01*
X125058610Y-66013193D01*
X125034902Y-66087782D01*
X124980902Y-66257535D01*
X124922598Y-66261328D01*
X124864295Y-66265122D01*
X124832679Y-66160734D01*
X124813182Y-66095889D01*
X124791904Y-66024400D01*
X124773308Y-65961263D01*
X124772574Y-65958750D01*
X124758684Y-65915969D01*
X124746429Y-65886779D01*
X124737846Y-65875741D01*
X124736082Y-65877018D01*
X124729891Y-65894130D01*
X124718128Y-65930787D01*
X124702225Y-65982378D01*
X124683614Y-66044294D01*
X124673543Y-66078352D01*
X124619007Y-66263822D01*
X124503264Y-66263822D01*
X124410737Y-65971471D01*
X124384744Y-65889462D01*
X124361066Y-65814987D01*
X124340820Y-65751544D01*
X124325126Y-65702632D01*
X124315102Y-65671749D01*
X124312055Y-65662726D01*
X124314467Y-65653487D01*
X124333408Y-65649441D01*
X124372823Y-65649846D01*
X124378993Y-65650152D01*
X124452086Y-65653971D01*
X124499957Y-65830010D01*
X124517553Y-65894211D01*
X124533277Y-65950649D01*
X124545746Y-65994422D01*
X124553574Y-66020630D01*
X124555020Y-66024903D01*
X124561014Y-66019990D01*
X124573101Y-65994532D01*
X124589893Y-65951997D01*
X124610003Y-65895850D01*
X124627003Y-65845130D01*
X124691794Y-65646504D01*
X124741524Y-65650237D01*
G36*
X125498411Y-65651417D02*
G01*
X125551411Y-65664290D01*
X125566731Y-65671110D01*
X125596428Y-65688974D01*
X125619220Y-65709093D01*
X125636083Y-65734962D01*
X125647998Y-65770073D01*
X125655942Y-65817920D01*
X125660894Y-65881996D01*
X125663831Y-65965794D01*
X125664947Y-66021768D01*
X125669052Y-66263822D01*
X125598932Y-66263822D01*
X125556393Y-66262038D01*
X125534476Y-66255942D01*
X125528812Y-66245706D01*
X125525821Y-66234637D01*
X125512451Y-66236754D01*
X125494233Y-66245629D01*
X125448624Y-66259233D01*
X125390007Y-66262899D01*
X125328354Y-66256903D01*
X125273638Y-66241521D01*
X125268730Y-66239386D01*
X125218723Y-66204255D01*
X125185756Y-66155419D01*
X125170587Y-66098333D01*
X125171746Y-66077824D01*
X125295508Y-66077824D01*
X125306413Y-66105425D01*
X125338745Y-66125204D01*
X125390910Y-66135819D01*
X125418787Y-66137228D01*
X125465247Y-66133620D01*
X125496129Y-66119597D01*
X125503664Y-66112931D01*
X125524076Y-66076666D01*
X125528812Y-66043773D01*
X125528812Y-65999763D01*
X125467513Y-65999763D01*
X125396256Y-66003395D01*
X125346276Y-66014818D01*
X125314696Y-66034824D01*
X125307626Y-66043743D01*
X125295508Y-66077824D01*
X125171746Y-66077824D01*
X125173971Y-66038456D01*
X125196663Y-65981244D01*
X125227624Y-65942580D01*
X125246376Y-65925864D01*
X125264733Y-65914878D01*
X125288619Y-65908180D01*
X125323957Y-65904326D01*
X125376669Y-65901873D01*
X125397577Y-65901168D01*
X125528812Y-65896879D01*
X125528620Y-65857158D01*
X125523537Y-65815405D01*
X125505162Y-65790158D01*
X125468039Y-65774030D01*
X125467043Y-65773742D01*
X125414410Y-65767400D01*
X125362906Y-65775684D01*
X125324630Y-65795827D01*
X125309272Y-65805773D01*
X125292730Y-65804397D01*
X125267275Y-65789987D01*
X125252328Y-65779817D01*
X125223091Y-65758088D01*
X125204980Y-65741800D01*
X125202074Y-65737137D01*
X125214040Y-65713005D01*
X125249396Y-65684185D01*
X125264753Y-65674461D01*
X125308901Y-65657714D01*
X125368398Y-65648227D01*
X125434487Y-65646095D01*
X125498411Y-65651417D01*
G37*
X125498411Y-65651417D02*
X125551411Y-65664290D01*
X125566731Y-65671110D01*
X125596428Y-65688974D01*
X125619220Y-65709093D01*
X125636083Y-65734962D01*
X125647998Y-65770073D01*
X125655942Y-65817920D01*
X125660894Y-65881996D01*
X125663831Y-65965794D01*
X125664947Y-66021768D01*
X125669052Y-66263822D01*
X125598932Y-66263822D01*
X125556393Y-66262038D01*
X125534476Y-66255942D01*
X125528812Y-66245706D01*
X125525821Y-66234637D01*
X125512451Y-66236754D01*
X125494233Y-66245629D01*
X125448624Y-66259233D01*
X125390007Y-66262899D01*
X125328354Y-66256903D01*
X125273638Y-66241521D01*
X125268730Y-66239386D01*
X125218723Y-66204255D01*
X125185756Y-66155419D01*
X125170587Y-66098333D01*
X125171746Y-66077824D01*
X125295508Y-66077824D01*
X125306413Y-66105425D01*
X125338745Y-66125204D01*
X125390910Y-66135819D01*
X125418787Y-66137228D01*
X125465247Y-66133620D01*
X125496129Y-66119597D01*
X125503664Y-66112931D01*
X125524076Y-66076666D01*
X125528812Y-66043773D01*
X125528812Y-65999763D01*
X125467513Y-65999763D01*
X125396256Y-66003395D01*
X125346276Y-66014818D01*
X125314696Y-66034824D01*
X125307626Y-66043743D01*
X125295508Y-66077824D01*
X125171746Y-66077824D01*
X125173971Y-66038456D01*
X125196663Y-65981244D01*
X125227624Y-65942580D01*
X125246376Y-65925864D01*
X125264733Y-65914878D01*
X125288619Y-65908180D01*
X125323957Y-65904326D01*
X125376669Y-65901873D01*
X125397577Y-65901168D01*
X125528812Y-65896879D01*
X125528620Y-65857158D01*
X125523537Y-65815405D01*
X125505162Y-65790158D01*
X125468039Y-65774030D01*
X125467043Y-65773742D01*
X125414410Y-65767400D01*
X125362906Y-65775684D01*
X125324630Y-65795827D01*
X125309272Y-65805773D01*
X125292730Y-65804397D01*
X125267275Y-65789987D01*
X125252328Y-65779817D01*
X125223091Y-65758088D01*
X125204980Y-65741800D01*
X125202074Y-65737137D01*
X125214040Y-65713005D01*
X125249396Y-65684185D01*
X125264753Y-65674461D01*
X125308901Y-65657714D01*
X125368398Y-65648227D01*
X125434487Y-65646095D01*
X125498411Y-65651417D01*
G36*
X126095255Y-65647486D02*
G01*
X126143595Y-65657015D01*
X126171114Y-65671125D01*
X126200064Y-65694568D01*
X126158876Y-65746571D01*
X126133482Y-65778064D01*
X126116238Y-65793428D01*
X126099102Y-65795776D01*
X126074027Y-65788217D01*
X126062257Y-65783941D01*
X126014270Y-65777631D01*
X125970324Y-65791156D01*
X125938060Y-65821710D01*
X125932819Y-65831452D01*
X125927112Y-65857258D01*
X125922706Y-65904817D01*
X125919811Y-65970758D01*
X125918631Y-66051710D01*
X125918614Y-66063226D01*
X125918614Y-66263822D01*
X125780297Y-66263822D01*
X125780297Y-65647683D01*
X125849456Y-65647683D01*
X125889333Y-65648725D01*
X125910107Y-65653358D01*
X125917789Y-65663849D01*
X125918614Y-65673745D01*
X125918614Y-65699806D01*
X125951745Y-65673745D01*
X125989735Y-65655965D01*
X126040770Y-65647174D01*
X126095255Y-65647486D01*
G37*
X126095255Y-65647486D02*
X126143595Y-65657015D01*
X126171114Y-65671125D01*
X126200064Y-65694568D01*
X126158876Y-65746571D01*
X126133482Y-65778064D01*
X126116238Y-65793428D01*
X126099102Y-65795776D01*
X126074027Y-65788217D01*
X126062257Y-65783941D01*
X126014270Y-65777631D01*
X125970324Y-65791156D01*
X125938060Y-65821710D01*
X125932819Y-65831452D01*
X125927112Y-65857258D01*
X125922706Y-65904817D01*
X125919811Y-65970758D01*
X125918631Y-66051710D01*
X125918614Y-66063226D01*
X125918614Y-66263822D01*
X125780297Y-66263822D01*
X125780297Y-65647683D01*
X125849456Y-65647683D01*
X125889333Y-65648725D01*
X125910107Y-65653358D01*
X125917789Y-65663849D01*
X125918614Y-65673745D01*
X125918614Y-65699806D01*
X125951745Y-65673745D01*
X125989735Y-65655965D01*
X126040770Y-65647174D01*
X126095255Y-65647486D01*
G36*
X126492581Y-65650970D02*
G01*
X126552685Y-65666597D01*
X126603021Y-65698848D01*
X126627393Y-65722940D01*
X126667345Y-65779895D01*
X126690242Y-65845965D01*
X126698108Y-65927182D01*
X126698148Y-65933748D01*
X126698218Y-65999763D01*
X126318264Y-65999763D01*
X126326363Y-66034342D01*
X126340987Y-66065659D01*
X126366581Y-66098291D01*
X126371935Y-66103500D01*
X126417943Y-66131694D01*
X126470410Y-66136475D01*
X126530803Y-66117926D01*
X126541040Y-66112931D01*
X126572439Y-66097745D01*
X126593470Y-66089094D01*
X126597139Y-66088293D01*
X126609948Y-66096063D01*
X126634378Y-66115072D01*
X126646779Y-66125460D01*
X126672476Y-66149321D01*
X126680915Y-66165077D01*
X126675058Y-66179571D01*
X126671928Y-66183534D01*
X126650725Y-66200879D01*
X126615738Y-66221959D01*
X126591337Y-66234265D01*
X126522072Y-66255946D01*
X126445388Y-66262971D01*
X126372765Y-66254647D01*
X126352426Y-66248686D01*
X126289476Y-66214952D01*
X126242815Y-66163045D01*
X126212173Y-66092459D01*
X126197282Y-66002692D01*
X126195647Y-65955753D01*
X126200421Y-65887413D01*
X126320990Y-65887413D01*
X126332652Y-65892465D01*
X126363998Y-65896429D01*
X126409571Y-65898768D01*
X126440446Y-65899169D01*
X126495981Y-65898783D01*
X126531033Y-65896975D01*
X126550262Y-65892773D01*
X126558330Y-65885203D01*
X126559901Y-65874218D01*
X126549121Y-65840381D01*
X126521980Y-65806940D01*
X126486277Y-65781272D01*
X126450560Y-65770772D01*
X126402048Y-65780086D01*
X126360053Y-65807013D01*
X126330936Y-65845827D01*
X126320990Y-65887413D01*
X126200421Y-65887413D01*
X126202599Y-65856236D01*
X126224055Y-65776949D01*
X126260470Y-65717263D01*
X126312297Y-65676549D01*
X126379990Y-65654179D01*
X126416662Y-65649871D01*
X126492581Y-65650970D01*
G37*
X126492581Y-65650970D02*
X126552685Y-65666597D01*
X126603021Y-65698848D01*
X126627393Y-65722940D01*
X126667345Y-65779895D01*
X126690242Y-65845965D01*
X126698108Y-65927182D01*
X126698148Y-65933748D01*
X126698218Y-65999763D01*
X126318264Y-65999763D01*
X126326363Y-66034342D01*
X126340987Y-66065659D01*
X126366581Y-66098291D01*
X126371935Y-66103500D01*
X126417943Y-66131694D01*
X126470410Y-66136475D01*
X126530803Y-66117926D01*
X126541040Y-66112931D01*
X126572439Y-66097745D01*
X126593470Y-66089094D01*
X126597139Y-66088293D01*
X126609948Y-66096063D01*
X126634378Y-66115072D01*
X126646779Y-66125460D01*
X126672476Y-66149321D01*
X126680915Y-66165077D01*
X126675058Y-66179571D01*
X126671928Y-66183534D01*
X126650725Y-66200879D01*
X126615738Y-66221959D01*
X126591337Y-66234265D01*
X126522072Y-66255946D01*
X126445388Y-66262971D01*
X126372765Y-66254647D01*
X126352426Y-66248686D01*
X126289476Y-66214952D01*
X126242815Y-66163045D01*
X126212173Y-66092459D01*
X126197282Y-66002692D01*
X126195647Y-65955753D01*
X126200421Y-65887413D01*
X126320990Y-65887413D01*
X126332652Y-65892465D01*
X126363998Y-65896429D01*
X126409571Y-65898768D01*
X126440446Y-65899169D01*
X126495981Y-65898783D01*
X126531033Y-65896975D01*
X126550262Y-65892773D01*
X126558330Y-65885203D01*
X126559901Y-65874218D01*
X126549121Y-65840381D01*
X126521980Y-65806940D01*
X126486277Y-65781272D01*
X126450560Y-65770772D01*
X126402048Y-65780086D01*
X126360053Y-65807013D01*
X126330936Y-65845827D01*
X126320990Y-65887413D01*
X126200421Y-65887413D01*
X126202599Y-65856236D01*
X126224055Y-65776949D01*
X126260470Y-65717263D01*
X126312297Y-65676549D01*
X126379990Y-65654179D01*
X126416662Y-65649871D01*
X126492581Y-65650970D01*
G36*
X121921739Y-64711148D02*
G01*
X121987521Y-64740231D01*
X122037460Y-64788793D01*
X122071626Y-64856908D01*
X122090093Y-64944651D01*
X122091417Y-64958351D01*
X122092454Y-65054939D01*
X122079007Y-65139602D01*
X122051892Y-65208221D01*
X122037373Y-65230294D01*
X121986799Y-65277011D01*
X121922391Y-65307268D01*
X121850334Y-65319824D01*
X121776815Y-65313439D01*
X121720928Y-65293772D01*
X121672868Y-65260629D01*
X121633588Y-65217175D01*
X121632908Y-65216158D01*
X121616956Y-65189338D01*
X121606590Y-65162368D01*
X121600312Y-65128332D01*
X121596627Y-65080310D01*
X121595003Y-65040931D01*
X121594328Y-65005219D01*
X121720045Y-65005219D01*
X121721274Y-65040770D01*
X121725734Y-65088094D01*
X121733603Y-65118465D01*
X121747793Y-65140072D01*
X121761083Y-65152694D01*
X121808198Y-65179122D01*
X121857495Y-65182653D01*
X121903407Y-65163639D01*
X121926362Y-65142331D01*
X121942904Y-65120859D01*
X121952579Y-65100313D01*
X121956826Y-65073574D01*
X121957080Y-65033523D01*
X121955772Y-64996638D01*
X121952957Y-64943947D01*
X121948495Y-64909772D01*
X121940452Y-64887480D01*
X121926897Y-64870442D01*
X121916155Y-64860703D01*
X121871223Y-64835123D01*
X121822751Y-64833847D01*
X121782106Y-64848999D01*
X121747433Y-64880642D01*
X121726776Y-64932620D01*
X121720045Y-65005219D01*
X121594328Y-65005219D01*
X121593521Y-64962621D01*
X121596052Y-64904056D01*
X121603638Y-64860007D01*
X121617319Y-64825248D01*
X121638135Y-64794551D01*
X121645853Y-64785436D01*
X121694111Y-64740021D01*
X121745872Y-64713493D01*
X121809172Y-64702379D01*
X121840039Y-64701471D01*
X121921739Y-64711148D01*
G37*
X121921739Y-64711148D02*
X121987521Y-64740231D01*
X122037460Y-64788793D01*
X122071626Y-64856908D01*
X122090093Y-64944651D01*
X122091417Y-64958351D01*
X122092454Y-65054939D01*
X122079007Y-65139602D01*
X122051892Y-65208221D01*
X122037373Y-65230294D01*
X121986799Y-65277011D01*
X121922391Y-65307268D01*
X121850334Y-65319824D01*
X121776815Y-65313439D01*
X121720928Y-65293772D01*
X121672868Y-65260629D01*
X121633588Y-65217175D01*
X121632908Y-65216158D01*
X121616956Y-65189338D01*
X121606590Y-65162368D01*
X121600312Y-65128332D01*
X121596627Y-65080310D01*
X121595003Y-65040931D01*
X121594328Y-65005219D01*
X121720045Y-65005219D01*
X121721274Y-65040770D01*
X121725734Y-65088094D01*
X121733603Y-65118465D01*
X121747793Y-65140072D01*
X121761083Y-65152694D01*
X121808198Y-65179122D01*
X121857495Y-65182653D01*
X121903407Y-65163639D01*
X121926362Y-65142331D01*
X121942904Y-65120859D01*
X121952579Y-65100313D01*
X121956826Y-65073574D01*
X121957080Y-65033523D01*
X121955772Y-64996638D01*
X121952957Y-64943947D01*
X121948495Y-64909772D01*
X121940452Y-64887480D01*
X121926897Y-64870442D01*
X121916155Y-64860703D01*
X121871223Y-64835123D01*
X121822751Y-64833847D01*
X121782106Y-64848999D01*
X121747433Y-64880642D01*
X121726776Y-64932620D01*
X121720045Y-65005219D01*
X121594328Y-65005219D01*
X121593521Y-64962621D01*
X121596052Y-64904056D01*
X121603638Y-64860007D01*
X121617319Y-64825248D01*
X121638135Y-64794551D01*
X121645853Y-64785436D01*
X121694111Y-64740021D01*
X121745872Y-64713493D01*
X121809172Y-64702379D01*
X121840039Y-64701471D01*
X121921739Y-64711148D01*
G36*
X123103301Y-64718614D02*
G01*
X123115832Y-64724514D01*
X123159201Y-64756283D01*
X123200210Y-64802646D01*
X123230832Y-64853696D01*
X123239541Y-64877166D01*
X123247488Y-64919091D01*
X123252226Y-64969757D01*
X123252801Y-64990679D01*
X123252871Y-65056693D01*
X122872917Y-65056693D01*
X122881017Y-65091273D01*
X122900896Y-65132170D01*
X122935653Y-65167514D01*
X122977002Y-65190282D01*
X123003351Y-65195010D01*
X123039084Y-65189273D01*
X123081718Y-65174882D01*
X123096201Y-65168262D01*
X123149760Y-65141513D01*
X123195467Y-65176376D01*
X123221842Y-65199955D01*
X123235876Y-65219417D01*
X123236586Y-65225129D01*
X123224049Y-65238973D01*
X123196572Y-65260012D01*
X123171634Y-65276425D01*
X123104336Y-65305930D01*
X123028890Y-65319284D01*
X122954112Y-65315812D01*
X122894505Y-65297663D01*
X122833059Y-65258784D01*
X122789392Y-65207595D01*
X122762074Y-65141367D01*
X122749678Y-65057371D01*
X122748579Y-65018936D01*
X122752978Y-64930861D01*
X122753518Y-64928299D01*
X122879418Y-64928299D01*
X122882885Y-64936558D01*
X122897137Y-64941113D01*
X122926530Y-64943065D01*
X122975425Y-64943517D01*
X122994252Y-64943525D01*
X123051533Y-64942843D01*
X123087859Y-64940364D01*
X123107396Y-64935443D01*
X123114310Y-64927434D01*
X123114555Y-64924862D01*
X123106664Y-64904423D01*
X123086915Y-64875789D01*
X123078425Y-64865763D01*
X123046906Y-64837408D01*
X123014051Y-64826259D01*
X122996349Y-64825327D01*
X122948461Y-64836981D01*
X122908301Y-64868285D01*
X122882827Y-64913752D01*
X122882375Y-64915233D01*
X122879418Y-64928299D01*
X122753518Y-64928299D01*
X122767608Y-64861510D01*
X122793962Y-64806025D01*
X122826193Y-64766639D01*
X122885783Y-64723931D01*
X122955832Y-64701109D01*
X123030339Y-64699046D01*
X123103301Y-64718614D01*
G37*
X123103301Y-64718614D02*
X123115832Y-64724514D01*
X123159201Y-64756283D01*
X123200210Y-64802646D01*
X123230832Y-64853696D01*
X123239541Y-64877166D01*
X123247488Y-64919091D01*
X123252226Y-64969757D01*
X123252801Y-64990679D01*
X123252871Y-65056693D01*
X122872917Y-65056693D01*
X122881017Y-65091273D01*
X122900896Y-65132170D01*
X122935653Y-65167514D01*
X122977002Y-65190282D01*
X123003351Y-65195010D01*
X123039084Y-65189273D01*
X123081718Y-65174882D01*
X123096201Y-65168262D01*
X123149760Y-65141513D01*
X123195467Y-65176376D01*
X123221842Y-65199955D01*
X123235876Y-65219417D01*
X123236586Y-65225129D01*
X123224049Y-65238973D01*
X123196572Y-65260012D01*
X123171634Y-65276425D01*
X123104336Y-65305930D01*
X123028890Y-65319284D01*
X122954112Y-65315812D01*
X122894505Y-65297663D01*
X122833059Y-65258784D01*
X122789392Y-65207595D01*
X122762074Y-65141367D01*
X122749678Y-65057371D01*
X122748579Y-65018936D01*
X122752978Y-64930861D01*
X122753518Y-64928299D01*
X122879418Y-64928299D01*
X122882885Y-64936558D01*
X122897137Y-64941113D01*
X122926530Y-64943065D01*
X122975425Y-64943517D01*
X122994252Y-64943525D01*
X123051533Y-64942843D01*
X123087859Y-64940364D01*
X123107396Y-64935443D01*
X123114310Y-64927434D01*
X123114555Y-64924862D01*
X123106664Y-64904423D01*
X123086915Y-64875789D01*
X123078425Y-64865763D01*
X123046906Y-64837408D01*
X123014051Y-64826259D01*
X122996349Y-64825327D01*
X122948461Y-64836981D01*
X122908301Y-64868285D01*
X122882827Y-64913752D01*
X122882375Y-64915233D01*
X122879418Y-64928299D01*
X122753518Y-64928299D01*
X122767608Y-64861510D01*
X122793962Y-64806025D01*
X122826193Y-64766639D01*
X122885783Y-64723931D01*
X122955832Y-64701109D01*
X123030339Y-64699046D01*
X123103301Y-64718614D01*
G36*
X124474017Y-64702452D02*
G01*
X124521634Y-64711482D01*
X124571034Y-64730370D01*
X124576312Y-64732777D01*
X124613774Y-64752476D01*
X124639717Y-64770781D01*
X124648103Y-64782508D01*
X124640117Y-64801632D01*
X124620720Y-64829850D01*
X124612110Y-64840384D01*
X124576628Y-64881847D01*
X124530885Y-64854858D01*
X124487350Y-64836878D01*
X124437050Y-64827267D01*
X124388812Y-64826660D01*
X124351467Y-64835691D01*
X124342505Y-64841327D01*
X124325437Y-64867171D01*
X124323363Y-64896941D01*
X124336134Y-64920197D01*
X124343688Y-64924708D01*
X124366325Y-64930309D01*
X124406115Y-64936892D01*
X124455166Y-64943183D01*
X124464215Y-64944170D01*
X124542996Y-64957798D01*
X124600136Y-64980946D01*
X124638030Y-65015752D01*
X124659079Y-65064354D01*
X124665635Y-65123718D01*
X124656577Y-65191198D01*
X124627164Y-65244188D01*
X124577278Y-65282783D01*
X124506800Y-65307081D01*
X124428565Y-65316667D01*
X124364766Y-65316552D01*
X124313016Y-65307845D01*
X124277673Y-65295825D01*
X124233017Y-65274880D01*
X124191747Y-65250574D01*
X124177079Y-65239876D01*
X124139357Y-65209084D01*
X124184852Y-65163049D01*
X124230347Y-65117013D01*
X124282072Y-65151243D01*
X124333952Y-65176952D01*
X124389351Y-65190399D01*
X124442605Y-65191818D01*
X124488049Y-65181443D01*
X124520016Y-65159507D01*
X124530338Y-65140998D01*
X124528789Y-65111314D01*
X124503140Y-65088615D01*
X124453460Y-65072940D01*
X124399031Y-65065695D01*
X124315264Y-65051873D01*
X124253033Y-65025796D01*
X124211507Y-64986699D01*
X124189853Y-64933820D01*
X124186853Y-64871126D01*
X124201671Y-64805642D01*
X124235454Y-64756144D01*
X124288505Y-64722408D01*
X124361126Y-64704207D01*
X124414928Y-64700639D01*
X124474017Y-64702452D01*
G37*
X124474017Y-64702452D02*
X124521634Y-64711482D01*
X124571034Y-64730370D01*
X124576312Y-64732777D01*
X124613774Y-64752476D01*
X124639717Y-64770781D01*
X124648103Y-64782508D01*
X124640117Y-64801632D01*
X124620720Y-64829850D01*
X124612110Y-64840384D01*
X124576628Y-64881847D01*
X124530885Y-64854858D01*
X124487350Y-64836878D01*
X124437050Y-64827267D01*
X124388812Y-64826660D01*
X124351467Y-64835691D01*
X124342505Y-64841327D01*
X124325437Y-64867171D01*
X124323363Y-64896941D01*
X124336134Y-64920197D01*
X124343688Y-64924708D01*
X124366325Y-64930309D01*
X124406115Y-64936892D01*
X124455166Y-64943183D01*
X124464215Y-64944170D01*
X124542996Y-64957798D01*
X124600136Y-64980946D01*
X124638030Y-65015752D01*
X124659079Y-65064354D01*
X124665635Y-65123718D01*
X124656577Y-65191198D01*
X124627164Y-65244188D01*
X124577278Y-65282783D01*
X124506800Y-65307081D01*
X124428565Y-65316667D01*
X124364766Y-65316552D01*
X124313016Y-65307845D01*
X124277673Y-65295825D01*
X124233017Y-65274880D01*
X124191747Y-65250574D01*
X124177079Y-65239876D01*
X124139357Y-65209084D01*
X124184852Y-65163049D01*
X124230347Y-65117013D01*
X124282072Y-65151243D01*
X124333952Y-65176952D01*
X124389351Y-65190399D01*
X124442605Y-65191818D01*
X124488049Y-65181443D01*
X124520016Y-65159507D01*
X124530338Y-65140998D01*
X124528789Y-65111314D01*
X124503140Y-65088615D01*
X124453460Y-65072940D01*
X124399031Y-65065695D01*
X124315264Y-65051873D01*
X124253033Y-65025796D01*
X124211507Y-64986699D01*
X124189853Y-64933820D01*
X124186853Y-64871126D01*
X124201671Y-64805642D01*
X124235454Y-64756144D01*
X124288505Y-64722408D01*
X124361126Y-64704207D01*
X124414928Y-64700639D01*
X124474017Y-64702452D01*
G36*
X125070762Y-64712055D02*
G01*
X125134363Y-64746692D01*
X125184123Y-64801372D01*
X125207568Y-64845842D01*
X125217634Y-64885121D01*
X125224156Y-64941116D01*
X125226951Y-65005621D01*
X125225836Y-65070429D01*
X125220626Y-65127334D01*
X125214541Y-65157727D01*
X125194014Y-65199306D01*
X125158463Y-65243468D01*
X125115619Y-65282087D01*
X125073211Y-65307034D01*
X125072177Y-65307430D01*
X125019553Y-65318331D01*
X124957188Y-65318601D01*
X124897924Y-65308676D01*
X124875040Y-65300722D01*
X124816102Y-65267300D01*
X124773890Y-65223511D01*
X124746156Y-65165538D01*
X124730651Y-65089565D01*
X124727143Y-65049771D01*
X124727590Y-64999766D01*
X124862376Y-64999766D01*
X124866917Y-65072732D01*
X124879986Y-65128334D01*
X124900756Y-65163861D01*
X124915552Y-65174020D01*
X124953464Y-65181104D01*
X124998527Y-65179007D01*
X125037487Y-65168812D01*
X125047704Y-65163204D01*
X125074659Y-65130538D01*
X125092451Y-65080545D01*
X125100024Y-65019705D01*
X125096325Y-64954497D01*
X125088057Y-64915253D01*
X125064320Y-64869805D01*
X125026849Y-64841396D01*
X124981720Y-64831573D01*
X124935011Y-64841887D01*
X124899132Y-64867112D01*
X124880277Y-64887925D01*
X124869272Y-64908439D01*
X124864026Y-64936203D01*
X124862449Y-64978762D01*
X124862376Y-64999766D01*
X124727590Y-64999766D01*
X124728094Y-64943580D01*
X124745388Y-64856501D01*
X124779029Y-64788530D01*
X124829018Y-64739664D01*
X124895356Y-64709899D01*
X124909601Y-64706448D01*
X124995210Y-64698345D01*
X125070762Y-64712055D01*
G37*
X125070762Y-64712055D02*
X125134363Y-64746692D01*
X125184123Y-64801372D01*
X125207568Y-64845842D01*
X125217634Y-64885121D01*
X125224156Y-64941116D01*
X125226951Y-65005621D01*
X125225836Y-65070429D01*
X125220626Y-65127334D01*
X125214541Y-65157727D01*
X125194014Y-65199306D01*
X125158463Y-65243468D01*
X125115619Y-65282087D01*
X125073211Y-65307034D01*
X125072177Y-65307430D01*
X125019553Y-65318331D01*
X124957188Y-65318601D01*
X124897924Y-65308676D01*
X124875040Y-65300722D01*
X124816102Y-65267300D01*
X124773890Y-65223511D01*
X124746156Y-65165538D01*
X124730651Y-65089565D01*
X124727143Y-65049771D01*
X124727590Y-64999766D01*
X124862376Y-64999766D01*
X124866917Y-65072732D01*
X124879986Y-65128334D01*
X124900756Y-65163861D01*
X124915552Y-65174020D01*
X124953464Y-65181104D01*
X124998527Y-65179007D01*
X125037487Y-65168812D01*
X125047704Y-65163204D01*
X125074659Y-65130538D01*
X125092451Y-65080545D01*
X125100024Y-65019705D01*
X125096325Y-64954497D01*
X125088057Y-64915253D01*
X125064320Y-64869805D01*
X125026849Y-64841396D01*
X124981720Y-64831573D01*
X124935011Y-64841887D01*
X124899132Y-64867112D01*
X124880277Y-64887925D01*
X124869272Y-64908439D01*
X124864026Y-64936203D01*
X124862449Y-64978762D01*
X124862376Y-64999766D01*
X124727590Y-64999766D01*
X124728094Y-64943580D01*
X124745388Y-64856501D01*
X124779029Y-64788530D01*
X124829018Y-64739664D01*
X124895356Y-64709899D01*
X124909601Y-64706448D01*
X124995210Y-64698345D01*
X125070762Y-64712055D01*
G36*
X125453367Y-64900342D02*
G01*
X125454555Y-64992563D01*
X125458897Y-65062610D01*
X125467558Y-65113381D01*
X125481704Y-65147772D01*
X125502500Y-65168679D01*
X125531110Y-65179000D01*
X125566535Y-65181636D01*
X125603636Y-65178682D01*
X125631818Y-65167889D01*
X125652243Y-65146360D01*
X125666079Y-65111199D01*
X125674491Y-65059510D01*
X125678643Y-64988394D01*
X125679703Y-64900342D01*
X125679703Y-64704614D01*
X125818020Y-64704614D01*
X125818020Y-65308179D01*
X125748862Y-65308179D01*
X125707170Y-65306489D01*
X125685701Y-65300556D01*
X125679703Y-65289293D01*
X125676091Y-65279261D01*
X125661714Y-65281383D01*
X125632736Y-65295580D01*
X125566319Y-65317480D01*
X125495875Y-65315928D01*
X125428377Y-65292147D01*
X125396233Y-65273362D01*
X125371715Y-65253022D01*
X125353804Y-65227573D01*
X125341479Y-65193458D01*
X125333723Y-65147121D01*
X125329516Y-65085007D01*
X125327840Y-65003561D01*
X125327624Y-64940578D01*
X125327624Y-64704614D01*
X125453367Y-64704614D01*
X125453367Y-64900342D01*
G37*
X125453367Y-64900342D02*
X125454555Y-64992563D01*
X125458897Y-65062610D01*
X125467558Y-65113381D01*
X125481704Y-65147772D01*
X125502500Y-65168679D01*
X125531110Y-65179000D01*
X125566535Y-65181636D01*
X125603636Y-65178682D01*
X125631818Y-65167889D01*
X125652243Y-65146360D01*
X125666079Y-65111199D01*
X125674491Y-65059510D01*
X125678643Y-64988394D01*
X125679703Y-64900342D01*
X125679703Y-64704614D01*
X125818020Y-64704614D01*
X125818020Y-65308179D01*
X125748862Y-65308179D01*
X125707170Y-65306489D01*
X125685701Y-65300556D01*
X125679703Y-65289293D01*
X125676091Y-65279261D01*
X125661714Y-65281383D01*
X125632736Y-65295580D01*
X125566319Y-65317480D01*
X125495875Y-65315928D01*
X125428377Y-65292147D01*
X125396233Y-65273362D01*
X125371715Y-65253022D01*
X125353804Y-65227573D01*
X125341479Y-65193458D01*
X125333723Y-65147121D01*
X125329516Y-65085007D01*
X125327840Y-65003561D01*
X125327624Y-64940578D01*
X125327624Y-64704614D01*
X125453367Y-64704614D01*
X125453367Y-64900342D01*
G36*
X126677226Y-64709880D02*
G01*
X126750080Y-64740830D01*
X126773027Y-64755895D01*
X126802354Y-64779048D01*
X126820764Y-64797253D01*
X126823961Y-64803183D01*
X126814935Y-64816340D01*
X126791837Y-64838667D01*
X126773344Y-64854250D01*
X126722728Y-64894926D01*
X126682760Y-64861295D01*
X126651874Y-64839584D01*
X126621759Y-64832090D01*
X126587292Y-64833920D01*
X126532561Y-64847528D01*
X126494886Y-64875772D01*
X126471991Y-64921433D01*
X126461597Y-64987289D01*
X126461595Y-64987331D01*
X126462494Y-65060939D01*
X126476463Y-65114946D01*
X126504328Y-65151716D01*
X126523325Y-65164168D01*
X126573776Y-65179673D01*
X126627663Y-65179683D01*
X126674546Y-65164638D01*
X126685644Y-65157287D01*
X126713476Y-65138511D01*
X126735236Y-65135434D01*
X126758704Y-65149409D01*
X126784649Y-65174510D01*
X126825716Y-65216880D01*
X126780121Y-65254464D01*
X126709674Y-65296882D01*
X126630233Y-65317785D01*
X126547215Y-65316272D01*
X126492694Y-65302411D01*
X126428970Y-65268135D01*
X126378005Y-65214212D01*
X126354851Y-65176149D01*
X126336099Y-65121536D01*
X126326715Y-65052369D01*
X126326643Y-64977407D01*
X126335824Y-64905409D01*
X126354199Y-64845137D01*
X126357093Y-64838958D01*
X126399952Y-64778351D01*
X126457979Y-64734224D01*
X126526591Y-64707493D01*
X126601201Y-64699073D01*
X126677226Y-64709880D01*
G37*
X126677226Y-64709880D02*
X126750080Y-64740830D01*
X126773027Y-64755895D01*
X126802354Y-64779048D01*
X126820764Y-64797253D01*
X126823961Y-64803183D01*
X126814935Y-64816340D01*
X126791837Y-64838667D01*
X126773344Y-64854250D01*
X126722728Y-64894926D01*
X126682760Y-64861295D01*
X126651874Y-64839584D01*
X126621759Y-64832090D01*
X126587292Y-64833920D01*
X126532561Y-64847528D01*
X126494886Y-64875772D01*
X126471991Y-64921433D01*
X126461597Y-64987289D01*
X126461595Y-64987331D01*
X126462494Y-65060939D01*
X126476463Y-65114946D01*
X126504328Y-65151716D01*
X126523325Y-65164168D01*
X126573776Y-65179673D01*
X126627663Y-65179683D01*
X126674546Y-65164638D01*
X126685644Y-65157287D01*
X126713476Y-65138511D01*
X126735236Y-65135434D01*
X126758704Y-65149409D01*
X126784649Y-65174510D01*
X126825716Y-65216880D01*
X126780121Y-65254464D01*
X126709674Y-65296882D01*
X126630233Y-65317785D01*
X126547215Y-65316272D01*
X126492694Y-65302411D01*
X126428970Y-65268135D01*
X126378005Y-65214212D01*
X126354851Y-65176149D01*
X126336099Y-65121536D01*
X126326715Y-65052369D01*
X126326643Y-64977407D01*
X126335824Y-64905409D01*
X126354199Y-64845137D01*
X126357093Y-64838958D01*
X126399952Y-64778351D01*
X126457979Y-64734224D01*
X126526591Y-64707493D01*
X126601201Y-64699073D01*
X126677226Y-64709880D01*
G36*
X127137898Y-64702457D02*
G01*
X127170096Y-64710279D01*
X127231825Y-64738921D01*
X127284610Y-64782667D01*
X127321141Y-64835117D01*
X127326160Y-64846893D01*
X127333045Y-64877740D01*
X127337864Y-64923371D01*
X127339505Y-64969492D01*
X127339505Y-65056693D01*
X127157178Y-65056693D01*
X127081979Y-65056978D01*
X127029003Y-65058704D01*
X126995325Y-65063181D01*
X126978020Y-65071720D01*
X126974163Y-65085630D01*
X126980829Y-65106222D01*
X126992770Y-65130315D01*
X127026080Y-65170525D01*
X127072368Y-65190558D01*
X127128944Y-65189905D01*
X127193031Y-65168101D01*
X127248417Y-65141193D01*
X127294375Y-65177532D01*
X127340333Y-65213872D01*
X127297096Y-65253819D01*
X127239374Y-65291563D01*
X127168386Y-65314320D01*
X127092029Y-65320688D01*
X127018199Y-65309268D01*
X127006287Y-65305393D01*
X126941399Y-65271506D01*
X126893130Y-65220986D01*
X126860465Y-65152325D01*
X126842385Y-65064014D01*
X126842175Y-65062121D01*
X126840556Y-64965878D01*
X126847100Y-64931542D01*
X126974852Y-64931542D01*
X126986584Y-64936822D01*
X127018438Y-64940867D01*
X127065397Y-64943176D01*
X127095154Y-64943525D01*
X127150648Y-64943306D01*
X127185346Y-64941916D01*
X127203601Y-64938251D01*
X127209766Y-64931210D01*
X127208195Y-64919690D01*
X127206878Y-64915233D01*
X127184382Y-64873355D01*
X127149003Y-64839604D01*
X127117780Y-64824773D01*
X127076301Y-64825668D01*
X127034269Y-64844164D01*
X126999012Y-64874786D01*
X126977854Y-64912062D01*
X126974852Y-64931542D01*
X126847100Y-64931542D01*
X126856690Y-64881229D01*
X126888698Y-64810191D01*
X126934701Y-64754779D01*
X126992821Y-64717009D01*
X127061180Y-64698896D01*
X127137898Y-64702457D01*
G37*
X127137898Y-64702457D02*
X127170096Y-64710279D01*
X127231825Y-64738921D01*
X127284610Y-64782667D01*
X127321141Y-64835117D01*
X127326160Y-64846893D01*
X127333045Y-64877740D01*
X127337864Y-64923371D01*
X127339505Y-64969492D01*
X127339505Y-65056693D01*
X127157178Y-65056693D01*
X127081979Y-65056978D01*
X127029003Y-65058704D01*
X126995325Y-65063181D01*
X126978020Y-65071720D01*
X126974163Y-65085630D01*
X126980829Y-65106222D01*
X126992770Y-65130315D01*
X127026080Y-65170525D01*
X127072368Y-65190558D01*
X127128944Y-65189905D01*
X127193031Y-65168101D01*
X127248417Y-65141193D01*
X127294375Y-65177532D01*
X127340333Y-65213872D01*
X127297096Y-65253819D01*
X127239374Y-65291563D01*
X127168386Y-65314320D01*
X127092029Y-65320688D01*
X127018199Y-65309268D01*
X127006287Y-65305393D01*
X126941399Y-65271506D01*
X126893130Y-65220986D01*
X126860465Y-65152325D01*
X126842385Y-65064014D01*
X126842175Y-65062121D01*
X126840556Y-64965878D01*
X126847100Y-64931542D01*
X126974852Y-64931542D01*
X126986584Y-64936822D01*
X127018438Y-64940867D01*
X127065397Y-64943176D01*
X127095154Y-64943525D01*
X127150648Y-64943306D01*
X127185346Y-64941916D01*
X127203601Y-64938251D01*
X127209766Y-64931210D01*
X127208195Y-64919690D01*
X127206878Y-64915233D01*
X127184382Y-64873355D01*
X127149003Y-64839604D01*
X127117780Y-64824773D01*
X127076301Y-64825668D01*
X127034269Y-64844164D01*
X126999012Y-64874786D01*
X126977854Y-64912062D01*
X126974852Y-64931542D01*
X126847100Y-64931542D01*
X126856690Y-64881229D01*
X126888698Y-64810191D01*
X126934701Y-64754779D01*
X126992821Y-64717009D01*
X127061180Y-64698896D01*
X127137898Y-64702457D01*
G36*
X123705988Y-64715002D02*
G01*
X123737283Y-64729950D01*
X123767591Y-64751541D01*
X123790682Y-64776391D01*
X123807500Y-64808087D01*
X123818994Y-64850214D01*
X123826109Y-64906358D01*
X123829793Y-64980106D01*
X123830992Y-65075044D01*
X123831011Y-65084985D01*
X123831287Y-65308179D01*
X123692970Y-65308179D01*
X123692970Y-65102418D01*
X123692872Y-65026189D01*
X123692191Y-64970939D01*
X123690349Y-64932501D01*
X123686767Y-64906706D01*
X123680868Y-64889384D01*
X123672073Y-64876368D01*
X123659820Y-64863507D01*
X123616953Y-64835873D01*
X123570157Y-64830745D01*
X123525576Y-64848217D01*
X123510072Y-64861221D01*
X123498690Y-64873447D01*
X123490519Y-64886540D01*
X123485026Y-64904615D01*
X123481680Y-64931787D01*
X123479949Y-64972170D01*
X123479303Y-65029879D01*
X123479208Y-65100132D01*
X123479208Y-65308179D01*
X123340891Y-65308179D01*
X123340891Y-64704614D01*
X123410050Y-64704614D01*
X123451572Y-64706256D01*
X123472994Y-64712087D01*
X123479205Y-64723461D01*
X123479208Y-64723798D01*
X123482090Y-64734938D01*
X123494801Y-64733674D01*
X123520074Y-64721434D01*
X123577395Y-64703424D01*
X123642963Y-64701421D01*
X123705988Y-64715002D01*
G37*
X123705988Y-64715002D02*
X123737283Y-64729950D01*
X123767591Y-64751541D01*
X123790682Y-64776391D01*
X123807500Y-64808087D01*
X123818994Y-64850214D01*
X123826109Y-64906358D01*
X123829793Y-64980106D01*
X123830992Y-65075044D01*
X123831011Y-65084985D01*
X123831287Y-65308179D01*
X123692970Y-65308179D01*
X123692970Y-65102418D01*
X123692872Y-65026189D01*
X123692191Y-64970939D01*
X123690349Y-64932501D01*
X123686767Y-64906706D01*
X123680868Y-64889384D01*
X123672073Y-64876368D01*
X123659820Y-64863507D01*
X123616953Y-64835873D01*
X123570157Y-64830745D01*
X123525576Y-64848217D01*
X123510072Y-64861221D01*
X123498690Y-64873447D01*
X123490519Y-64886540D01*
X123485026Y-64904615D01*
X123481680Y-64931787D01*
X123479949Y-64972170D01*
X123479303Y-65029879D01*
X123479208Y-65100132D01*
X123479208Y-65308179D01*
X123340891Y-65308179D01*
X123340891Y-64704614D01*
X123410050Y-64704614D01*
X123451572Y-64706256D01*
X123472994Y-64712087D01*
X123479205Y-64723461D01*
X123479208Y-64723798D01*
X123482090Y-64734938D01*
X123494801Y-64733674D01*
X123520074Y-64721434D01*
X123577395Y-64703424D01*
X123642963Y-64701421D01*
X123705988Y-64715002D01*
G36*
X126259460Y-64704030D02*
G01*
X126302711Y-64717245D01*
X126330558Y-64733941D01*
X126339629Y-64747145D01*
X126337132Y-64762797D01*
X126320931Y-64787385D01*
X126307232Y-64804800D01*
X126278992Y-64836283D01*
X126257775Y-64849529D01*
X126239688Y-64848664D01*
X126186035Y-64835010D01*
X126146630Y-64835630D01*
X126114632Y-64851104D01*
X126103890Y-64860161D01*
X126069505Y-64892027D01*
X126069505Y-65308179D01*
X125931188Y-65308179D01*
X125931188Y-64704614D01*
X126000347Y-64704614D01*
X126041869Y-64706256D01*
X126063291Y-64712087D01*
X126069502Y-64723461D01*
X126069505Y-64723798D01*
X126072439Y-64735713D01*
X126085704Y-64734159D01*
X126104084Y-64725563D01*
X126142046Y-64709568D01*
X126172872Y-64699945D01*
X126212536Y-64697478D01*
X126259460Y-64704030D01*
G37*
X126259460Y-64704030D02*
X126302711Y-64717245D01*
X126330558Y-64733941D01*
X126339629Y-64747145D01*
X126337132Y-64762797D01*
X126320931Y-64787385D01*
X126307232Y-64804800D01*
X126278992Y-64836283D01*
X126257775Y-64849529D01*
X126239688Y-64848664D01*
X126186035Y-64835010D01*
X126146630Y-64835630D01*
X126114632Y-64851104D01*
X126103890Y-64860161D01*
X126069505Y-64892027D01*
X126069505Y-65308179D01*
X125931188Y-65308179D01*
X125931188Y-64704614D01*
X126000347Y-64704614D01*
X126041869Y-64706256D01*
X126063291Y-64712087D01*
X126069502Y-64723461D01*
X126069505Y-64723798D01*
X126072439Y-64735713D01*
X126085704Y-64734159D01*
X126104084Y-64725563D01*
X126142046Y-64709568D01*
X126172872Y-64699945D01*
X126212536Y-64697478D01*
X126259460Y-64704030D01*
G36*
X124836964Y-60536018D02*
G01*
X124893812Y-60837570D01*
X125313338Y-61010512D01*
X125564984Y-60839395D01*
X125635458Y-60791750D01*
X125699163Y-60749210D01*
X125753126Y-60713715D01*
X125794373Y-60687210D01*
X125819934Y-60671636D01*
X125826895Y-60668278D01*
X125839435Y-60676914D01*
X125866231Y-60700792D01*
X125904280Y-60736859D01*
X125950579Y-60782067D01*
X126002123Y-60833364D01*
X126055909Y-60887701D01*
X126108935Y-60942028D01*
X126158195Y-60993295D01*
X126200687Y-61038451D01*
X126233407Y-61074446D01*
X126253351Y-61098230D01*
X126258119Y-61106190D01*
X126251257Y-61120865D01*
X126232020Y-61153014D01*
X126202430Y-61199492D01*
X126164510Y-61257156D01*
X126120282Y-61322860D01*
X126094654Y-61360336D01*
X126047941Y-61428768D01*
X126006432Y-61490520D01*
X125972140Y-61542519D01*
X125947080Y-61581692D01*
X125933264Y-61604965D01*
X125931188Y-61609855D01*
X125935895Y-61623755D01*
X125948723Y-61656150D01*
X125967738Y-61702485D01*
X125991003Y-61758206D01*
X126016584Y-61818758D01*
X126042545Y-61879586D01*
X126066950Y-61936136D01*
X126087863Y-61983852D01*
X126103349Y-62018181D01*
X126111472Y-62034568D01*
X126111952Y-62035212D01*
X126124707Y-62038341D01*
X126158677Y-62045321D01*
X126210340Y-62055467D01*
X126276176Y-62068092D01*
X126352664Y-62082509D01*
X126397290Y-62090823D01*
X126479021Y-62106384D01*
X126552843Y-62121192D01*
X126615021Y-62134436D01*
X126661822Y-62145305D01*
X126689509Y-62152989D01*
X126695074Y-62155427D01*
X126700526Y-62171930D01*
X126704924Y-62209200D01*
X126708272Y-62262880D01*
X126710574Y-62328612D01*
X126711832Y-62402037D01*
X126712048Y-62478796D01*
X126711227Y-62554532D01*
X126709371Y-62624886D01*
X126706482Y-62685500D01*
X126702565Y-62732016D01*
X126697622Y-62760075D01*
X126694657Y-62765916D01*
X126676934Y-62772917D01*
X126639381Y-62782927D01*
X126586964Y-62794769D01*
X126524652Y-62807267D01*
X126502900Y-62811310D01*
X126398024Y-62830520D01*
X126315180Y-62845991D01*
X126251630Y-62858337D01*
X126204637Y-62868173D01*
X126171463Y-62876114D01*
X126149371Y-62882776D01*
X126135624Y-62888773D01*
X126127484Y-62894719D01*
X126126345Y-62895894D01*
X126114977Y-62914826D01*
X126097635Y-62951669D01*
X126076050Y-63001913D01*
X126051954Y-63061046D01*
X126027079Y-63124556D01*
X126003157Y-63187932D01*
X125981919Y-63246662D01*
X125965097Y-63296235D01*
X125954422Y-63332139D01*
X125951627Y-63349862D01*
X125951860Y-63350483D01*
X125961331Y-63364970D01*
X125982818Y-63396844D01*
X126014063Y-63442789D01*
X126052807Y-63499485D01*
X126096793Y-63563617D01*
X126109319Y-63581842D01*
X126153984Y-63647914D01*
X126193288Y-63708200D01*
X126225088Y-63759235D01*
X126247245Y-63797560D01*
X126257617Y-63819711D01*
X126258119Y-63822432D01*
X126249405Y-63836736D01*
X126225325Y-63865072D01*
X126188976Y-63904396D01*
X126143453Y-63951661D01*
X126091852Y-64003823D01*
X126037267Y-64057835D01*
X125982794Y-64110653D01*
X125931529Y-64159231D01*
X125886567Y-64200523D01*
X125851004Y-64231485D01*
X125827935Y-64249070D01*
X125821554Y-64251941D01*
X125806699Y-64245178D01*
X125776286Y-64226939D01*
X125735268Y-64200297D01*
X125703709Y-64178852D01*
X125646525Y-64139503D01*
X125578806Y-64093171D01*
X125510880Y-64046913D01*
X125474361Y-64022155D01*
X125350752Y-63938547D01*
X125246991Y-63994650D01*
X125199720Y-64019228D01*
X125159523Y-64038331D01*
X125132326Y-64049227D01*
X125125402Y-64050743D01*
X125117077Y-64039549D01*
X125100654Y-64007917D01*
X125077357Y-63958765D01*
X125048414Y-63895010D01*
X125015050Y-63819571D01*
X124978491Y-63735364D01*
X124939964Y-63645308D01*
X124900694Y-63552321D01*
X124861908Y-63459320D01*
X124824830Y-63369223D01*
X124790689Y-63284948D01*
X124760708Y-63209413D01*
X124736116Y-63145534D01*
X124718136Y-63096231D01*
X124707997Y-63064421D01*
X124706366Y-63053496D01*
X124719291Y-63039561D01*
X124747589Y-63016940D01*
X124785346Y-62990333D01*
X124788515Y-62988228D01*
X124886100Y-62910114D01*
X124964786Y-62818982D01*
X125023891Y-62717745D01*
X125062732Y-62609318D01*
X125080628Y-62496614D01*
X125076897Y-62382548D01*
X125050857Y-62270034D01*
X125001825Y-62161985D01*
X124987400Y-62138345D01*
X124912369Y-62042887D01*
X124823730Y-61966232D01*
X124724549Y-61908780D01*
X124617895Y-61870929D01*
X124506836Y-61853078D01*
X124394439Y-61855625D01*
X124283773Y-61878970D01*
X124177906Y-61923510D01*
X124079905Y-61989645D01*
X124049590Y-62016487D01*
X123972438Y-62100512D01*
X123916218Y-62188966D01*
X123877653Y-62288115D01*
X123856174Y-62386303D01*
X123850872Y-62496697D01*
X123868552Y-62607640D01*
X123907419Y-62715381D01*
X123965677Y-62816169D01*
X124041531Y-62906256D01*
X124133183Y-62981892D01*
X124145228Y-62989864D01*
X124183389Y-63015974D01*
X124212399Y-63038595D01*
X124226268Y-63053039D01*
X124226469Y-63053496D01*
X124223492Y-63069121D01*
X124211689Y-63104582D01*
X124192286Y-63156962D01*
X124166512Y-63223345D01*
X124135591Y-63300814D01*
X124100751Y-63386450D01*
X124063217Y-63477337D01*
X124024217Y-63570559D01*
X123984977Y-63663197D01*
X123946724Y-63752335D01*
X123910683Y-63835055D01*
X123878083Y-63908441D01*
X123850148Y-63969575D01*
X123828105Y-64015541D01*
X123813182Y-64043421D01*
X123807172Y-64050743D01*
X123788809Y-64045041D01*
X123754448Y-64029749D01*
X123710016Y-64007599D01*
X123685583Y-63994650D01*
X123581822Y-63938547D01*
X123458213Y-64022155D01*
X123395114Y-64064987D01*
X123326030Y-64112122D01*
X123261293Y-64156503D01*
X123228866Y-64178852D01*
X123183259Y-64209477D01*
X123144640Y-64233747D01*
X123118048Y-64248587D01*
X123109410Y-64251724D01*
X123096839Y-64243261D01*
X123069016Y-64219636D01*
X123028639Y-64183302D01*
X122978405Y-64136711D01*
X122921012Y-64082317D01*
X122884714Y-64047392D01*
X122821210Y-63984996D01*
X122766327Y-63929188D01*
X122722286Y-63882354D01*
X122691305Y-63846882D01*
X122675602Y-63825161D01*
X122674095Y-63820752D01*
X122681086Y-63803985D01*
X122700406Y-63770082D01*
X122729909Y-63722476D01*
X122767455Y-63664599D01*
X122810900Y-63599884D01*
X122823255Y-63581842D01*
X122868273Y-63516267D01*
X122908660Y-63457228D01*
X122942160Y-63408042D01*
X122966514Y-63372028D01*
X122979464Y-63352502D01*
X122980715Y-63350483D01*
X122978844Y-63334922D01*
X122968913Y-63300709D01*
X122952653Y-63252355D01*
X122931795Y-63194371D01*
X122908073Y-63131270D01*
X122883216Y-63067563D01*
X122858958Y-63007761D01*
X122837029Y-62956376D01*
X122819162Y-62917919D01*
X122807087Y-62896902D01*
X122806229Y-62895894D01*
X122798846Y-62889888D01*
X122786375Y-62883948D01*
X122766080Y-62877460D01*
X122735222Y-62869809D01*
X122691066Y-62860380D01*
X122630874Y-62848559D01*
X122551907Y-62833729D01*
X122451430Y-62815277D01*
X122429675Y-62811310D01*
X122365198Y-62798853D01*
X122308989Y-62786666D01*
X122266013Y-62775926D01*
X122241240Y-62767809D01*
X122237918Y-62765916D01*
X122232444Y-62749138D01*
X122227994Y-62711645D01*
X122224572Y-62657794D01*
X122222181Y-62591944D01*
X122220823Y-62518453D01*
X122220501Y-62441680D01*
X122221219Y-62365983D01*
X122222979Y-62295720D01*
X122225784Y-62235250D01*
X122229638Y-62188930D01*
X122234543Y-62161119D01*
X122237500Y-62155427D01*
X122253963Y-62149686D01*
X122291449Y-62140345D01*
X122346225Y-62128215D01*
X122414555Y-62114107D01*
X122492706Y-62098830D01*
X122535284Y-62090823D01*
X122616071Y-62075721D01*
X122688113Y-62062040D01*
X122747889Y-62050467D01*
X122791879Y-62041687D01*
X122816561Y-62036387D01*
X122820623Y-62035212D01*
X122827489Y-62021965D01*
X122842002Y-61990057D01*
X122862229Y-61944047D01*
X122886234Y-61888492D01*
X122912082Y-61827953D01*
X122937840Y-61766986D01*
X122961573Y-61710151D01*
X122981346Y-61662006D01*
X122995224Y-61627110D01*
X123001274Y-61610021D01*
X123001386Y-61609274D01*
X122994528Y-61595793D01*
X122975302Y-61564770D01*
X122945728Y-61519289D01*
X122907827Y-61462432D01*
X122863620Y-61397283D01*
X122837921Y-61359862D01*
X122791093Y-61291247D01*
X122749501Y-61228952D01*
X122715175Y-61176129D01*
X122690143Y-61135927D01*
X122676435Y-61111500D01*
X122674456Y-61106024D01*
X122682966Y-61093278D01*
X122706493Y-61066063D01*
X122742032Y-61027428D01*
X122786577Y-60980423D01*
X122837123Y-60928095D01*
X122890664Y-60873495D01*
X122944195Y-60819670D01*
X122994711Y-60769670D01*
X123039206Y-60726543D01*
X123074675Y-60693339D01*
X123098113Y-60673106D01*
X123105954Y-60668278D01*
X123118720Y-60675067D01*
X123149256Y-60694142D01*
X123194590Y-60723561D01*
X123251756Y-60761381D01*
X123317784Y-60805661D01*
X123367590Y-60839395D01*
X123619236Y-61010512D01*
X123828999Y-60924041D01*
X124038763Y-60837570D01*
X124095611Y-60536018D01*
X124152460Y-60234466D01*
X124780115Y-60234466D01*
X124836964Y-60536018D01*
G37*
X124836964Y-60536018D02*
X124893812Y-60837570D01*
X125313338Y-61010512D01*
X125564984Y-60839395D01*
X125635458Y-60791750D01*
X125699163Y-60749210D01*
X125753126Y-60713715D01*
X125794373Y-60687210D01*
X125819934Y-60671636D01*
X125826895Y-60668278D01*
X125839435Y-60676914D01*
X125866231Y-60700792D01*
X125904280Y-60736859D01*
X125950579Y-60782067D01*
X126002123Y-60833364D01*
X126055909Y-60887701D01*
X126108935Y-60942028D01*
X126158195Y-60993295D01*
X126200687Y-61038451D01*
X126233407Y-61074446D01*
X126253351Y-61098230D01*
X126258119Y-61106190D01*
X126251257Y-61120865D01*
X126232020Y-61153014D01*
X126202430Y-61199492D01*
X126164510Y-61257156D01*
X126120282Y-61322860D01*
X126094654Y-61360336D01*
X126047941Y-61428768D01*
X126006432Y-61490520D01*
X125972140Y-61542519D01*
X125947080Y-61581692D01*
X125933264Y-61604965D01*
X125931188Y-61609855D01*
X125935895Y-61623755D01*
X125948723Y-61656150D01*
X125967738Y-61702485D01*
X125991003Y-61758206D01*
X126016584Y-61818758D01*
X126042545Y-61879586D01*
X126066950Y-61936136D01*
X126087863Y-61983852D01*
X126103349Y-62018181D01*
X126111472Y-62034568D01*
X126111952Y-62035212D01*
X126124707Y-62038341D01*
X126158677Y-62045321D01*
X126210340Y-62055467D01*
X126276176Y-62068092D01*
X126352664Y-62082509D01*
X126397290Y-62090823D01*
X126479021Y-62106384D01*
X126552843Y-62121192D01*
X126615021Y-62134436D01*
X126661822Y-62145305D01*
X126689509Y-62152989D01*
X126695074Y-62155427D01*
X126700526Y-62171930D01*
X126704924Y-62209200D01*
X126708272Y-62262880D01*
X126710574Y-62328612D01*
X126711832Y-62402037D01*
X126712048Y-62478796D01*
X126711227Y-62554532D01*
X126709371Y-62624886D01*
X126706482Y-62685500D01*
X126702565Y-62732016D01*
X126697622Y-62760075D01*
X126694657Y-62765916D01*
X126676934Y-62772917D01*
X126639381Y-62782927D01*
X126586964Y-62794769D01*
X126524652Y-62807267D01*
X126502900Y-62811310D01*
X126398024Y-62830520D01*
X126315180Y-62845991D01*
X126251630Y-62858337D01*
X126204637Y-62868173D01*
X126171463Y-62876114D01*
X126149371Y-62882776D01*
X126135624Y-62888773D01*
X126127484Y-62894719D01*
X126126345Y-62895894D01*
X126114977Y-62914826D01*
X126097635Y-62951669D01*
X126076050Y-63001913D01*
X126051954Y-63061046D01*
X126027079Y-63124556D01*
X126003157Y-63187932D01*
X125981919Y-63246662D01*
X125965097Y-63296235D01*
X125954422Y-63332139D01*
X125951627Y-63349862D01*
X125951860Y-63350483D01*
X125961331Y-63364970D01*
X125982818Y-63396844D01*
X126014063Y-63442789D01*
X126052807Y-63499485D01*
X126096793Y-63563617D01*
X126109319Y-63581842D01*
X126153984Y-63647914D01*
X126193288Y-63708200D01*
X126225088Y-63759235D01*
X126247245Y-63797560D01*
X126257617Y-63819711D01*
X126258119Y-63822432D01*
X126249405Y-63836736D01*
X126225325Y-63865072D01*
X126188976Y-63904396D01*
X126143453Y-63951661D01*
X126091852Y-64003823D01*
X126037267Y-64057835D01*
X125982794Y-64110653D01*
X125931529Y-64159231D01*
X125886567Y-64200523D01*
X125851004Y-64231485D01*
X125827935Y-64249070D01*
X125821554Y-64251941D01*
X125806699Y-64245178D01*
X125776286Y-64226939D01*
X125735268Y-64200297D01*
X125703709Y-64178852D01*
X125646525Y-64139503D01*
X125578806Y-64093171D01*
X125510880Y-64046913D01*
X125474361Y-64022155D01*
X125350752Y-63938547D01*
X125246991Y-63994650D01*
X125199720Y-64019228D01*
X125159523Y-64038331D01*
X125132326Y-64049227D01*
X125125402Y-64050743D01*
X125117077Y-64039549D01*
X125100654Y-64007917D01*
X125077357Y-63958765D01*
X125048414Y-63895010D01*
X125015050Y-63819571D01*
X124978491Y-63735364D01*
X124939964Y-63645308D01*
X124900694Y-63552321D01*
X124861908Y-63459320D01*
X124824830Y-63369223D01*
X124790689Y-63284948D01*
X124760708Y-63209413D01*
X124736116Y-63145534D01*
X124718136Y-63096231D01*
X124707997Y-63064421D01*
X124706366Y-63053496D01*
X124719291Y-63039561D01*
X124747589Y-63016940D01*
X124785346Y-62990333D01*
X124788515Y-62988228D01*
X124886100Y-62910114D01*
X124964786Y-62818982D01*
X125023891Y-62717745D01*
X125062732Y-62609318D01*
X125080628Y-62496614D01*
X125076897Y-62382548D01*
X125050857Y-62270034D01*
X125001825Y-62161985D01*
X124987400Y-62138345D01*
X124912369Y-62042887D01*
X124823730Y-61966232D01*
X124724549Y-61908780D01*
X124617895Y-61870929D01*
X124506836Y-61853078D01*
X124394439Y-61855625D01*
X124283773Y-61878970D01*
X124177906Y-61923510D01*
X124079905Y-61989645D01*
X124049590Y-62016487D01*
X123972438Y-62100512D01*
X123916218Y-62188966D01*
X123877653Y-62288115D01*
X123856174Y-62386303D01*
X123850872Y-62496697D01*
X123868552Y-62607640D01*
X123907419Y-62715381D01*
X123965677Y-62816169D01*
X124041531Y-62906256D01*
X124133183Y-62981892D01*
X124145228Y-62989864D01*
X124183389Y-63015974D01*
X124212399Y-63038595D01*
X124226268Y-63053039D01*
X124226469Y-63053496D01*
X124223492Y-63069121D01*
X124211689Y-63104582D01*
X124192286Y-63156962D01*
X124166512Y-63223345D01*
X124135591Y-63300814D01*
X124100751Y-63386450D01*
X124063217Y-63477337D01*
X124024217Y-63570559D01*
X123984977Y-63663197D01*
X123946724Y-63752335D01*
X123910683Y-63835055D01*
X123878083Y-63908441D01*
X123850148Y-63969575D01*
X123828105Y-64015541D01*
X123813182Y-64043421D01*
X123807172Y-64050743D01*
X123788809Y-64045041D01*
X123754448Y-64029749D01*
X123710016Y-64007599D01*
X123685583Y-63994650D01*
X123581822Y-63938547D01*
X123458213Y-64022155D01*
X123395114Y-64064987D01*
X123326030Y-64112122D01*
X123261293Y-64156503D01*
X123228866Y-64178852D01*
X123183259Y-64209477D01*
X123144640Y-64233747D01*
X123118048Y-64248587D01*
X123109410Y-64251724D01*
X123096839Y-64243261D01*
X123069016Y-64219636D01*
X123028639Y-64183302D01*
X122978405Y-64136711D01*
X122921012Y-64082317D01*
X122884714Y-64047392D01*
X122821210Y-63984996D01*
X122766327Y-63929188D01*
X122722286Y-63882354D01*
X122691305Y-63846882D01*
X122675602Y-63825161D01*
X122674095Y-63820752D01*
X122681086Y-63803985D01*
X122700406Y-63770082D01*
X122729909Y-63722476D01*
X122767455Y-63664599D01*
X122810900Y-63599884D01*
X122823255Y-63581842D01*
X122868273Y-63516267D01*
X122908660Y-63457228D01*
X122942160Y-63408042D01*
X122966514Y-63372028D01*
X122979464Y-63352502D01*
X122980715Y-63350483D01*
X122978844Y-63334922D01*
X122968913Y-63300709D01*
X122952653Y-63252355D01*
X122931795Y-63194371D01*
X122908073Y-63131270D01*
X122883216Y-63067563D01*
X122858958Y-63007761D01*
X122837029Y-62956376D01*
X122819162Y-62917919D01*
X122807087Y-62896902D01*
X122806229Y-62895894D01*
X122798846Y-62889888D01*
X122786375Y-62883948D01*
X122766080Y-62877460D01*
X122735222Y-62869809D01*
X122691066Y-62860380D01*
X122630874Y-62848559D01*
X122551907Y-62833729D01*
X122451430Y-62815277D01*
X122429675Y-62811310D01*
X122365198Y-62798853D01*
X122308989Y-62786666D01*
X122266013Y-62775926D01*
X122241240Y-62767809D01*
X122237918Y-62765916D01*
X122232444Y-62749138D01*
X122227994Y-62711645D01*
X122224572Y-62657794D01*
X122222181Y-62591944D01*
X122220823Y-62518453D01*
X122220501Y-62441680D01*
X122221219Y-62365983D01*
X122222979Y-62295720D01*
X122225784Y-62235250D01*
X122229638Y-62188930D01*
X122234543Y-62161119D01*
X122237500Y-62155427D01*
X122253963Y-62149686D01*
X122291449Y-62140345D01*
X122346225Y-62128215D01*
X122414555Y-62114107D01*
X122492706Y-62098830D01*
X122535284Y-62090823D01*
X122616071Y-62075721D01*
X122688113Y-62062040D01*
X122747889Y-62050467D01*
X122791879Y-62041687D01*
X122816561Y-62036387D01*
X122820623Y-62035212D01*
X122827489Y-62021965D01*
X122842002Y-61990057D01*
X122862229Y-61944047D01*
X122886234Y-61888492D01*
X122912082Y-61827953D01*
X122937840Y-61766986D01*
X122961573Y-61710151D01*
X122981346Y-61662006D01*
X122995224Y-61627110D01*
X123001274Y-61610021D01*
X123001386Y-61609274D01*
X122994528Y-61595793D01*
X122975302Y-61564770D01*
X122945728Y-61519289D01*
X122907827Y-61462432D01*
X122863620Y-61397283D01*
X122837921Y-61359862D01*
X122791093Y-61291247D01*
X122749501Y-61228952D01*
X122715175Y-61176129D01*
X122690143Y-61135927D01*
X122676435Y-61111500D01*
X122674456Y-61106024D01*
X122682966Y-61093278D01*
X122706493Y-61066063D01*
X122742032Y-61027428D01*
X122786577Y-60980423D01*
X122837123Y-60928095D01*
X122890664Y-60873495D01*
X122944195Y-60819670D01*
X122994711Y-60769670D01*
X123039206Y-60726543D01*
X123074675Y-60693339D01*
X123098113Y-60673106D01*
X123105954Y-60668278D01*
X123118720Y-60675067D01*
X123149256Y-60694142D01*
X123194590Y-60723561D01*
X123251756Y-60761381D01*
X123317784Y-60805661D01*
X123367590Y-60839395D01*
X123619236Y-61010512D01*
X123828999Y-60924041D01*
X124038763Y-60837570D01*
X124095611Y-60536018D01*
X124152460Y-60234466D01*
X124780115Y-60234466D01*
X124836964Y-60536018D01*
D13*
%TO.C,BUS1*%
X205507001Y-105634201D02*
X205507001Y-96287001D01*
X89683001Y-96287001D02*
X89683001Y-105634201D01*
X89683001Y-105634201D02*
X205507001Y-105634201D01*
X205507001Y-96287001D02*
X89683001Y-96287001D01*
D14*
X201035001Y-95626601D02*
G75*
G03*
X201035001Y-95626601I-100000J0D01*
G01*
%TO.C,J1*%
X200660000Y-58674000D02*
X147320000Y-58674000D01*
X147320000Y-58674000D02*
X147320000Y-67818000D01*
X147320000Y-67818000D02*
X205740000Y-67818000D01*
X205740000Y-67818000D02*
X205740000Y-61976000D01*
D15*
%TO.C,J2*%
X92904000Y-89976000D02*
X95564000Y-89976000D01*
X92904000Y-87376000D02*
X92904000Y-89976000D01*
X95564000Y-87376000D02*
X95564000Y-89976000D01*
X92904000Y-87376000D02*
X95564000Y-87376000D01*
X92904000Y-86106000D02*
X92904000Y-84776000D01*
X92904000Y-84776000D02*
X94234000Y-84776000D01*
%TO.C,R17*%
X94944000Y-93210748D02*
X94944000Y-93733252D01*
X93524000Y-93210748D02*
X93524000Y-93733252D01*
D16*
%TO.C,RN2*%
X101334000Y-94676000D02*
X101334000Y-94676000D01*
X101334000Y-94576000D02*
X101334000Y-94576000D01*
X101334000Y-94576000D02*
G75*
G02*
X101334000Y-94676000I0J-50000D01*
G01*
X101334000Y-94676000D02*
G75*
G02*
X101334000Y-94576000I0J50000D01*
G01*
D15*
%TO.C,U1*%
X141986000Y-82159000D02*
X143936000Y-82159000D01*
X141986000Y-82159000D02*
X140036000Y-82159000D01*
X141986000Y-73289000D02*
X143936000Y-73289000D01*
X141986000Y-73289000D02*
X138536000Y-73289000D01*
%TO.C,U2*%
X129859000Y-83957000D02*
X126409000Y-83957000D01*
X129859000Y-83957000D02*
X131809000Y-83957000D01*
X129859000Y-92827000D02*
X127909000Y-92827000D01*
X129859000Y-92827000D02*
X131809000Y-92827000D01*
%TO.C,U3*%
X129794000Y-82159000D02*
X131744000Y-82159000D01*
X129794000Y-82159000D02*
X127844000Y-82159000D01*
X129794000Y-73289000D02*
X131744000Y-73289000D01*
X129794000Y-73289000D02*
X126344000Y-73289000D01*
%TO.C,U4*%
X143881000Y-63246000D02*
X143881000Y-59796000D01*
X143881000Y-63246000D02*
X143881000Y-65196000D01*
X135011000Y-63246000D02*
X135011000Y-61296000D01*
X135011000Y-63246000D02*
X135011000Y-65196000D01*
%TO.C,J1*%
D17*
X200236666Y-61280523D02*
X200236666Y-62187666D01*
X200176190Y-62369095D01*
X200055238Y-62490047D01*
X199873809Y-62550523D01*
X199752857Y-62550523D01*
X201506666Y-62550523D02*
X200780952Y-62550523D01*
X201143809Y-62550523D02*
X201143809Y-61280523D01*
X201022857Y-61461952D01*
X200901904Y-61582904D01*
X200780952Y-61643380D01*
%TO.C,J2*%
D10*
X93900666Y-83228380D02*
X93900666Y-83942666D01*
X93853047Y-84085523D01*
X93757809Y-84180761D01*
X93614952Y-84228380D01*
X93519714Y-84228380D01*
X94329238Y-83323619D02*
X94376857Y-83276000D01*
X94472095Y-83228380D01*
X94710190Y-83228380D01*
X94805428Y-83276000D01*
X94853047Y-83323619D01*
X94900666Y-83418857D01*
X94900666Y-83514095D01*
X94853047Y-83656952D01*
X94281619Y-84228380D01*
X94900666Y-84228380D01*
%TO.C,R17*%
X96336380Y-94114857D02*
X95860190Y-94448190D01*
X96336380Y-94686285D02*
X95336380Y-94686285D01*
X95336380Y-94305333D01*
X95384000Y-94210095D01*
X95431619Y-94162476D01*
X95526857Y-94114857D01*
X95669714Y-94114857D01*
X95764952Y-94162476D01*
X95812571Y-94210095D01*
X95860190Y-94305333D01*
X95860190Y-94686285D01*
X96336380Y-93162476D02*
X96336380Y-93733904D01*
X96336380Y-93448190D02*
X95336380Y-93448190D01*
X95479238Y-93543428D01*
X95574476Y-93638666D01*
X95622095Y-93733904D01*
X95336380Y-92829142D02*
X95336380Y-92162476D01*
X96336380Y-92591047D01*
%TO.C,RN2*%
D18*
X103443523Y-90114380D02*
X103110190Y-89638190D01*
X102872095Y-90114380D02*
X102872095Y-89114380D01*
X103253047Y-89114380D01*
X103348285Y-89162000D01*
X103395904Y-89209619D01*
X103443523Y-89304857D01*
X103443523Y-89447714D01*
X103395904Y-89542952D01*
X103348285Y-89590571D01*
X103253047Y-89638190D01*
X102872095Y-89638190D01*
X103872095Y-90114380D02*
X103872095Y-89114380D01*
X104443523Y-90114380D01*
X104443523Y-89114380D01*
X104872095Y-89209619D02*
X104919714Y-89162000D01*
X105014952Y-89114380D01*
X105253047Y-89114380D01*
X105348285Y-89162000D01*
X105395904Y-89209619D01*
X105443523Y-89304857D01*
X105443523Y-89400095D01*
X105395904Y-89542952D01*
X104824476Y-90114380D01*
X105443523Y-90114380D01*
%TO.C,U1*%
D10*
X141224095Y-71896380D02*
X141224095Y-72705904D01*
X141271714Y-72801142D01*
X141319333Y-72848761D01*
X141414571Y-72896380D01*
X141605047Y-72896380D01*
X141700285Y-72848761D01*
X141747904Y-72801142D01*
X141795523Y-72705904D01*
X141795523Y-71896380D01*
X142795523Y-72896380D02*
X142224095Y-72896380D01*
X142509809Y-72896380D02*
X142509809Y-71896380D01*
X142414571Y-72039238D01*
X142319333Y-72134476D01*
X142224095Y-72182095D01*
%TO.C,U2*%
X129097095Y-82564380D02*
X129097095Y-83373904D01*
X129144714Y-83469142D01*
X129192333Y-83516761D01*
X129287571Y-83564380D01*
X129478047Y-83564380D01*
X129573285Y-83516761D01*
X129620904Y-83469142D01*
X129668523Y-83373904D01*
X129668523Y-82564380D01*
X130097095Y-82659619D02*
X130144714Y-82612000D01*
X130239952Y-82564380D01*
X130478047Y-82564380D01*
X130573285Y-82612000D01*
X130620904Y-82659619D01*
X130668523Y-82754857D01*
X130668523Y-82850095D01*
X130620904Y-82992952D01*
X130049476Y-83564380D01*
X130668523Y-83564380D01*
%TO.C,U3*%
X129032095Y-71896380D02*
X129032095Y-72705904D01*
X129079714Y-72801142D01*
X129127333Y-72848761D01*
X129222571Y-72896380D01*
X129413047Y-72896380D01*
X129508285Y-72848761D01*
X129555904Y-72801142D01*
X129603523Y-72705904D01*
X129603523Y-71896380D01*
X129984476Y-71896380D02*
X130603523Y-71896380D01*
X130270190Y-72277333D01*
X130413047Y-72277333D01*
X130508285Y-72324952D01*
X130555904Y-72372571D01*
X130603523Y-72467809D01*
X130603523Y-72705904D01*
X130555904Y-72801142D01*
X130508285Y-72848761D01*
X130413047Y-72896380D01*
X130127333Y-72896380D01*
X130032095Y-72848761D01*
X129984476Y-72801142D01*
%TO.C,U4*%
X144178380Y-64007904D02*
X144987904Y-64007904D01*
X145083142Y-63960285D01*
X145130761Y-63912666D01*
X145178380Y-63817428D01*
X145178380Y-63626952D01*
X145130761Y-63531714D01*
X145083142Y-63484095D01*
X144987904Y-63436476D01*
X144178380Y-63436476D01*
X144511714Y-62531714D02*
X145178380Y-62531714D01*
X144130761Y-62769809D02*
X144845047Y-63007904D01*
X144845047Y-62388857D01*
%TD*%
M02*
