M48
; DRILL file {KiCad (5.1.6)-1} date 03/09/22 09:08:42
; FORMAT={-:-/ absolute / metric / decimal}
; #@! TF.CreationDate,2022-03-09T09:08:42-05:00
; #@! TF.GenerationSoftware,Kicad,Pcbnew,(5.1.6)-1
; #@! TF.FileFunction,Plated,1,2,PTH
FMAT,2
METRIC
T1C0.400
T2C1.000
T3C1.092
T4C1.150
%
G90
G05
T1
X98.044Y-100.838
X99.314Y-95.25
X100.584Y-95.504
X102.108Y-94.996
X110.549Y-77.607
X111.822Y-78.209
X113.124Y-78.834
X114.283Y-79.485
X115.441Y-80.135
X116.599Y-80.785
X117.758Y-81.436
X118.916Y-82.086
X122.936Y-88.392
X125.222Y-88.392
X125.339Y-84.582
X127.254Y-82.677
X128.016Y-85.852
X129.032Y-87.122
X129.032Y-90.17
X129.169Y-85.598
X130.556Y-85.598
X130.556Y-89.408
X130.81Y-88.392
X132.334Y-72.39
X132.334Y-82.667
X134.112Y-84.582
X134.366Y-87.122
X134.62Y-59.436
X136.398Y-83.312
X136.652Y-85.852
X137.16Y-58.674
X137.414Y-83.566
X138.176Y-63.754
X138.684Y-90.678
X138.938Y-83.566
X139.192Y-72.39
X140.97Y-83.566
X140.97Y-94.234
X141.224Y-87.884
X141.419Y-85.344
X142.24Y-101.092
X143.256Y-68.58
X143.764Y-95.504
X144.526Y-72.39
X144.526Y-82.667
X144.526Y-83.82
X145.034Y-96.774
X145.542Y-67.564
X153.543Y-96.774
X155.702Y-96.774
X157.226Y-96.774
X167.107Y-96.774
X168.402Y-59.436
X179.07Y-68.58
X200.66Y-66.548
T2
X94.234Y-86.106
X94.234Y-88.646
T3
X94.255Y-98.535
X94.255Y-103.386
X96.795Y-98.535
X96.795Y-103.386
X99.335Y-98.535
X99.335Y-103.386
X101.875Y-98.535
X101.875Y-103.386
X104.415Y-98.535
X104.415Y-103.386
X106.955Y-98.535
X106.955Y-103.386
X109.495Y-98.535
X109.495Y-103.386
X112.035Y-98.535
X112.035Y-103.386
X114.575Y-98.535
X114.575Y-103.386
X117.115Y-98.535
X117.115Y-103.386
X119.655Y-98.535
X119.655Y-103.386
X122.195Y-98.535
X122.195Y-103.386
X124.735Y-98.535
X124.735Y-103.386
X127.275Y-98.535
X127.275Y-103.386
X129.815Y-98.535
X129.815Y-103.386
X132.355Y-98.535
X132.355Y-103.386
X134.895Y-98.535
X134.895Y-103.386
X137.435Y-98.535
X137.435Y-103.386
X139.975Y-98.535
X139.975Y-103.386
X142.515Y-98.535
X142.515Y-103.386
X145.055Y-98.535
X145.055Y-103.386
X147.595Y-98.535
X147.595Y-103.386
X150.135Y-98.535
X150.135Y-103.386
X152.675Y-98.535
X152.675Y-103.386
X155.215Y-98.535
X155.215Y-103.386
X157.755Y-98.535
X157.755Y-103.386
X160.295Y-98.535
X160.295Y-103.386
X162.835Y-98.535
X162.835Y-103.386
X165.375Y-98.535
X165.375Y-103.386
X167.915Y-98.535
X167.915Y-103.386
X170.455Y-98.535
X170.455Y-103.386
X172.995Y-98.535
X172.995Y-103.386
X175.535Y-98.535
X175.535Y-103.386
X178.075Y-98.535
X178.075Y-103.386
X180.615Y-98.535
X180.615Y-103.386
X183.155Y-98.535
X183.155Y-103.386
X185.695Y-98.535
X185.695Y-103.386
X188.235Y-98.535
X188.235Y-103.386
X190.775Y-98.535
X190.775Y-103.386
X193.315Y-98.535
X193.315Y-103.386
X195.855Y-98.535
X195.855Y-103.386
X198.395Y-98.535
X198.395Y-103.386
X200.935Y-98.535
X200.935Y-103.386
T4
X152.4Y-61.976
X152.4Y-64.516
X154.94Y-61.976
X154.94Y-64.516
X157.48Y-61.976
X157.48Y-64.516
X160.02Y-61.976
X160.02Y-64.516
X162.56Y-61.976
X162.56Y-64.516
X165.1Y-61.976
X165.1Y-64.516
X167.64Y-61.976
X167.64Y-64.516
X170.18Y-61.976
X170.18Y-64.516
X172.72Y-61.976
X172.72Y-64.516
X175.26Y-61.976
X175.26Y-64.516
X177.8Y-61.976
X177.8Y-64.516
X180.34Y-61.976
X180.34Y-64.516
X182.88Y-61.976
X182.88Y-64.516
X185.42Y-61.976
X185.42Y-64.516
X187.96Y-61.976
X187.96Y-64.516
X190.5Y-61.976
X190.5Y-64.516
X193.04Y-61.976
X193.04Y-64.516
X195.58Y-61.976
X195.58Y-64.516
X198.12Y-61.976
X198.12Y-64.516
X200.66Y-61.976
X200.66Y-64.516
T0
M30
