%TF.GenerationSoftware,KiCad,Pcbnew,(5.1.6)-1*%
%TF.CreationDate,2022-03-09T09:08:40-05:00*%
%TF.ProjectId,a500hdd-remake,61353030-6864-4642-9d72-656d616b652e,rev?*%
%TF.SameCoordinates,Original*%
%TF.FileFunction,Legend,Bot*%
%TF.FilePolarity,Positive*%
%FSLAX46Y46*%
G04 Gerber Fmt 4.6, Leading zero omitted, Abs format (unit mm)*
G04 Created by KiCad (PCBNEW (5.1.6)-1) date 2022-03-09 09:08:40*
%MOMM*%
%LPD*%
G01*
G04 APERTURE LIST*
%ADD10C,0.120000*%
%ADD11C,0.100000*%
%ADD12C,0.150000*%
%ADD13C,0.250000*%
G04 APERTURE END LIST*
D10*
%TO.C,C1*%
X141715748Y-73100000D02*
X142238252Y-73100000D01*
X141715748Y-71680000D02*
X142238252Y-71680000D01*
%TO.C,C2*%
X129523748Y-82602000D02*
X130046252Y-82602000D01*
X129523748Y-84022000D02*
X130046252Y-84022000D01*
%TO.C,C3*%
X129532748Y-73100000D02*
X130055252Y-73100000D01*
X129532748Y-71680000D02*
X130055252Y-71680000D01*
%TO.C,C4*%
X145236000Y-62984748D02*
X145236000Y-63507252D01*
X143816000Y-62984748D02*
X143816000Y-63507252D01*
D11*
%TO.C,RN1*%
X116052000Y-94576000D02*
X116052000Y-94576000D01*
X116052000Y-94676000D02*
X116052000Y-94676000D01*
X116052000Y-94676000D02*
G75*
G03*
X116052000Y-94576000I0J50000D01*
G01*
X116052000Y-94576000D02*
G75*
G03*
X116052000Y-94676000I0J-50000D01*
G01*
%TO.C,C1*%
D12*
X142152666Y-71223142D02*
X142200285Y-71270761D01*
X142343142Y-71318380D01*
X142438380Y-71318380D01*
X142581238Y-71270761D01*
X142676476Y-71175523D01*
X142724095Y-71080285D01*
X142771714Y-70889809D01*
X142771714Y-70746952D01*
X142724095Y-70556476D01*
X142676476Y-70461238D01*
X142581238Y-70366000D01*
X142438380Y-70318380D01*
X142343142Y-70318380D01*
X142200285Y-70366000D01*
X142152666Y-70413619D01*
X141200285Y-71318380D02*
X141771714Y-71318380D01*
X141486000Y-71318380D02*
X141486000Y-70318380D01*
X141581238Y-70461238D01*
X141676476Y-70556476D01*
X141771714Y-70604095D01*
%TO.C,C2*%
X130205666Y-82145142D02*
X130253285Y-82192761D01*
X130396142Y-82240380D01*
X130491380Y-82240380D01*
X130634238Y-82192761D01*
X130729476Y-82097523D01*
X130777095Y-82002285D01*
X130824714Y-81811809D01*
X130824714Y-81668952D01*
X130777095Y-81478476D01*
X130729476Y-81383238D01*
X130634238Y-81288000D01*
X130491380Y-81240380D01*
X130396142Y-81240380D01*
X130253285Y-81288000D01*
X130205666Y-81335619D01*
X129824714Y-81335619D02*
X129777095Y-81288000D01*
X129681857Y-81240380D01*
X129443761Y-81240380D01*
X129348523Y-81288000D01*
X129300904Y-81335619D01*
X129253285Y-81430857D01*
X129253285Y-81526095D01*
X129300904Y-81668952D01*
X129872333Y-82240380D01*
X129253285Y-82240380D01*
%TO.C,C3*%
X129960666Y-71223142D02*
X130008285Y-71270761D01*
X130151142Y-71318380D01*
X130246380Y-71318380D01*
X130389238Y-71270761D01*
X130484476Y-71175523D01*
X130532095Y-71080285D01*
X130579714Y-70889809D01*
X130579714Y-70746952D01*
X130532095Y-70556476D01*
X130484476Y-70461238D01*
X130389238Y-70366000D01*
X130246380Y-70318380D01*
X130151142Y-70318380D01*
X130008285Y-70366000D01*
X129960666Y-70413619D01*
X129627333Y-70318380D02*
X129008285Y-70318380D01*
X129341619Y-70699333D01*
X129198761Y-70699333D01*
X129103523Y-70746952D01*
X129055904Y-70794571D01*
X129008285Y-70889809D01*
X129008285Y-71127904D01*
X129055904Y-71223142D01*
X129103523Y-71270761D01*
X129198761Y-71318380D01*
X129484476Y-71318380D01*
X129579714Y-71270761D01*
X129627333Y-71223142D01*
%TO.C,C4*%
X143233142Y-63079333D02*
X143280761Y-63031714D01*
X143328380Y-62888857D01*
X143328380Y-62793619D01*
X143280761Y-62650761D01*
X143185523Y-62555523D01*
X143090285Y-62507904D01*
X142899809Y-62460285D01*
X142756952Y-62460285D01*
X142566476Y-62507904D01*
X142471238Y-62555523D01*
X142376000Y-62650761D01*
X142328380Y-62793619D01*
X142328380Y-62888857D01*
X142376000Y-63031714D01*
X142423619Y-63079333D01*
X142661714Y-63936476D02*
X143328380Y-63936476D01*
X142280761Y-63698380D02*
X142995047Y-63460285D01*
X142995047Y-64079333D01*
%TO.C,RN1*%
D13*
X113974476Y-90114380D02*
X114307809Y-89638190D01*
X114545904Y-90114380D02*
X114545904Y-89114380D01*
X114164952Y-89114380D01*
X114069714Y-89162000D01*
X114022095Y-89209619D01*
X113974476Y-89304857D01*
X113974476Y-89447714D01*
X114022095Y-89542952D01*
X114069714Y-89590571D01*
X114164952Y-89638190D01*
X114545904Y-89638190D01*
X113545904Y-90114380D02*
X113545904Y-89114380D01*
X112974476Y-90114380D01*
X112974476Y-89114380D01*
X111974476Y-90114380D02*
X112545904Y-90114380D01*
X112260190Y-90114380D02*
X112260190Y-89114380D01*
X112355428Y-89257238D01*
X112450666Y-89352476D01*
X112545904Y-89400095D01*
%TD*%
M02*
