%FSLAX45Y45*%
G04 Gerber Fmt 4.5, Leading zero omitted, Abs format (unit mm)*
G04 Created by KiCad (PCBNEW (5.1.6)-1) date 2022-03-09 09:08:43*
%MOMM*%
%LPD*%
G01*
G04 APERTURE LIST*
%TA.AperFunction,Profile*%
%ADD10C,0.050000*%
%TD*%
%ADD11C,0.200000*%
%ADD12C,0.300000*%
G04 APERTURE END LIST*
D10*
X20624800Y-5689600D02*
X20624800Y-5816600D01*
X11633200Y-5689600D02*
X20624800Y-5689600D01*
X8890000Y-8432800D02*
X11633200Y-5689600D01*
X8890000Y-10642600D02*
X8890000Y-8432800D01*
X20624800Y-10642600D02*
X8890000Y-10642600D01*
X20624800Y-5816600D02*
X20624800Y-10642600D01*
D11*
X9784400Y-10063800D02*
X9824400Y-10103800D01*
X9824400Y-10063800D02*
X9784400Y-10103800D01*
X9911400Y-9505000D02*
X9951400Y-9545000D01*
X9951400Y-9505000D02*
X9911400Y-9545000D01*
X10038400Y-9530400D02*
X10078400Y-9570400D01*
X10078400Y-9530400D02*
X10038400Y-9570400D01*
X10190800Y-9479600D02*
X10230800Y-9519600D01*
X10230800Y-9479600D02*
X10190800Y-9519600D01*
X11034890Y-7740699D02*
X11074890Y-7780699D01*
X11074890Y-7740699D02*
X11034890Y-7780699D01*
X11162249Y-7800915D02*
X11202249Y-7840915D01*
X11202249Y-7800915D02*
X11162249Y-7840915D01*
X11292416Y-7863416D02*
X11332416Y-7903416D01*
X11332416Y-7863416D02*
X11292416Y-7903416D01*
X11408260Y-7928460D02*
X11448260Y-7968460D01*
X11448260Y-7928460D02*
X11408260Y-7968460D01*
X11524104Y-7993504D02*
X11564104Y-8033504D01*
X11564104Y-7993504D02*
X11524104Y-8033504D01*
X11639949Y-8058549D02*
X11679949Y-8098549D01*
X11679949Y-8058549D02*
X11639949Y-8098549D01*
X11755793Y-8123593D02*
X11795793Y-8163593D01*
X11795793Y-8123593D02*
X11755793Y-8163593D01*
X11871637Y-8188637D02*
X11911637Y-8228637D01*
X11911637Y-8188637D02*
X11871637Y-8228637D01*
X12273600Y-8819200D02*
X12313600Y-8859200D01*
X12313600Y-8819200D02*
X12273600Y-8859200D01*
X12502200Y-8819200D02*
X12542200Y-8859200D01*
X12542200Y-8819200D02*
X12502200Y-8859200D01*
X12513900Y-8438200D02*
X12553900Y-8478200D01*
X12553900Y-8438200D02*
X12513900Y-8478200D01*
X12705400Y-8247700D02*
X12745400Y-8287700D01*
X12745400Y-8247700D02*
X12705400Y-8287700D01*
X12781600Y-8565200D02*
X12821600Y-8605200D01*
X12821600Y-8565200D02*
X12781600Y-8605200D01*
X12883200Y-8692200D02*
X12923200Y-8732200D01*
X12923200Y-8692200D02*
X12883200Y-8732200D01*
X12883200Y-8997000D02*
X12923200Y-9037000D01*
X12923200Y-8997000D02*
X12883200Y-9037000D01*
X12896900Y-8539800D02*
X12936900Y-8579800D01*
X12936900Y-8539800D02*
X12896900Y-8579800D01*
X13035600Y-8539800D02*
X13075600Y-8579800D01*
X13075600Y-8539800D02*
X13035600Y-8579800D01*
X13035600Y-8920800D02*
X13075600Y-8960800D01*
X13075600Y-8920800D02*
X13035600Y-8960800D01*
X13061000Y-8819200D02*
X13101000Y-8859200D01*
X13101000Y-8819200D02*
X13061000Y-8859200D01*
X13213400Y-7219000D02*
X13253400Y-7259000D01*
X13253400Y-7219000D02*
X13213400Y-7259000D01*
X13213400Y-8246700D02*
X13253400Y-8286700D01*
X13253400Y-8246700D02*
X13213400Y-8286700D01*
X13391200Y-8438200D02*
X13431200Y-8478200D01*
X13431200Y-8438200D02*
X13391200Y-8478200D01*
X13416600Y-8692200D02*
X13456600Y-8732200D01*
X13456600Y-8692200D02*
X13416600Y-8732200D01*
X13442000Y-5923600D02*
X13482000Y-5963600D01*
X13482000Y-5923600D02*
X13442000Y-5963600D01*
X13619800Y-8311200D02*
X13659800Y-8351200D01*
X13659800Y-8311200D02*
X13619800Y-8351200D01*
X13645200Y-8565200D02*
X13685200Y-8605200D01*
X13685200Y-8565200D02*
X13645200Y-8605200D01*
X13696000Y-5847400D02*
X13736000Y-5887400D01*
X13736000Y-5847400D02*
X13696000Y-5887400D01*
X13721400Y-8336600D02*
X13761400Y-8376600D01*
X13761400Y-8336600D02*
X13721400Y-8376600D01*
X13797600Y-6355400D02*
X13837600Y-6395400D01*
X13837600Y-6355400D02*
X13797600Y-6395400D01*
X13848400Y-9047800D02*
X13888400Y-9087800D01*
X13888400Y-9047800D02*
X13848400Y-9087800D01*
X13873800Y-8336600D02*
X13913800Y-8376600D01*
X13913800Y-8336600D02*
X13873800Y-8376600D01*
X13899200Y-7219000D02*
X13939200Y-7259000D01*
X13939200Y-7219000D02*
X13899200Y-7259000D01*
X14077000Y-8336600D02*
X14117000Y-8376600D01*
X14117000Y-8336600D02*
X14077000Y-8376600D01*
X14077000Y-9403400D02*
X14117000Y-9443400D01*
X14117000Y-9403400D02*
X14077000Y-9443400D01*
X14102400Y-8768400D02*
X14142400Y-8808400D01*
X14142400Y-8768400D02*
X14102400Y-8808400D01*
X14121899Y-8514400D02*
X14161899Y-8554400D01*
X14161899Y-8514400D02*
X14121899Y-8554400D01*
X14204000Y-10089200D02*
X14244000Y-10129200D01*
X14244000Y-10089200D02*
X14204000Y-10129200D01*
X14305600Y-6838000D02*
X14345600Y-6878000D01*
X14345600Y-6838000D02*
X14305600Y-6878000D01*
X14356400Y-9530400D02*
X14396400Y-9570400D01*
X14396400Y-9530400D02*
X14356400Y-9570400D01*
X14432600Y-7219000D02*
X14472600Y-7259000D01*
X14472600Y-7219000D02*
X14432600Y-7259000D01*
X14432600Y-8246700D02*
X14472600Y-8286700D01*
X14472600Y-8246700D02*
X14432600Y-8286700D01*
X14432600Y-8362000D02*
X14472600Y-8402000D01*
X14472600Y-8362000D02*
X14432600Y-8402000D01*
X14483400Y-9657400D02*
X14523400Y-9697400D01*
X14523400Y-9657400D02*
X14483400Y-9697400D01*
X14534200Y-6736400D02*
X14574200Y-6776400D01*
X14574200Y-6736400D02*
X14534200Y-6776400D01*
X15334300Y-9657400D02*
X15374300Y-9697400D01*
X15374300Y-9657400D02*
X15334300Y-9697400D01*
X15550200Y-9657400D02*
X15590200Y-9697400D01*
X15590200Y-9657400D02*
X15550200Y-9697400D01*
X15702600Y-9657400D02*
X15742600Y-9697400D01*
X15742600Y-9657400D02*
X15702600Y-9697400D01*
X16690660Y-9657400D02*
X16730660Y-9697400D01*
X16730660Y-9657400D02*
X16690660Y-9697400D01*
X16820200Y-5923600D02*
X16860200Y-5963600D01*
X16860200Y-5923600D02*
X16820200Y-5963600D01*
X17887000Y-6838000D02*
X17927000Y-6878000D01*
X17927000Y-6838000D02*
X17887000Y-6878000D01*
X20046000Y-6634800D02*
X20086000Y-6674800D01*
X20086000Y-6634800D02*
X20046000Y-6674800D01*
X9473400Y-8610600D02*
G75*
G03*
X9473400Y-8610600I-50000J0D01*
G01*
X9473400Y-8864600D02*
G75*
G03*
X9473400Y-8864600I-50000J0D01*
G01*
X9425500Y-9798880D02*
X9425500Y-9908100D01*
X9370890Y-9853490D02*
X9480110Y-9853490D01*
X9425500Y-10284020D02*
X9425500Y-10393240D01*
X9370890Y-10338630D02*
X9480110Y-10338630D01*
X9679500Y-9798880D02*
X9679500Y-9908100D01*
X9624890Y-9853490D02*
X9734110Y-9853490D01*
X9679500Y-10284020D02*
X9679500Y-10393240D01*
X9624890Y-10338630D02*
X9734110Y-10338630D01*
X9933500Y-9798880D02*
X9933500Y-9908100D01*
X9878890Y-9853490D02*
X9988110Y-9853490D01*
X9933500Y-10284020D02*
X9933500Y-10393240D01*
X9878890Y-10338630D02*
X9988110Y-10338630D01*
X10187500Y-9798880D02*
X10187500Y-9908100D01*
X10132890Y-9853490D02*
X10242110Y-9853490D01*
X10187500Y-10284020D02*
X10187500Y-10393240D01*
X10132890Y-10338630D02*
X10242110Y-10338630D01*
X10441500Y-9798880D02*
X10441500Y-9908100D01*
X10386890Y-9853490D02*
X10496110Y-9853490D01*
X10441500Y-10284020D02*
X10441500Y-10393240D01*
X10386890Y-10338630D02*
X10496110Y-10338630D01*
X10695500Y-9798880D02*
X10695500Y-9908100D01*
X10640890Y-9853490D02*
X10750110Y-9853490D01*
X10695500Y-10284020D02*
X10695500Y-10393240D01*
X10640890Y-10338630D02*
X10750110Y-10338630D01*
X10949500Y-9798880D02*
X10949500Y-9908100D01*
X10894890Y-9853490D02*
X11004110Y-9853490D01*
X10949500Y-10284020D02*
X10949500Y-10393240D01*
X10894890Y-10338630D02*
X11004110Y-10338630D01*
X11203500Y-9798880D02*
X11203500Y-9908100D01*
X11148890Y-9853490D02*
X11258110Y-9853490D01*
X11203500Y-10284020D02*
X11203500Y-10393240D01*
X11148890Y-10338630D02*
X11258110Y-10338630D01*
X11457500Y-9798880D02*
X11457500Y-9908100D01*
X11402890Y-9853490D02*
X11512110Y-9853490D01*
X11457500Y-10284020D02*
X11457500Y-10393240D01*
X11402890Y-10338630D02*
X11512110Y-10338630D01*
X11711500Y-9798880D02*
X11711500Y-9908100D01*
X11656890Y-9853490D02*
X11766110Y-9853490D01*
X11711500Y-10284020D02*
X11711500Y-10393240D01*
X11656890Y-10338630D02*
X11766110Y-10338630D01*
X11965500Y-9798880D02*
X11965500Y-9908100D01*
X11910890Y-9853490D02*
X12020110Y-9853490D01*
X11965500Y-10284020D02*
X11965500Y-10393240D01*
X11910890Y-10338630D02*
X12020110Y-10338630D01*
X12219500Y-9798880D02*
X12219500Y-9908100D01*
X12164890Y-9853490D02*
X12274110Y-9853490D01*
X12219500Y-10284020D02*
X12219500Y-10393240D01*
X12164890Y-10338630D02*
X12274110Y-10338630D01*
X12473500Y-9798880D02*
X12473500Y-9908100D01*
X12418890Y-9853490D02*
X12528110Y-9853490D01*
X12473500Y-10284020D02*
X12473500Y-10393240D01*
X12418890Y-10338630D02*
X12528110Y-10338630D01*
X12727500Y-9798880D02*
X12727500Y-9908100D01*
X12672890Y-9853490D02*
X12782110Y-9853490D01*
X12727500Y-10284020D02*
X12727500Y-10393240D01*
X12672890Y-10338630D02*
X12782110Y-10338630D01*
X12981500Y-9798880D02*
X12981500Y-9908100D01*
X12926890Y-9853490D02*
X13036110Y-9853490D01*
X12981500Y-10284020D02*
X12981500Y-10393240D01*
X12926890Y-10338630D02*
X13036110Y-10338630D01*
X13235500Y-9798880D02*
X13235500Y-9908100D01*
X13180890Y-9853490D02*
X13290110Y-9853490D01*
X13235500Y-10284020D02*
X13235500Y-10393240D01*
X13180890Y-10338630D02*
X13290110Y-10338630D01*
X13489500Y-9798880D02*
X13489500Y-9908100D01*
X13434890Y-9853490D02*
X13544110Y-9853490D01*
X13489500Y-10284020D02*
X13489500Y-10393240D01*
X13434890Y-10338630D02*
X13544110Y-10338630D01*
X13743500Y-9798880D02*
X13743500Y-9908100D01*
X13688890Y-9853490D02*
X13798110Y-9853490D01*
X13743500Y-10284020D02*
X13743500Y-10393240D01*
X13688890Y-10338630D02*
X13798110Y-10338630D01*
X13997500Y-9798880D02*
X13997500Y-9908100D01*
X13942890Y-9853490D02*
X14052110Y-9853490D01*
X13997500Y-10284020D02*
X13997500Y-10393240D01*
X13942890Y-10338630D02*
X14052110Y-10338630D01*
X14251500Y-9798880D02*
X14251500Y-9908100D01*
X14196890Y-9853490D02*
X14306110Y-9853490D01*
X14251500Y-10284020D02*
X14251500Y-10393240D01*
X14196890Y-10338630D02*
X14306110Y-10338630D01*
X14505500Y-9798880D02*
X14505500Y-9908100D01*
X14450890Y-9853490D02*
X14560110Y-9853490D01*
X14505500Y-10284020D02*
X14505500Y-10393240D01*
X14450890Y-10338630D02*
X14560110Y-10338630D01*
X14759500Y-9798880D02*
X14759500Y-9908100D01*
X14704890Y-9853490D02*
X14814110Y-9853490D01*
X14759500Y-10284020D02*
X14759500Y-10393240D01*
X14704890Y-10338630D02*
X14814110Y-10338630D01*
X15013500Y-9798880D02*
X15013500Y-9908100D01*
X14958890Y-9853490D02*
X15068110Y-9853490D01*
X15013500Y-10284020D02*
X15013500Y-10393240D01*
X14958890Y-10338630D02*
X15068110Y-10338630D01*
X15267500Y-9798880D02*
X15267500Y-9908100D01*
X15212890Y-9853490D02*
X15322110Y-9853490D01*
X15267500Y-10284020D02*
X15267500Y-10393240D01*
X15212890Y-10338630D02*
X15322110Y-10338630D01*
X15521500Y-9798880D02*
X15521500Y-9908100D01*
X15466890Y-9853490D02*
X15576110Y-9853490D01*
X15521500Y-10284020D02*
X15521500Y-10393240D01*
X15466890Y-10338630D02*
X15576110Y-10338630D01*
X15775500Y-9798880D02*
X15775500Y-9908100D01*
X15720890Y-9853490D02*
X15830110Y-9853490D01*
X15775500Y-10284020D02*
X15775500Y-10393240D01*
X15720890Y-10338630D02*
X15830110Y-10338630D01*
X16029500Y-9798880D02*
X16029500Y-9908100D01*
X15974890Y-9853490D02*
X16084110Y-9853490D01*
X16029500Y-10284020D02*
X16029500Y-10393240D01*
X15974890Y-10338630D02*
X16084110Y-10338630D01*
X16283500Y-9798880D02*
X16283500Y-9908100D01*
X16228890Y-9853490D02*
X16338110Y-9853490D01*
X16283500Y-10284020D02*
X16283500Y-10393240D01*
X16228890Y-10338630D02*
X16338110Y-10338630D01*
X16537500Y-9798880D02*
X16537500Y-9908100D01*
X16482890Y-9853490D02*
X16592110Y-9853490D01*
X16537500Y-10284020D02*
X16537500Y-10393240D01*
X16482890Y-10338630D02*
X16592110Y-10338630D01*
X16791500Y-9798880D02*
X16791500Y-9908100D01*
X16736890Y-9853490D02*
X16846110Y-9853490D01*
X16791500Y-10284020D02*
X16791500Y-10393240D01*
X16736890Y-10338630D02*
X16846110Y-10338630D01*
X17045500Y-9798880D02*
X17045500Y-9908100D01*
X16990890Y-9853490D02*
X17100110Y-9853490D01*
X17045500Y-10284020D02*
X17045500Y-10393240D01*
X16990890Y-10338630D02*
X17100110Y-10338630D01*
X17299500Y-9798880D02*
X17299500Y-9908100D01*
X17244890Y-9853490D02*
X17354110Y-9853490D01*
X17299500Y-10284020D02*
X17299500Y-10393240D01*
X17244890Y-10338630D02*
X17354110Y-10338630D01*
X17553500Y-9798880D02*
X17553500Y-9908100D01*
X17498890Y-9853490D02*
X17608110Y-9853490D01*
X17553500Y-10284020D02*
X17553500Y-10393240D01*
X17498890Y-10338630D02*
X17608110Y-10338630D01*
X17807500Y-9798880D02*
X17807500Y-9908100D01*
X17752890Y-9853490D02*
X17862110Y-9853490D01*
X17807500Y-10284020D02*
X17807500Y-10393240D01*
X17752890Y-10338630D02*
X17862110Y-10338630D01*
X18061500Y-9798880D02*
X18061500Y-9908100D01*
X18006890Y-9853490D02*
X18116110Y-9853490D01*
X18061500Y-10284020D02*
X18061500Y-10393240D01*
X18006890Y-10338630D02*
X18116110Y-10338630D01*
X18315500Y-9798880D02*
X18315500Y-9908100D01*
X18260890Y-9853490D02*
X18370110Y-9853490D01*
X18315500Y-10284020D02*
X18315500Y-10393240D01*
X18260890Y-10338630D02*
X18370110Y-10338630D01*
X18569500Y-9798880D02*
X18569500Y-9908100D01*
X18514890Y-9853490D02*
X18624110Y-9853490D01*
X18569500Y-10284020D02*
X18569500Y-10393240D01*
X18514890Y-10338630D02*
X18624110Y-10338630D01*
X18823500Y-9798880D02*
X18823500Y-9908100D01*
X18768890Y-9853490D02*
X18878110Y-9853490D01*
X18823500Y-10284020D02*
X18823500Y-10393240D01*
X18768890Y-10338630D02*
X18878110Y-10338630D01*
X19077500Y-9798880D02*
X19077500Y-9908100D01*
X19022890Y-9853490D02*
X19132110Y-9853490D01*
X19077500Y-10284020D02*
X19077500Y-10393240D01*
X19022890Y-10338630D02*
X19132110Y-10338630D01*
X19331500Y-9798880D02*
X19331500Y-9908100D01*
X19276890Y-9853490D02*
X19386110Y-9853490D01*
X19331500Y-10284020D02*
X19331500Y-10393240D01*
X19276890Y-10338630D02*
X19386110Y-10338630D01*
X19585500Y-9798880D02*
X19585500Y-9908100D01*
X19530890Y-9853490D02*
X19640110Y-9853490D01*
X19585500Y-10284020D02*
X19585500Y-10393240D01*
X19530890Y-10338630D02*
X19640110Y-10338630D01*
X19839500Y-9798880D02*
X19839500Y-9908100D01*
X19784890Y-9853490D02*
X19894110Y-9853490D01*
X19839500Y-10284020D02*
X19839500Y-10393240D01*
X19784890Y-10338630D02*
X19894110Y-10338630D01*
X20093500Y-9798880D02*
X20093500Y-9908100D01*
X20038890Y-9853490D02*
X20148110Y-9853490D01*
X20093500Y-10284020D02*
X20093500Y-10393240D01*
X20038890Y-10338630D02*
X20148110Y-10338630D01*
X15280659Y-6238259D02*
X15280659Y-6156941D01*
X15199341Y-6156941D01*
X15199341Y-6238259D01*
X15280659Y-6238259D01*
X15280659Y-6492259D02*
X15280659Y-6410941D01*
X15199341Y-6410941D01*
X15199341Y-6492259D01*
X15280659Y-6492259D01*
X15534659Y-6238259D02*
X15534659Y-6156941D01*
X15453341Y-6156941D01*
X15453341Y-6238259D01*
X15534659Y-6238259D01*
X15534659Y-6492259D02*
X15534659Y-6410941D01*
X15453341Y-6410941D01*
X15453341Y-6492259D01*
X15534659Y-6492259D01*
X15788659Y-6238259D02*
X15788659Y-6156941D01*
X15707341Y-6156941D01*
X15707341Y-6238259D01*
X15788659Y-6238259D01*
X15788659Y-6492259D02*
X15788659Y-6410941D01*
X15707341Y-6410941D01*
X15707341Y-6492259D01*
X15788659Y-6492259D01*
X16042659Y-6238259D02*
X16042659Y-6156941D01*
X15961341Y-6156941D01*
X15961341Y-6238259D01*
X16042659Y-6238259D01*
X16042659Y-6492259D02*
X16042659Y-6410941D01*
X15961341Y-6410941D01*
X15961341Y-6492259D01*
X16042659Y-6492259D01*
X16296659Y-6238259D02*
X16296659Y-6156941D01*
X16215341Y-6156941D01*
X16215341Y-6238259D01*
X16296659Y-6238259D01*
X16296659Y-6492259D02*
X16296659Y-6410941D01*
X16215341Y-6410941D01*
X16215341Y-6492259D01*
X16296659Y-6492259D01*
X16550659Y-6238259D02*
X16550659Y-6156941D01*
X16469341Y-6156941D01*
X16469341Y-6238259D01*
X16550659Y-6238259D01*
X16550659Y-6492259D02*
X16550659Y-6410941D01*
X16469341Y-6410941D01*
X16469341Y-6492259D01*
X16550659Y-6492259D01*
X16804659Y-6238259D02*
X16804659Y-6156941D01*
X16723341Y-6156941D01*
X16723341Y-6238259D01*
X16804659Y-6238259D01*
X16804659Y-6492259D02*
X16804659Y-6410941D01*
X16723341Y-6410941D01*
X16723341Y-6492259D01*
X16804659Y-6492259D01*
X17058659Y-6238259D02*
X17058659Y-6156941D01*
X16977341Y-6156941D01*
X16977341Y-6238259D01*
X17058659Y-6238259D01*
X17058659Y-6492259D02*
X17058659Y-6410941D01*
X16977341Y-6410941D01*
X16977341Y-6492259D01*
X17058659Y-6492259D01*
X17312659Y-6238259D02*
X17312659Y-6156941D01*
X17231341Y-6156941D01*
X17231341Y-6238259D01*
X17312659Y-6238259D01*
X17312659Y-6492259D02*
X17312659Y-6410941D01*
X17231341Y-6410941D01*
X17231341Y-6492259D01*
X17312659Y-6492259D01*
X17566659Y-6238259D02*
X17566659Y-6156941D01*
X17485341Y-6156941D01*
X17485341Y-6238259D01*
X17566659Y-6238259D01*
X17566659Y-6492259D02*
X17566659Y-6410941D01*
X17485341Y-6410941D01*
X17485341Y-6492259D01*
X17566659Y-6492259D01*
X17820659Y-6238259D02*
X17820659Y-6156941D01*
X17739341Y-6156941D01*
X17739341Y-6238259D01*
X17820659Y-6238259D01*
X17820659Y-6492259D02*
X17820659Y-6410941D01*
X17739341Y-6410941D01*
X17739341Y-6492259D01*
X17820659Y-6492259D01*
X18074659Y-6238259D02*
X18074659Y-6156941D01*
X17993341Y-6156941D01*
X17993341Y-6238259D01*
X18074659Y-6238259D01*
X18074659Y-6492259D02*
X18074659Y-6410941D01*
X17993341Y-6410941D01*
X17993341Y-6492259D01*
X18074659Y-6492259D01*
X18328659Y-6238259D02*
X18328659Y-6156941D01*
X18247341Y-6156941D01*
X18247341Y-6238259D01*
X18328659Y-6238259D01*
X18328659Y-6492259D02*
X18328659Y-6410941D01*
X18247341Y-6410941D01*
X18247341Y-6492259D01*
X18328659Y-6492259D01*
X18582659Y-6238259D02*
X18582659Y-6156941D01*
X18501341Y-6156941D01*
X18501341Y-6238259D01*
X18582659Y-6238259D01*
X18582659Y-6492259D02*
X18582659Y-6410941D01*
X18501341Y-6410941D01*
X18501341Y-6492259D01*
X18582659Y-6492259D01*
X18836659Y-6238259D02*
X18836659Y-6156941D01*
X18755341Y-6156941D01*
X18755341Y-6238259D01*
X18836659Y-6238259D01*
X18836659Y-6492259D02*
X18836659Y-6410941D01*
X18755341Y-6410941D01*
X18755341Y-6492259D01*
X18836659Y-6492259D01*
X19090659Y-6238259D02*
X19090659Y-6156941D01*
X19009341Y-6156941D01*
X19009341Y-6238259D01*
X19090659Y-6238259D01*
X19090659Y-6492259D02*
X19090659Y-6410941D01*
X19009341Y-6410941D01*
X19009341Y-6492259D01*
X19090659Y-6492259D01*
X19344659Y-6238259D02*
X19344659Y-6156941D01*
X19263341Y-6156941D01*
X19263341Y-6238259D01*
X19344659Y-6238259D01*
X19344659Y-6492259D02*
X19344659Y-6410941D01*
X19263341Y-6410941D01*
X19263341Y-6492259D01*
X19344659Y-6492259D01*
X19598659Y-6238259D02*
X19598659Y-6156941D01*
X19517341Y-6156941D01*
X19517341Y-6238259D01*
X19598659Y-6238259D01*
X19598659Y-6492259D02*
X19598659Y-6410941D01*
X19517341Y-6410941D01*
X19517341Y-6492259D01*
X19598659Y-6492259D01*
X19852659Y-6238259D02*
X19852659Y-6156941D01*
X19771341Y-6156941D01*
X19771341Y-6238259D01*
X19852659Y-6238259D01*
X19852659Y-6492259D02*
X19852659Y-6410941D01*
X19771341Y-6410941D01*
X19771341Y-6492259D01*
X19852659Y-6492259D01*
X20106659Y-6238259D02*
X20106659Y-6156941D01*
X20025341Y-6156941D01*
X20025341Y-6238259D01*
X20106659Y-6238259D01*
X20106659Y-6492259D02*
X20106659Y-6410941D01*
X20025341Y-6410941D01*
X20025341Y-6492259D01*
X20106659Y-6492259D01*
D12*
X9173928Y-11110814D02*
X9173928Y-10810814D01*
X9245357Y-10810814D01*
X9288214Y-10825100D01*
X9316786Y-10853672D01*
X9331071Y-10882243D01*
X9345357Y-10939386D01*
X9345357Y-10982243D01*
X9331071Y-11039386D01*
X9316786Y-11067957D01*
X9288214Y-11096529D01*
X9245357Y-11110814D01*
X9173928Y-11110814D01*
X9473928Y-11110814D02*
X9473928Y-10910814D01*
X9473928Y-10967957D02*
X9488214Y-10939386D01*
X9502500Y-10925100D01*
X9531071Y-10910814D01*
X9559643Y-10910814D01*
X9659643Y-11110814D02*
X9659643Y-10910814D01*
X9659643Y-10810814D02*
X9645357Y-10825100D01*
X9659643Y-10839386D01*
X9673928Y-10825100D01*
X9659643Y-10810814D01*
X9659643Y-10839386D01*
X9845357Y-11110814D02*
X9816786Y-11096529D01*
X9802500Y-11067957D01*
X9802500Y-10810814D01*
X10002500Y-11110814D02*
X9973928Y-11096529D01*
X9959643Y-11067957D01*
X9959643Y-10810814D01*
X10345357Y-11110814D02*
X10345357Y-10810814D01*
X10445357Y-11025100D01*
X10545357Y-10810814D01*
X10545357Y-11110814D01*
X10816786Y-11110814D02*
X10816786Y-10953672D01*
X10802500Y-10925100D01*
X10773928Y-10910814D01*
X10716786Y-10910814D01*
X10688214Y-10925100D01*
X10816786Y-11096529D02*
X10788214Y-11110814D01*
X10716786Y-11110814D01*
X10688214Y-11096529D01*
X10673928Y-11067957D01*
X10673928Y-11039386D01*
X10688214Y-11010814D01*
X10716786Y-10996529D01*
X10788214Y-10996529D01*
X10816786Y-10982243D01*
X10959643Y-10910814D02*
X10959643Y-11210814D01*
X10959643Y-10925100D02*
X10988214Y-10910814D01*
X11045357Y-10910814D01*
X11073928Y-10925100D01*
X11088214Y-10939386D01*
X11102500Y-10967957D01*
X11102500Y-11053672D01*
X11088214Y-11082243D01*
X11073928Y-11096529D01*
X11045357Y-11110814D01*
X10988214Y-11110814D01*
X10959643Y-11096529D01*
X11231071Y-11082243D02*
X11245357Y-11096529D01*
X11231071Y-11110814D01*
X11216786Y-11096529D01*
X11231071Y-11082243D01*
X11231071Y-11110814D01*
X11231071Y-10925100D02*
X11245357Y-10939386D01*
X11231071Y-10953672D01*
X11216786Y-10939386D01*
X11231071Y-10925100D01*
X11231071Y-10953672D01*
X8847500Y-11585100D02*
X8887500Y-11625100D01*
X8887500Y-11585100D02*
X8847500Y-11625100D01*
X9231071Y-11440814D02*
X9259643Y-11440814D01*
X9288214Y-11455100D01*
X9302500Y-11469386D01*
X9316786Y-11497957D01*
X9331071Y-11555100D01*
X9331071Y-11626529D01*
X9316786Y-11683671D01*
X9302500Y-11712243D01*
X9288214Y-11726529D01*
X9259643Y-11740814D01*
X9231071Y-11740814D01*
X9202500Y-11726529D01*
X9188214Y-11712243D01*
X9173928Y-11683671D01*
X9159643Y-11626529D01*
X9159643Y-11555100D01*
X9173928Y-11497957D01*
X9188214Y-11469386D01*
X9202500Y-11455100D01*
X9231071Y-11440814D01*
X9459643Y-11712243D02*
X9473928Y-11726529D01*
X9459643Y-11740814D01*
X9445357Y-11726529D01*
X9459643Y-11712243D01*
X9459643Y-11740814D01*
X9731071Y-11540814D02*
X9731071Y-11740814D01*
X9659643Y-11426529D02*
X9588214Y-11640814D01*
X9773928Y-11640814D01*
X9945357Y-11440814D02*
X9973928Y-11440814D01*
X10002500Y-11455100D01*
X10016786Y-11469386D01*
X10031071Y-11497957D01*
X10045357Y-11555100D01*
X10045357Y-11626529D01*
X10031071Y-11683671D01*
X10016786Y-11712243D01*
X10002500Y-11726529D01*
X9973928Y-11740814D01*
X9945357Y-11740814D01*
X9916786Y-11726529D01*
X9902500Y-11712243D01*
X9888214Y-11683671D01*
X9873928Y-11626529D01*
X9873928Y-11555100D01*
X9888214Y-11497957D01*
X9902500Y-11469386D01*
X9916786Y-11455100D01*
X9945357Y-11440814D01*
X10173928Y-11740814D02*
X10173928Y-11540814D01*
X10173928Y-11569386D02*
X10188214Y-11555100D01*
X10216786Y-11540814D01*
X10259643Y-11540814D01*
X10288214Y-11555100D01*
X10302500Y-11583671D01*
X10302500Y-11740814D01*
X10302500Y-11583671D02*
X10316786Y-11555100D01*
X10345357Y-11540814D01*
X10388214Y-11540814D01*
X10416786Y-11555100D01*
X10431071Y-11583671D01*
X10431071Y-11740814D01*
X10573928Y-11740814D02*
X10573928Y-11540814D01*
X10573928Y-11569386D02*
X10588214Y-11555100D01*
X10616786Y-11540814D01*
X10659643Y-11540814D01*
X10688214Y-11555100D01*
X10702500Y-11583671D01*
X10702500Y-11740814D01*
X10702500Y-11583671D02*
X10716786Y-11555100D01*
X10745357Y-11540814D01*
X10788214Y-11540814D01*
X10816786Y-11555100D01*
X10831071Y-11583671D01*
X10831071Y-11740814D01*
X11416786Y-11426529D02*
X11159643Y-11812243D01*
X11802500Y-11440814D02*
X11831071Y-11440814D01*
X11859643Y-11455100D01*
X11873928Y-11469386D01*
X11888214Y-11497957D01*
X11902500Y-11555100D01*
X11902500Y-11626529D01*
X11888214Y-11683671D01*
X11873928Y-11712243D01*
X11859643Y-11726529D01*
X11831071Y-11740814D01*
X11802500Y-11740814D01*
X11773928Y-11726529D01*
X11759643Y-11712243D01*
X11745357Y-11683671D01*
X11731071Y-11626529D01*
X11731071Y-11555100D01*
X11745357Y-11497957D01*
X11759643Y-11469386D01*
X11773928Y-11455100D01*
X11802500Y-11440814D01*
X12031071Y-11712243D02*
X12045357Y-11726529D01*
X12031071Y-11740814D01*
X12016786Y-11726529D01*
X12031071Y-11712243D01*
X12031071Y-11740814D01*
X12231071Y-11440814D02*
X12259643Y-11440814D01*
X12288214Y-11455100D01*
X12302500Y-11469386D01*
X12316786Y-11497957D01*
X12331071Y-11555100D01*
X12331071Y-11626529D01*
X12316786Y-11683671D01*
X12302500Y-11712243D01*
X12288214Y-11726529D01*
X12259643Y-11740814D01*
X12231071Y-11740814D01*
X12202500Y-11726529D01*
X12188214Y-11712243D01*
X12173928Y-11683671D01*
X12159643Y-11626529D01*
X12159643Y-11555100D01*
X12173928Y-11497957D01*
X12188214Y-11469386D01*
X12202500Y-11455100D01*
X12231071Y-11440814D01*
X12616786Y-11740814D02*
X12445357Y-11740814D01*
X12531071Y-11740814D02*
X12531071Y-11440814D01*
X12502500Y-11483671D01*
X12473928Y-11512243D01*
X12445357Y-11526529D01*
X12873928Y-11440814D02*
X12816786Y-11440814D01*
X12788214Y-11455100D01*
X12773928Y-11469386D01*
X12745357Y-11512243D01*
X12731071Y-11569386D01*
X12731071Y-11683671D01*
X12745357Y-11712243D01*
X12759643Y-11726529D01*
X12788214Y-11740814D01*
X12845357Y-11740814D01*
X12873928Y-11726529D01*
X12888214Y-11712243D01*
X12902500Y-11683671D01*
X12902500Y-11612243D01*
X12888214Y-11583671D01*
X12873928Y-11569386D01*
X12845357Y-11555100D01*
X12788214Y-11555100D01*
X12759643Y-11569386D01*
X12745357Y-11583671D01*
X12731071Y-11612243D01*
X13016786Y-11440814D02*
X13016786Y-11497957D01*
X13131071Y-11440814D02*
X13131071Y-11497957D01*
X13573928Y-11855100D02*
X13559643Y-11840814D01*
X13531071Y-11797957D01*
X13516786Y-11769386D01*
X13502500Y-11726529D01*
X13488214Y-11655100D01*
X13488214Y-11597957D01*
X13502500Y-11526529D01*
X13516786Y-11483671D01*
X13531071Y-11455100D01*
X13559643Y-11412243D01*
X13573928Y-11397957D01*
X13831071Y-11440814D02*
X13688214Y-11440814D01*
X13673928Y-11583671D01*
X13688214Y-11569386D01*
X13716786Y-11555100D01*
X13788214Y-11555100D01*
X13816786Y-11569386D01*
X13831071Y-11583671D01*
X13845357Y-11612243D01*
X13845357Y-11683671D01*
X13831071Y-11712243D01*
X13816786Y-11726529D01*
X13788214Y-11740814D01*
X13716786Y-11740814D01*
X13688214Y-11726529D01*
X13673928Y-11712243D01*
X14116786Y-11440814D02*
X13973928Y-11440814D01*
X13959643Y-11583671D01*
X13973928Y-11569386D01*
X14002500Y-11555100D01*
X14073928Y-11555100D01*
X14102500Y-11569386D01*
X14116786Y-11583671D01*
X14131071Y-11612243D01*
X14131071Y-11683671D01*
X14116786Y-11712243D01*
X14102500Y-11726529D01*
X14073928Y-11740814D01*
X14002500Y-11740814D01*
X13973928Y-11726529D01*
X13959643Y-11712243D01*
X14488214Y-11740814D02*
X14488214Y-11440814D01*
X14616786Y-11740814D02*
X14616786Y-11583671D01*
X14602500Y-11555100D01*
X14573928Y-11540814D01*
X14531071Y-11540814D01*
X14502500Y-11555100D01*
X14488214Y-11569386D01*
X14802500Y-11740814D02*
X14773928Y-11726529D01*
X14759643Y-11712243D01*
X14745357Y-11683671D01*
X14745357Y-11597957D01*
X14759643Y-11569386D01*
X14773928Y-11555100D01*
X14802500Y-11540814D01*
X14845357Y-11540814D01*
X14873928Y-11555100D01*
X14888214Y-11569386D01*
X14902500Y-11597957D01*
X14902500Y-11683671D01*
X14888214Y-11712243D01*
X14873928Y-11726529D01*
X14845357Y-11740814D01*
X14802500Y-11740814D01*
X15073928Y-11740814D02*
X15045357Y-11726529D01*
X15031071Y-11697957D01*
X15031071Y-11440814D01*
X15302500Y-11726529D02*
X15273928Y-11740814D01*
X15216786Y-11740814D01*
X15188214Y-11726529D01*
X15173928Y-11697957D01*
X15173928Y-11583671D01*
X15188214Y-11555100D01*
X15216786Y-11540814D01*
X15273928Y-11540814D01*
X15302500Y-11555100D01*
X15316786Y-11583671D01*
X15316786Y-11612243D01*
X15173928Y-11640814D01*
X15431071Y-11726529D02*
X15459643Y-11740814D01*
X15516786Y-11740814D01*
X15545357Y-11726529D01*
X15559643Y-11697957D01*
X15559643Y-11683671D01*
X15545357Y-11655100D01*
X15516786Y-11640814D01*
X15473928Y-11640814D01*
X15445357Y-11626529D01*
X15431071Y-11597957D01*
X15431071Y-11583671D01*
X15445357Y-11555100D01*
X15473928Y-11540814D01*
X15516786Y-11540814D01*
X15545357Y-11555100D01*
X15659643Y-11855100D02*
X15673928Y-11840814D01*
X15702500Y-11797957D01*
X15716786Y-11769386D01*
X15731071Y-11726529D01*
X15745357Y-11655100D01*
X15745357Y-11597957D01*
X15731071Y-11526529D01*
X15716786Y-11483671D01*
X15702500Y-11455100D01*
X15673928Y-11412243D01*
X15659643Y-11397957D01*
X8887500Y-12001100D02*
G75*
G03*
X8887500Y-12001100I-50000J0D01*
G01*
X9331071Y-12136814D02*
X9159643Y-12136814D01*
X9245357Y-12136814D02*
X9245357Y-11836814D01*
X9216786Y-11879671D01*
X9188214Y-11908243D01*
X9159643Y-11922529D01*
X9459643Y-12108243D02*
X9473928Y-12122529D01*
X9459643Y-12136814D01*
X9445357Y-12122529D01*
X9459643Y-12108243D01*
X9459643Y-12136814D01*
X9659643Y-11836814D02*
X9688214Y-11836814D01*
X9716786Y-11851100D01*
X9731071Y-11865386D01*
X9745357Y-11893957D01*
X9759643Y-11951100D01*
X9759643Y-12022529D01*
X9745357Y-12079671D01*
X9731071Y-12108243D01*
X9716786Y-12122529D01*
X9688214Y-12136814D01*
X9659643Y-12136814D01*
X9631071Y-12122529D01*
X9616786Y-12108243D01*
X9602500Y-12079671D01*
X9588214Y-12022529D01*
X9588214Y-11951100D01*
X9602500Y-11893957D01*
X9616786Y-11865386D01*
X9631071Y-11851100D01*
X9659643Y-11836814D01*
X9945357Y-11836814D02*
X9973928Y-11836814D01*
X10002500Y-11851100D01*
X10016786Y-11865386D01*
X10031071Y-11893957D01*
X10045357Y-11951100D01*
X10045357Y-12022529D01*
X10031071Y-12079671D01*
X10016786Y-12108243D01*
X10002500Y-12122529D01*
X9973928Y-12136814D01*
X9945357Y-12136814D01*
X9916786Y-12122529D01*
X9902500Y-12108243D01*
X9888214Y-12079671D01*
X9873928Y-12022529D01*
X9873928Y-11951100D01*
X9888214Y-11893957D01*
X9902500Y-11865386D01*
X9916786Y-11851100D01*
X9945357Y-11836814D01*
X10173928Y-12136814D02*
X10173928Y-11936814D01*
X10173928Y-11965386D02*
X10188214Y-11951100D01*
X10216786Y-11936814D01*
X10259643Y-11936814D01*
X10288214Y-11951100D01*
X10302500Y-11979671D01*
X10302500Y-12136814D01*
X10302500Y-11979671D02*
X10316786Y-11951100D01*
X10345357Y-11936814D01*
X10388214Y-11936814D01*
X10416786Y-11951100D01*
X10431071Y-11979671D01*
X10431071Y-12136814D01*
X10573928Y-12136814D02*
X10573928Y-11936814D01*
X10573928Y-11965386D02*
X10588214Y-11951100D01*
X10616786Y-11936814D01*
X10659643Y-11936814D01*
X10688214Y-11951100D01*
X10702500Y-11979671D01*
X10702500Y-12136814D01*
X10702500Y-11979671D02*
X10716786Y-11951100D01*
X10745357Y-11936814D01*
X10788214Y-11936814D01*
X10816786Y-11951100D01*
X10831071Y-11979671D01*
X10831071Y-12136814D01*
X11416786Y-11822529D02*
X11159643Y-12208243D01*
X11802500Y-11836814D02*
X11831071Y-11836814D01*
X11859643Y-11851100D01*
X11873928Y-11865386D01*
X11888214Y-11893957D01*
X11902500Y-11951100D01*
X11902500Y-12022529D01*
X11888214Y-12079671D01*
X11873928Y-12108243D01*
X11859643Y-12122529D01*
X11831071Y-12136814D01*
X11802500Y-12136814D01*
X11773928Y-12122529D01*
X11759643Y-12108243D01*
X11745357Y-12079671D01*
X11731071Y-12022529D01*
X11731071Y-11951100D01*
X11745357Y-11893957D01*
X11759643Y-11865386D01*
X11773928Y-11851100D01*
X11802500Y-11836814D01*
X12031071Y-12108243D02*
X12045357Y-12122529D01*
X12031071Y-12136814D01*
X12016786Y-12122529D01*
X12031071Y-12108243D01*
X12031071Y-12136814D01*
X12231071Y-11836814D02*
X12259643Y-11836814D01*
X12288214Y-11851100D01*
X12302500Y-11865386D01*
X12316786Y-11893957D01*
X12331071Y-11951100D01*
X12331071Y-12022529D01*
X12316786Y-12079671D01*
X12302500Y-12108243D01*
X12288214Y-12122529D01*
X12259643Y-12136814D01*
X12231071Y-12136814D01*
X12202500Y-12122529D01*
X12188214Y-12108243D01*
X12173928Y-12079671D01*
X12159643Y-12022529D01*
X12159643Y-11951100D01*
X12173928Y-11893957D01*
X12188214Y-11865386D01*
X12202500Y-11851100D01*
X12231071Y-11836814D01*
X12431071Y-11836814D02*
X12616786Y-11836814D01*
X12516786Y-11951100D01*
X12559643Y-11951100D01*
X12588214Y-11965386D01*
X12602500Y-11979671D01*
X12616786Y-12008243D01*
X12616786Y-12079671D01*
X12602500Y-12108243D01*
X12588214Y-12122529D01*
X12559643Y-12136814D01*
X12473928Y-12136814D01*
X12445357Y-12122529D01*
X12431071Y-12108243D01*
X12759643Y-12136814D02*
X12816786Y-12136814D01*
X12845357Y-12122529D01*
X12859643Y-12108243D01*
X12888214Y-12065386D01*
X12902500Y-12008243D01*
X12902500Y-11893957D01*
X12888214Y-11865386D01*
X12873928Y-11851100D01*
X12845357Y-11836814D01*
X12788214Y-11836814D01*
X12759643Y-11851100D01*
X12745357Y-11865386D01*
X12731071Y-11893957D01*
X12731071Y-11965386D01*
X12745357Y-11993957D01*
X12759643Y-12008243D01*
X12788214Y-12022529D01*
X12845357Y-12022529D01*
X12873928Y-12008243D01*
X12888214Y-11993957D01*
X12902500Y-11965386D01*
X13016786Y-11836814D02*
X13016786Y-11893957D01*
X13131071Y-11836814D02*
X13131071Y-11893957D01*
X13573928Y-12251100D02*
X13559643Y-12236814D01*
X13531071Y-12193957D01*
X13516786Y-12165386D01*
X13502500Y-12122529D01*
X13488214Y-12051100D01*
X13488214Y-11993957D01*
X13502500Y-11922529D01*
X13516786Y-11879671D01*
X13531071Y-11851100D01*
X13559643Y-11808243D01*
X13573928Y-11793957D01*
X13673928Y-11865386D02*
X13688214Y-11851100D01*
X13716786Y-11836814D01*
X13788214Y-11836814D01*
X13816786Y-11851100D01*
X13831071Y-11865386D01*
X13845357Y-11893957D01*
X13845357Y-11922529D01*
X13831071Y-11965386D01*
X13659643Y-12136814D01*
X13845357Y-12136814D01*
X14202500Y-12136814D02*
X14202500Y-11836814D01*
X14331071Y-12136814D02*
X14331071Y-11979671D01*
X14316786Y-11951100D01*
X14288214Y-11936814D01*
X14245357Y-11936814D01*
X14216786Y-11951100D01*
X14202500Y-11965386D01*
X14516786Y-12136814D02*
X14488214Y-12122529D01*
X14473928Y-12108243D01*
X14459643Y-12079671D01*
X14459643Y-11993957D01*
X14473928Y-11965386D01*
X14488214Y-11951100D01*
X14516786Y-11936814D01*
X14559643Y-11936814D01*
X14588214Y-11951100D01*
X14602500Y-11965386D01*
X14616786Y-11993957D01*
X14616786Y-12079671D01*
X14602500Y-12108243D01*
X14588214Y-12122529D01*
X14559643Y-12136814D01*
X14516786Y-12136814D01*
X14788214Y-12136814D02*
X14759643Y-12122529D01*
X14745357Y-12093957D01*
X14745357Y-11836814D01*
X15016786Y-12122529D02*
X14988214Y-12136814D01*
X14931071Y-12136814D01*
X14902500Y-12122529D01*
X14888214Y-12093957D01*
X14888214Y-11979671D01*
X14902500Y-11951100D01*
X14931071Y-11936814D01*
X14988214Y-11936814D01*
X15016786Y-11951100D01*
X15031071Y-11979671D01*
X15031071Y-12008243D01*
X14888214Y-12036814D01*
X15145357Y-12122529D02*
X15173928Y-12136814D01*
X15231071Y-12136814D01*
X15259643Y-12122529D01*
X15273928Y-12093957D01*
X15273928Y-12079671D01*
X15259643Y-12051100D01*
X15231071Y-12036814D01*
X15188214Y-12036814D01*
X15159643Y-12022529D01*
X15145357Y-11993957D01*
X15145357Y-11979671D01*
X15159643Y-11951100D01*
X15188214Y-11936814D01*
X15231071Y-11936814D01*
X15259643Y-11951100D01*
X15373928Y-12251100D02*
X15388214Y-12236814D01*
X15416786Y-12193957D01*
X15431071Y-12165386D01*
X15445357Y-12122529D01*
X15459643Y-12051100D01*
X15459643Y-11993957D01*
X15445357Y-11922529D01*
X15431071Y-11879671D01*
X15416786Y-11851100D01*
X15388214Y-11808243D01*
X15373928Y-11793957D01*
X8832890Y-12342490D02*
X8832890Y-12451710D01*
X8778280Y-12397100D02*
X8887500Y-12397100D01*
X9331071Y-12532814D02*
X9159643Y-12532814D01*
X9245357Y-12532814D02*
X9245357Y-12232814D01*
X9216786Y-12275671D01*
X9188214Y-12304243D01*
X9159643Y-12318529D01*
X9459643Y-12504243D02*
X9473928Y-12518529D01*
X9459643Y-12532814D01*
X9445357Y-12518529D01*
X9459643Y-12504243D01*
X9459643Y-12532814D01*
X9659643Y-12232814D02*
X9688214Y-12232814D01*
X9716786Y-12247100D01*
X9731071Y-12261386D01*
X9745357Y-12289957D01*
X9759643Y-12347100D01*
X9759643Y-12418529D01*
X9745357Y-12475671D01*
X9731071Y-12504243D01*
X9716786Y-12518529D01*
X9688214Y-12532814D01*
X9659643Y-12532814D01*
X9631071Y-12518529D01*
X9616786Y-12504243D01*
X9602500Y-12475671D01*
X9588214Y-12418529D01*
X9588214Y-12347100D01*
X9602500Y-12289957D01*
X9616786Y-12261386D01*
X9631071Y-12247100D01*
X9659643Y-12232814D01*
X9902500Y-12532814D02*
X9959643Y-12532814D01*
X9988214Y-12518529D01*
X10002500Y-12504243D01*
X10031071Y-12461386D01*
X10045357Y-12404243D01*
X10045357Y-12289957D01*
X10031071Y-12261386D01*
X10016786Y-12247100D01*
X9988214Y-12232814D01*
X9931071Y-12232814D01*
X9902500Y-12247100D01*
X9888214Y-12261386D01*
X9873928Y-12289957D01*
X9873928Y-12361386D01*
X9888214Y-12389957D01*
X9902500Y-12404243D01*
X9931071Y-12418529D01*
X9988214Y-12418529D01*
X10016786Y-12404243D01*
X10031071Y-12389957D01*
X10045357Y-12361386D01*
X10173928Y-12532814D02*
X10173928Y-12332814D01*
X10173928Y-12361386D02*
X10188214Y-12347100D01*
X10216786Y-12332814D01*
X10259643Y-12332814D01*
X10288214Y-12347100D01*
X10302500Y-12375671D01*
X10302500Y-12532814D01*
X10302500Y-12375671D02*
X10316786Y-12347100D01*
X10345357Y-12332814D01*
X10388214Y-12332814D01*
X10416786Y-12347100D01*
X10431071Y-12375671D01*
X10431071Y-12532814D01*
X10573928Y-12532814D02*
X10573928Y-12332814D01*
X10573928Y-12361386D02*
X10588214Y-12347100D01*
X10616786Y-12332814D01*
X10659643Y-12332814D01*
X10688214Y-12347100D01*
X10702500Y-12375671D01*
X10702500Y-12532814D01*
X10702500Y-12375671D02*
X10716786Y-12347100D01*
X10745357Y-12332814D01*
X10788214Y-12332814D01*
X10816786Y-12347100D01*
X10831071Y-12375671D01*
X10831071Y-12532814D01*
X11416786Y-12218529D02*
X11159643Y-12604243D01*
X11802500Y-12232814D02*
X11831071Y-12232814D01*
X11859643Y-12247100D01*
X11873928Y-12261386D01*
X11888214Y-12289957D01*
X11902500Y-12347100D01*
X11902500Y-12418529D01*
X11888214Y-12475671D01*
X11873928Y-12504243D01*
X11859643Y-12518529D01*
X11831071Y-12532814D01*
X11802500Y-12532814D01*
X11773928Y-12518529D01*
X11759643Y-12504243D01*
X11745357Y-12475671D01*
X11731071Y-12418529D01*
X11731071Y-12347100D01*
X11745357Y-12289957D01*
X11759643Y-12261386D01*
X11773928Y-12247100D01*
X11802500Y-12232814D01*
X12031071Y-12504243D02*
X12045357Y-12518529D01*
X12031071Y-12532814D01*
X12016786Y-12518529D01*
X12031071Y-12504243D01*
X12031071Y-12532814D01*
X12231071Y-12232814D02*
X12259643Y-12232814D01*
X12288214Y-12247100D01*
X12302500Y-12261386D01*
X12316786Y-12289957D01*
X12331071Y-12347100D01*
X12331071Y-12418529D01*
X12316786Y-12475671D01*
X12302500Y-12504243D01*
X12288214Y-12518529D01*
X12259643Y-12532814D01*
X12231071Y-12532814D01*
X12202500Y-12518529D01*
X12188214Y-12504243D01*
X12173928Y-12475671D01*
X12159643Y-12418529D01*
X12159643Y-12347100D01*
X12173928Y-12289957D01*
X12188214Y-12261386D01*
X12202500Y-12247100D01*
X12231071Y-12232814D01*
X12588214Y-12332814D02*
X12588214Y-12532814D01*
X12516786Y-12218529D02*
X12445357Y-12432814D01*
X12631071Y-12432814D01*
X12716786Y-12232814D02*
X12902500Y-12232814D01*
X12802500Y-12347100D01*
X12845357Y-12347100D01*
X12873928Y-12361386D01*
X12888214Y-12375671D01*
X12902500Y-12404243D01*
X12902500Y-12475671D01*
X12888214Y-12504243D01*
X12873928Y-12518529D01*
X12845357Y-12532814D01*
X12759643Y-12532814D01*
X12731071Y-12518529D01*
X12716786Y-12504243D01*
X13016786Y-12232814D02*
X13016786Y-12289957D01*
X13131071Y-12232814D02*
X13131071Y-12289957D01*
X13573928Y-12647100D02*
X13559643Y-12632814D01*
X13531071Y-12589957D01*
X13516786Y-12561386D01*
X13502500Y-12518529D01*
X13488214Y-12447100D01*
X13488214Y-12389957D01*
X13502500Y-12318529D01*
X13516786Y-12275671D01*
X13531071Y-12247100D01*
X13559643Y-12204243D01*
X13573928Y-12189957D01*
X13731071Y-12361386D02*
X13702500Y-12347100D01*
X13688214Y-12332814D01*
X13673928Y-12304243D01*
X13673928Y-12289957D01*
X13688214Y-12261386D01*
X13702500Y-12247100D01*
X13731071Y-12232814D01*
X13788214Y-12232814D01*
X13816786Y-12247100D01*
X13831071Y-12261386D01*
X13845357Y-12289957D01*
X13845357Y-12304243D01*
X13831071Y-12332814D01*
X13816786Y-12347100D01*
X13788214Y-12361386D01*
X13731071Y-12361386D01*
X13702500Y-12375671D01*
X13688214Y-12389957D01*
X13673928Y-12418529D01*
X13673928Y-12475671D01*
X13688214Y-12504243D01*
X13702500Y-12518529D01*
X13731071Y-12532814D01*
X13788214Y-12532814D01*
X13816786Y-12518529D01*
X13831071Y-12504243D01*
X13845357Y-12475671D01*
X13845357Y-12418529D01*
X13831071Y-12389957D01*
X13816786Y-12375671D01*
X13788214Y-12361386D01*
X14102500Y-12232814D02*
X14045357Y-12232814D01*
X14016786Y-12247100D01*
X14002500Y-12261386D01*
X13973928Y-12304243D01*
X13959643Y-12361386D01*
X13959643Y-12475671D01*
X13973928Y-12504243D01*
X13988214Y-12518529D01*
X14016786Y-12532814D01*
X14073928Y-12532814D01*
X14102500Y-12518529D01*
X14116786Y-12504243D01*
X14131071Y-12475671D01*
X14131071Y-12404243D01*
X14116786Y-12375671D01*
X14102500Y-12361386D01*
X14073928Y-12347100D01*
X14016786Y-12347100D01*
X13988214Y-12361386D01*
X13973928Y-12375671D01*
X13959643Y-12404243D01*
X14488214Y-12532814D02*
X14488214Y-12232814D01*
X14616786Y-12532814D02*
X14616786Y-12375671D01*
X14602500Y-12347100D01*
X14573928Y-12332814D01*
X14531071Y-12332814D01*
X14502500Y-12347100D01*
X14488214Y-12361386D01*
X14802500Y-12532814D02*
X14773928Y-12518529D01*
X14759643Y-12504243D01*
X14745357Y-12475671D01*
X14745357Y-12389957D01*
X14759643Y-12361386D01*
X14773928Y-12347100D01*
X14802500Y-12332814D01*
X14845357Y-12332814D01*
X14873928Y-12347100D01*
X14888214Y-12361386D01*
X14902500Y-12389957D01*
X14902500Y-12475671D01*
X14888214Y-12504243D01*
X14873928Y-12518529D01*
X14845357Y-12532814D01*
X14802500Y-12532814D01*
X15073928Y-12532814D02*
X15045357Y-12518529D01*
X15031071Y-12489957D01*
X15031071Y-12232814D01*
X15302500Y-12518529D02*
X15273928Y-12532814D01*
X15216786Y-12532814D01*
X15188214Y-12518529D01*
X15173928Y-12489957D01*
X15173928Y-12375671D01*
X15188214Y-12347100D01*
X15216786Y-12332814D01*
X15273928Y-12332814D01*
X15302500Y-12347100D01*
X15316786Y-12375671D01*
X15316786Y-12404243D01*
X15173928Y-12432814D01*
X15431071Y-12518529D02*
X15459643Y-12532814D01*
X15516786Y-12532814D01*
X15545357Y-12518529D01*
X15559643Y-12489957D01*
X15559643Y-12475671D01*
X15545357Y-12447100D01*
X15516786Y-12432814D01*
X15473928Y-12432814D01*
X15445357Y-12418529D01*
X15431071Y-12389957D01*
X15431071Y-12375671D01*
X15445357Y-12347100D01*
X15473928Y-12332814D01*
X15516786Y-12332814D01*
X15545357Y-12347100D01*
X15659643Y-12647100D02*
X15673928Y-12632814D01*
X15702500Y-12589957D01*
X15716786Y-12561386D01*
X15731071Y-12518529D01*
X15745357Y-12447100D01*
X15745357Y-12389957D01*
X15731071Y-12318529D01*
X15716786Y-12275671D01*
X15702500Y-12247100D01*
X15673928Y-12204243D01*
X15659643Y-12189957D01*
X8870659Y-12833759D02*
X8870659Y-12752441D01*
X8789341Y-12752441D01*
X8789341Y-12833759D01*
X8870659Y-12833759D01*
X9331071Y-12928814D02*
X9159643Y-12928814D01*
X9245357Y-12928814D02*
X9245357Y-12628814D01*
X9216786Y-12671671D01*
X9188214Y-12700243D01*
X9159643Y-12714529D01*
X9459643Y-12900243D02*
X9473928Y-12914529D01*
X9459643Y-12928814D01*
X9445357Y-12914529D01*
X9459643Y-12900243D01*
X9459643Y-12928814D01*
X9759643Y-12928814D02*
X9588214Y-12928814D01*
X9673928Y-12928814D02*
X9673928Y-12628814D01*
X9645357Y-12671671D01*
X9616786Y-12700243D01*
X9588214Y-12714529D01*
X10031071Y-12628814D02*
X9888214Y-12628814D01*
X9873928Y-12771671D01*
X9888214Y-12757386D01*
X9916786Y-12743100D01*
X9988214Y-12743100D01*
X10016786Y-12757386D01*
X10031071Y-12771671D01*
X10045357Y-12800243D01*
X10045357Y-12871671D01*
X10031071Y-12900243D01*
X10016786Y-12914529D01*
X9988214Y-12928814D01*
X9916786Y-12928814D01*
X9888214Y-12914529D01*
X9873928Y-12900243D01*
X10173928Y-12928814D02*
X10173928Y-12728814D01*
X10173928Y-12757386D02*
X10188214Y-12743100D01*
X10216786Y-12728814D01*
X10259643Y-12728814D01*
X10288214Y-12743100D01*
X10302500Y-12771671D01*
X10302500Y-12928814D01*
X10302500Y-12771671D02*
X10316786Y-12743100D01*
X10345357Y-12728814D01*
X10388214Y-12728814D01*
X10416786Y-12743100D01*
X10431071Y-12771671D01*
X10431071Y-12928814D01*
X10573928Y-12928814D02*
X10573928Y-12728814D01*
X10573928Y-12757386D02*
X10588214Y-12743100D01*
X10616786Y-12728814D01*
X10659643Y-12728814D01*
X10688214Y-12743100D01*
X10702500Y-12771671D01*
X10702500Y-12928814D01*
X10702500Y-12771671D02*
X10716786Y-12743100D01*
X10745357Y-12728814D01*
X10788214Y-12728814D01*
X10816786Y-12743100D01*
X10831071Y-12771671D01*
X10831071Y-12928814D01*
X11416786Y-12614529D02*
X11159643Y-13000243D01*
X11802500Y-12628814D02*
X11831071Y-12628814D01*
X11859643Y-12643100D01*
X11873928Y-12657386D01*
X11888214Y-12685957D01*
X11902500Y-12743100D01*
X11902500Y-12814529D01*
X11888214Y-12871671D01*
X11873928Y-12900243D01*
X11859643Y-12914529D01*
X11831071Y-12928814D01*
X11802500Y-12928814D01*
X11773928Y-12914529D01*
X11759643Y-12900243D01*
X11745357Y-12871671D01*
X11731071Y-12814529D01*
X11731071Y-12743100D01*
X11745357Y-12685957D01*
X11759643Y-12657386D01*
X11773928Y-12643100D01*
X11802500Y-12628814D01*
X12031071Y-12900243D02*
X12045357Y-12914529D01*
X12031071Y-12928814D01*
X12016786Y-12914529D01*
X12031071Y-12900243D01*
X12031071Y-12928814D01*
X12231071Y-12628814D02*
X12259643Y-12628814D01*
X12288214Y-12643100D01*
X12302500Y-12657386D01*
X12316786Y-12685957D01*
X12331071Y-12743100D01*
X12331071Y-12814529D01*
X12316786Y-12871671D01*
X12302500Y-12900243D01*
X12288214Y-12914529D01*
X12259643Y-12928814D01*
X12231071Y-12928814D01*
X12202500Y-12914529D01*
X12188214Y-12900243D01*
X12173928Y-12871671D01*
X12159643Y-12814529D01*
X12159643Y-12743100D01*
X12173928Y-12685957D01*
X12188214Y-12657386D01*
X12202500Y-12643100D01*
X12231071Y-12628814D01*
X12588214Y-12728814D02*
X12588214Y-12928814D01*
X12516786Y-12614529D02*
X12445357Y-12828814D01*
X12631071Y-12828814D01*
X12888214Y-12628814D02*
X12745357Y-12628814D01*
X12731071Y-12771671D01*
X12745357Y-12757386D01*
X12773928Y-12743100D01*
X12845357Y-12743100D01*
X12873928Y-12757386D01*
X12888214Y-12771671D01*
X12902500Y-12800243D01*
X12902500Y-12871671D01*
X12888214Y-12900243D01*
X12873928Y-12914529D01*
X12845357Y-12928814D01*
X12773928Y-12928814D01*
X12745357Y-12914529D01*
X12731071Y-12900243D01*
X13016786Y-12628814D02*
X13016786Y-12685957D01*
X13131071Y-12628814D02*
X13131071Y-12685957D01*
X13573928Y-13043100D02*
X13559643Y-13028814D01*
X13531071Y-12985957D01*
X13516786Y-12957386D01*
X13502500Y-12914529D01*
X13488214Y-12843100D01*
X13488214Y-12785957D01*
X13502500Y-12714529D01*
X13516786Y-12671671D01*
X13531071Y-12643100D01*
X13559643Y-12600243D01*
X13573928Y-12585957D01*
X13816786Y-12728814D02*
X13816786Y-12928814D01*
X13745357Y-12614529D02*
X13673928Y-12828814D01*
X13859643Y-12828814D01*
X14031071Y-12628814D02*
X14059643Y-12628814D01*
X14088214Y-12643100D01*
X14102500Y-12657386D01*
X14116786Y-12685957D01*
X14131071Y-12743100D01*
X14131071Y-12814529D01*
X14116786Y-12871671D01*
X14102500Y-12900243D01*
X14088214Y-12914529D01*
X14059643Y-12928814D01*
X14031071Y-12928814D01*
X14002500Y-12914529D01*
X13988214Y-12900243D01*
X13973928Y-12871671D01*
X13959643Y-12814529D01*
X13959643Y-12743100D01*
X13973928Y-12685957D01*
X13988214Y-12657386D01*
X14002500Y-12643100D01*
X14031071Y-12628814D01*
X14488214Y-12928814D02*
X14488214Y-12628814D01*
X14616786Y-12928814D02*
X14616786Y-12771671D01*
X14602500Y-12743100D01*
X14573928Y-12728814D01*
X14531071Y-12728814D01*
X14502500Y-12743100D01*
X14488214Y-12757386D01*
X14802500Y-12928814D02*
X14773928Y-12914529D01*
X14759643Y-12900243D01*
X14745357Y-12871671D01*
X14745357Y-12785957D01*
X14759643Y-12757386D01*
X14773928Y-12743100D01*
X14802500Y-12728814D01*
X14845357Y-12728814D01*
X14873928Y-12743100D01*
X14888214Y-12757386D01*
X14902500Y-12785957D01*
X14902500Y-12871671D01*
X14888214Y-12900243D01*
X14873928Y-12914529D01*
X14845357Y-12928814D01*
X14802500Y-12928814D01*
X15073928Y-12928814D02*
X15045357Y-12914529D01*
X15031071Y-12885957D01*
X15031071Y-12628814D01*
X15302500Y-12914529D02*
X15273928Y-12928814D01*
X15216786Y-12928814D01*
X15188214Y-12914529D01*
X15173928Y-12885957D01*
X15173928Y-12771671D01*
X15188214Y-12743100D01*
X15216786Y-12728814D01*
X15273928Y-12728814D01*
X15302500Y-12743100D01*
X15316786Y-12771671D01*
X15316786Y-12800243D01*
X15173928Y-12828814D01*
X15431071Y-12914529D02*
X15459643Y-12928814D01*
X15516786Y-12928814D01*
X15545357Y-12914529D01*
X15559643Y-12885957D01*
X15559643Y-12871671D01*
X15545357Y-12843100D01*
X15516786Y-12828814D01*
X15473928Y-12828814D01*
X15445357Y-12814529D01*
X15431071Y-12785957D01*
X15431071Y-12771671D01*
X15445357Y-12743100D01*
X15473928Y-12728814D01*
X15516786Y-12728814D01*
X15545357Y-12743100D01*
X15659643Y-13043100D02*
X15673928Y-13028814D01*
X15702500Y-12985957D01*
X15716786Y-12957386D01*
X15731071Y-12914529D01*
X15745357Y-12843100D01*
X15745357Y-12785957D01*
X15731071Y-12714529D01*
X15716786Y-12671671D01*
X15702500Y-12643100D01*
X15673928Y-12600243D01*
X15659643Y-12585957D01*
M02*
