%TF.GenerationSoftware,KiCad,Pcbnew,(5.1.6)-1*%
%TF.CreationDate,2022-03-09T09:08:40-05:00*%
%TF.ProjectId,a500hdd-remake,61353030-6864-4642-9d72-656d616b652e,rev?*%
%TF.SameCoordinates,Original*%
%TF.FileFunction,Soldermask,Bot*%
%TF.FilePolarity,Negative*%
%FSLAX46Y46*%
G04 Gerber Fmt 4.6, Leading zero omitted, Abs format (unit mm)*
G04 Created by KiCad (PCBNEW (5.1.6)-1) date 2022-03-09 09:08:40*
%MOMM*%
%LPD*%
G01*
G04 APERTURE LIST*
%ADD10C,1.738300*%
%ADD11R,1.738300X1.738300*%
%ADD12R,1.825000X1.825000*%
%ADD13C,1.825000*%
%ADD14R,1.800000X1.800000*%
%ADD15O,1.800000X1.800000*%
%ADD16R,0.550000X1.000000*%
G04 APERTURE END LIST*
D10*
%TO.C,BUS1*%
X94255001Y-103386301D03*
X94255001Y-98534901D03*
X96795001Y-103386301D03*
X96795001Y-98534901D03*
X99335001Y-103386301D03*
X99335001Y-98534901D03*
X101875001Y-103386301D03*
X101875001Y-98534901D03*
X104415001Y-103386301D03*
X104415001Y-98534901D03*
X106955001Y-103386301D03*
X106955001Y-98534901D03*
X109495001Y-103386301D03*
X109495001Y-98534901D03*
X112035001Y-103386301D03*
X112035001Y-98534901D03*
X114575001Y-103386301D03*
X114575001Y-98534901D03*
X117115001Y-103386301D03*
X117115001Y-98534901D03*
X119655001Y-103386301D03*
X119655001Y-98534901D03*
X122195001Y-103386301D03*
X122195001Y-98534901D03*
X124735001Y-103386301D03*
X124735001Y-98534901D03*
X127275001Y-103386301D03*
X127275001Y-98534901D03*
X129815001Y-103386301D03*
X129815001Y-98534901D03*
X132355001Y-103386301D03*
X132355001Y-98534901D03*
X134895001Y-103386301D03*
X134895001Y-98534901D03*
X137435001Y-103386301D03*
X137435001Y-98534901D03*
X139975001Y-103386301D03*
X139975001Y-98534901D03*
X142515001Y-103386301D03*
X142515001Y-98534901D03*
X145055001Y-103386301D03*
X145055001Y-98534901D03*
X147595001Y-103386301D03*
X147595001Y-98534901D03*
X150135001Y-103386301D03*
X150135001Y-98534901D03*
X152675001Y-103386301D03*
X152675001Y-98534901D03*
X155215001Y-103386301D03*
X155215001Y-98534901D03*
X157755001Y-103386301D03*
X157755001Y-98534901D03*
X160295001Y-103386301D03*
X160295001Y-98534901D03*
X162835001Y-103386301D03*
X162835001Y-98534901D03*
X165375001Y-103386301D03*
X165375001Y-98534901D03*
X167915001Y-103386301D03*
X167915001Y-98534901D03*
X170455001Y-103386301D03*
X170455001Y-98534901D03*
X172995001Y-103386301D03*
X172995001Y-98534901D03*
X175535001Y-103386301D03*
X175535001Y-98534901D03*
X178075001Y-103386301D03*
X178075001Y-98534901D03*
X180615001Y-103386301D03*
X180615001Y-98534901D03*
X183155001Y-103386301D03*
X183155001Y-98534901D03*
X185695001Y-103386301D03*
X185695001Y-98534901D03*
X188235001Y-103386301D03*
X188235001Y-98534901D03*
X190775001Y-103386301D03*
X190775001Y-98534901D03*
X193315001Y-103386301D03*
X193315001Y-98534901D03*
X195855001Y-103386301D03*
X195855001Y-98534901D03*
X198395001Y-103386301D03*
X198395001Y-98534901D03*
X200935001Y-103386301D03*
D11*
X200935001Y-98534901D03*
%TD*%
%TO.C,C1*%
G36*
G01*
X140327000Y-72868262D02*
X140327000Y-71911738D01*
G75*
G02*
X140598738Y-71640000I271738J0D01*
G01*
X141305262Y-71640000D01*
G75*
G02*
X141577000Y-71911738I0J-271738D01*
G01*
X141577000Y-72868262D01*
G75*
G02*
X141305262Y-73140000I-271738J0D01*
G01*
X140598738Y-73140000D01*
G75*
G02*
X140327000Y-72868262I0J271738D01*
G01*
G37*
G36*
G01*
X142377000Y-72868262D02*
X142377000Y-71911738D01*
G75*
G02*
X142648738Y-71640000I271738J0D01*
G01*
X143355262Y-71640000D01*
G75*
G02*
X143627000Y-71911738I0J-271738D01*
G01*
X143627000Y-72868262D01*
G75*
G02*
X143355262Y-73140000I-271738J0D01*
G01*
X142648738Y-73140000D01*
G75*
G02*
X142377000Y-72868262I0J271738D01*
G01*
G37*
%TD*%
%TO.C,C2*%
G36*
G01*
X130185000Y-83790262D02*
X130185000Y-82833738D01*
G75*
G02*
X130456738Y-82562000I271738J0D01*
G01*
X131163262Y-82562000D01*
G75*
G02*
X131435000Y-82833738I0J-271738D01*
G01*
X131435000Y-83790262D01*
G75*
G02*
X131163262Y-84062000I-271738J0D01*
G01*
X130456738Y-84062000D01*
G75*
G02*
X130185000Y-83790262I0J271738D01*
G01*
G37*
G36*
G01*
X128135000Y-83790262D02*
X128135000Y-82833738D01*
G75*
G02*
X128406738Y-82562000I271738J0D01*
G01*
X129113262Y-82562000D01*
G75*
G02*
X129385000Y-82833738I0J-271738D01*
G01*
X129385000Y-83790262D01*
G75*
G02*
X129113262Y-84062000I-271738J0D01*
G01*
X128406738Y-84062000D01*
G75*
G02*
X128135000Y-83790262I0J271738D01*
G01*
G37*
%TD*%
%TO.C,C3*%
G36*
G01*
X128144000Y-72868262D02*
X128144000Y-71911738D01*
G75*
G02*
X128415738Y-71640000I271738J0D01*
G01*
X129122262Y-71640000D01*
G75*
G02*
X129394000Y-71911738I0J-271738D01*
G01*
X129394000Y-72868262D01*
G75*
G02*
X129122262Y-73140000I-271738J0D01*
G01*
X128415738Y-73140000D01*
G75*
G02*
X128144000Y-72868262I0J271738D01*
G01*
G37*
G36*
G01*
X130194000Y-72868262D02*
X130194000Y-71911738D01*
G75*
G02*
X130465738Y-71640000I271738J0D01*
G01*
X131172262Y-71640000D01*
G75*
G02*
X131444000Y-71911738I0J-271738D01*
G01*
X131444000Y-72868262D01*
G75*
G02*
X131172262Y-73140000I-271738J0D01*
G01*
X130465738Y-73140000D01*
G75*
G02*
X130194000Y-72868262I0J271738D01*
G01*
G37*
%TD*%
%TO.C,C4*%
G36*
G01*
X144047738Y-63646000D02*
X145004262Y-63646000D01*
G75*
G02*
X145276000Y-63917738I0J-271738D01*
G01*
X145276000Y-64624262D01*
G75*
G02*
X145004262Y-64896000I-271738J0D01*
G01*
X144047738Y-64896000D01*
G75*
G02*
X143776000Y-64624262I0J271738D01*
G01*
X143776000Y-63917738D01*
G75*
G02*
X144047738Y-63646000I271738J0D01*
G01*
G37*
G36*
G01*
X144047738Y-61596000D02*
X145004262Y-61596000D01*
G75*
G02*
X145276000Y-61867738I0J-271738D01*
G01*
X145276000Y-62574262D01*
G75*
G02*
X145004262Y-62846000I-271738J0D01*
G01*
X144047738Y-62846000D01*
G75*
G02*
X143776000Y-62574262I0J271738D01*
G01*
X143776000Y-61867738D01*
G75*
G02*
X144047738Y-61596000I271738J0D01*
G01*
G37*
%TD*%
D12*
%TO.C,J1*%
X200660000Y-61976000D03*
D13*
X200660000Y-64516000D03*
X198120000Y-61976000D03*
X198120000Y-64516000D03*
X195580000Y-61976000D03*
X195580000Y-64516000D03*
X193040000Y-61976000D03*
X193040000Y-64516000D03*
X190500000Y-61976000D03*
X190500000Y-64516000D03*
X187960000Y-61976000D03*
X187960000Y-64516000D03*
X185420000Y-61976000D03*
X185420000Y-64516000D03*
X182880000Y-61976000D03*
X182880000Y-64516000D03*
X180340000Y-61976000D03*
X180340000Y-64516000D03*
X177800000Y-61976000D03*
X177800000Y-64516000D03*
X175260000Y-61976000D03*
X175260000Y-64516000D03*
X172720000Y-61976000D03*
X172720000Y-64516000D03*
X170180000Y-61976000D03*
X170180000Y-64516000D03*
X167640000Y-61976000D03*
X167640000Y-64516000D03*
X165100000Y-61976000D03*
X165100000Y-64516000D03*
X162560000Y-61976000D03*
X162560000Y-64516000D03*
X160020000Y-61976000D03*
X160020000Y-64516000D03*
X157480000Y-61976000D03*
X157480000Y-64516000D03*
X154940000Y-61976000D03*
X154940000Y-64516000D03*
X152400000Y-61976000D03*
X152400000Y-64516000D03*
%TD*%
D14*
%TO.C,J2*%
X94234000Y-86106000D03*
D15*
X94234000Y-88646000D03*
%TD*%
D16*
%TO.C,RN1*%
X116052000Y-93726000D03*
X115252000Y-93726000D03*
X114452000Y-93726000D03*
X113652000Y-93726000D03*
X112852000Y-93726000D03*
X112052000Y-93726000D03*
X111252000Y-93726000D03*
X110452000Y-93726000D03*
X110452000Y-92026000D03*
X111252000Y-92026000D03*
X112052000Y-92026000D03*
X112852000Y-92026000D03*
X113652000Y-92026000D03*
X114452000Y-92026000D03*
X115252000Y-92026000D03*
X116052000Y-92026000D03*
%TD*%
M02*
