%TF.GenerationSoftware,KiCad,Pcbnew,(5.1.6)-1*%
%TF.CreationDate,2022-03-09T09:08:39-05:00*%
%TF.ProjectId,a500hdd-remake,61353030-6864-4642-9d72-656d616b652e,rev?*%
%TF.SameCoordinates,Original*%
%TF.FileFunction,Paste,Bot*%
%TF.FilePolarity,Positive*%
%FSLAX46Y46*%
G04 Gerber Fmt 4.6, Leading zero omitted, Abs format (unit mm)*
G04 Created by KiCad (PCBNEW (5.1.6)-1) date 2022-03-09 09:08:39*
%MOMM*%
%LPD*%
G01*
G04 APERTURE LIST*
%ADD10R,0.450000X0.900000*%
G04 APERTURE END LIST*
%TO.C,C1*%
G36*
G01*
X140377000Y-72840001D02*
X140377000Y-71939999D01*
G75*
G02*
X140626999Y-71690000I249999J0D01*
G01*
X141277001Y-71690000D01*
G75*
G02*
X141527000Y-71939999I0J-249999D01*
G01*
X141527000Y-72840001D01*
G75*
G02*
X141277001Y-73090000I-249999J0D01*
G01*
X140626999Y-73090000D01*
G75*
G02*
X140377000Y-72840001I0J249999D01*
G01*
G37*
G36*
G01*
X142427000Y-72840001D02*
X142427000Y-71939999D01*
G75*
G02*
X142676999Y-71690000I249999J0D01*
G01*
X143327001Y-71690000D01*
G75*
G02*
X143577000Y-71939999I0J-249999D01*
G01*
X143577000Y-72840001D01*
G75*
G02*
X143327001Y-73090000I-249999J0D01*
G01*
X142676999Y-73090000D01*
G75*
G02*
X142427000Y-72840001I0J249999D01*
G01*
G37*
%TD*%
%TO.C,C2*%
G36*
G01*
X130235000Y-83762001D02*
X130235000Y-82861999D01*
G75*
G02*
X130484999Y-82612000I249999J0D01*
G01*
X131135001Y-82612000D01*
G75*
G02*
X131385000Y-82861999I0J-249999D01*
G01*
X131385000Y-83762001D01*
G75*
G02*
X131135001Y-84012000I-249999J0D01*
G01*
X130484999Y-84012000D01*
G75*
G02*
X130235000Y-83762001I0J249999D01*
G01*
G37*
G36*
G01*
X128185000Y-83762001D02*
X128185000Y-82861999D01*
G75*
G02*
X128434999Y-82612000I249999J0D01*
G01*
X129085001Y-82612000D01*
G75*
G02*
X129335000Y-82861999I0J-249999D01*
G01*
X129335000Y-83762001D01*
G75*
G02*
X129085001Y-84012000I-249999J0D01*
G01*
X128434999Y-84012000D01*
G75*
G02*
X128185000Y-83762001I0J249999D01*
G01*
G37*
%TD*%
%TO.C,C3*%
G36*
G01*
X128194000Y-72840001D02*
X128194000Y-71939999D01*
G75*
G02*
X128443999Y-71690000I249999J0D01*
G01*
X129094001Y-71690000D01*
G75*
G02*
X129344000Y-71939999I0J-249999D01*
G01*
X129344000Y-72840001D01*
G75*
G02*
X129094001Y-73090000I-249999J0D01*
G01*
X128443999Y-73090000D01*
G75*
G02*
X128194000Y-72840001I0J249999D01*
G01*
G37*
G36*
G01*
X130244000Y-72840001D02*
X130244000Y-71939999D01*
G75*
G02*
X130493999Y-71690000I249999J0D01*
G01*
X131144001Y-71690000D01*
G75*
G02*
X131394000Y-71939999I0J-249999D01*
G01*
X131394000Y-72840001D01*
G75*
G02*
X131144001Y-73090000I-249999J0D01*
G01*
X130493999Y-73090000D01*
G75*
G02*
X130244000Y-72840001I0J249999D01*
G01*
G37*
%TD*%
%TO.C,C4*%
G36*
G01*
X144075999Y-63696000D02*
X144976001Y-63696000D01*
G75*
G02*
X145226000Y-63945999I0J-249999D01*
G01*
X145226000Y-64596001D01*
G75*
G02*
X144976001Y-64846000I-249999J0D01*
G01*
X144075999Y-64846000D01*
G75*
G02*
X143826000Y-64596001I0J249999D01*
G01*
X143826000Y-63945999D01*
G75*
G02*
X144075999Y-63696000I249999J0D01*
G01*
G37*
G36*
G01*
X144075999Y-61646000D02*
X144976001Y-61646000D01*
G75*
G02*
X145226000Y-61895999I0J-249999D01*
G01*
X145226000Y-62546001D01*
G75*
G02*
X144976001Y-62796000I-249999J0D01*
G01*
X144075999Y-62796000D01*
G75*
G02*
X143826000Y-62546001I0J249999D01*
G01*
X143826000Y-61895999D01*
G75*
G02*
X144075999Y-61646000I249999J0D01*
G01*
G37*
%TD*%
D10*
%TO.C,RN1*%
X116052000Y-93726000D03*
X115252000Y-93726000D03*
X114452000Y-93726000D03*
X113652000Y-93726000D03*
X112852000Y-93726000D03*
X112052000Y-93726000D03*
X111252000Y-93726000D03*
X110452000Y-93726000D03*
X110452000Y-92026000D03*
X111252000Y-92026000D03*
X112052000Y-92026000D03*
X112852000Y-92026000D03*
X113652000Y-92026000D03*
X114452000Y-92026000D03*
X115252000Y-92026000D03*
X116052000Y-92026000D03*
%TD*%
M02*
